<mxfile host="app.diagrams.net" modified="2023-11-19T15:47:00.474Z" agent="Mozilla/5.0 (Windows NT 10.0; Win64; x64) AppleWebKit/537.36 (KHTML, like Gecko) Chrome/119.0.0.0 Safari/537.36" etag="TFUQzf9te56B510QEp63" version="22.1.3" type="device">
  <diagram name="Strona-1" id="UpJ67vGTa29NOyzZfQJo">
    <mxGraphModel dx="2404" dy="628" grid="1" gridSize="10" guides="1" tooltips="1" connect="1" arrows="1" fold="1" page="1" pageScale="1" pageWidth="1169" pageHeight="1654" math="0" shadow="0">
      <root>
        <mxCell id="0" />
        <mxCell id="1" parent="0" />
        <mxCell id="EIkCkoQk2M--rUu0jOC--2" value="Source of spells: SpellCastingComponent" style="rounded=0;whiteSpace=wrap;html=1;fillColor=#d5e8d4;strokeColor=#B31D12;" vertex="1" parent="1">
          <mxGeometry x="314" y="580" width="150" height="60" as="geometry" />
        </mxCell>
        <mxCell id="EIkCkoQk2M--rUu0jOC--6" value="" style="edgeStyle=orthogonalEdgeStyle;rounded=0;orthogonalLoop=1;jettySize=auto;html=1;" edge="1" parent="1" source="EIkCkoQk2M--rUu0jOC--2" target="EIkCkoQk2M--rUu0jOC--5">
          <mxGeometry relative="1" as="geometry">
            <mxPoint x="170" y="110" as="targetPoint" />
            <mxPoint x="339" y="50" as="sourcePoint" />
          </mxGeometry>
        </mxCell>
        <mxCell id="EIkCkoQk2M--rUu0jOC--5" value="Attachable Spells as Nodes" style="rounded=0;whiteSpace=wrap;html=1;" vertex="1" parent="1">
          <mxGeometry x="80" y="620" width="120" height="60" as="geometry" />
        </mxCell>
        <mxCell id="EIkCkoQk2M--rUu0jOC--26" style="edgeStyle=orthogonalEdgeStyle;rounded=0;orthogonalLoop=1;jettySize=auto;html=1;entryX=0.5;entryY=0;entryDx=0;entryDy=0;" edge="1" parent="1" source="EIkCkoQk2M--rUu0jOC--14" target="EIkCkoQk2M--rUu0jOC--18">
          <mxGeometry relative="1" as="geometry">
            <Array as="points">
              <mxPoint x="360" y="80" />
              <mxPoint x="360" y="30" />
              <mxPoint x="650" y="30" />
            </Array>
          </mxGeometry>
        </mxCell>
        <mxCell id="EIkCkoQk2M--rUu0jOC--14" value="Spell Class" style="swimlane;fontStyle=0;childLayout=stackLayout;horizontal=1;startSize=30;horizontalStack=0;resizeParent=1;resizeParentMax=0;resizeLast=0;collapsible=1;marginBottom=0;whiteSpace=wrap;html=1;" vertex="1" parent="1">
          <mxGeometry x="30" y="30" width="140" height="120" as="geometry" />
        </mxCell>
        <mxCell id="EIkCkoQk2M--rUu0jOC--15" value="float Cooldown" style="text;strokeColor=none;fillColor=none;align=left;verticalAlign=middle;spacingLeft=4;spacingRight=4;overflow=hidden;points=[[0,0.5],[1,0.5]];portConstraint=eastwest;rotatable=0;whiteSpace=wrap;html=1;" vertex="1" parent="EIkCkoQk2M--rUu0jOC--14">
          <mxGeometry y="30" width="140" height="30" as="geometry" />
        </mxCell>
        <mxCell id="EIkCkoQk2M--rUu0jOC--16" value="float CastTime" style="text;strokeColor=none;fillColor=none;align=left;verticalAlign=middle;spacingLeft=4;spacingRight=4;overflow=hidden;points=[[0,0.5],[1,0.5]];portConstraint=eastwest;rotatable=0;whiteSpace=wrap;html=1;" vertex="1" parent="EIkCkoQk2M--rUu0jOC--14">
          <mxGeometry y="60" width="140" height="30" as="geometry" />
        </mxCell>
        <mxCell id="EIkCkoQk2M--rUu0jOC--17" value="int ManaCost" style="text;strokeColor=none;fillColor=none;align=left;verticalAlign=middle;spacingLeft=4;spacingRight=4;overflow=hidden;points=[[0,0.5],[1,0.5]];portConstraint=eastwest;rotatable=0;whiteSpace=wrap;html=1;" vertex="1" parent="EIkCkoQk2M--rUu0jOC--14">
          <mxGeometry y="90" width="140" height="30" as="geometry" />
        </mxCell>
        <mxCell id="EIkCkoQk2M--rUu0jOC--46" style="edgeStyle=orthogonalEdgeStyle;rounded=0;orthogonalLoop=1;jettySize=auto;html=1;entryX=0.5;entryY=0;entryDx=0;entryDy=0;" edge="1" parent="1" source="EIkCkoQk2M--rUu0jOC--18" target="EIkCkoQk2M--rUu0jOC--47">
          <mxGeometry relative="1" as="geometry">
            <mxPoint x="650" y="450" as="targetPoint" />
          </mxGeometry>
        </mxCell>
        <mxCell id="EIkCkoQk2M--rUu0jOC--51" style="edgeStyle=orthogonalEdgeStyle;rounded=0;orthogonalLoop=1;jettySize=auto;html=1;entryX=0.5;entryY=0;entryDx=0;entryDy=0;" edge="1" parent="1" source="EIkCkoQk2M--rUu0jOC--18" target="EIkCkoQk2M--rUu0jOC--48">
          <mxGeometry relative="1" as="geometry">
            <mxPoint x="730" y="410" as="targetPoint" />
          </mxGeometry>
        </mxCell>
        <mxCell id="EIkCkoQk2M--rUu0jOC--53" style="edgeStyle=orthogonalEdgeStyle;rounded=0;orthogonalLoop=1;jettySize=auto;html=1;" edge="1" parent="1" source="EIkCkoQk2M--rUu0jOC--18" target="EIkCkoQk2M--rUu0jOC--52">
          <mxGeometry relative="1" as="geometry" />
        </mxCell>
        <mxCell id="EIkCkoQk2M--rUu0jOC--18" value="Aoe Spell Class" style="swimlane;fontStyle=0;childLayout=stackLayout;horizontal=1;startSize=30;horizontalStack=0;resizeParent=1;resizeParentMax=0;resizeLast=0;collapsible=1;marginBottom=0;whiteSpace=wrap;html=1;" vertex="1" parent="1">
          <mxGeometry x="550" y="70" width="200" height="240" as="geometry">
            <mxRectangle x="340" y="230" width="130" height="30" as="alternateBounds" />
          </mxGeometry>
        </mxCell>
        <mxCell id="EIkCkoQk2M--rUu0jOC--20" value="Shape" style="text;strokeColor=none;fillColor=none;align=left;verticalAlign=middle;spacingLeft=4;spacingRight=4;overflow=hidden;points=[[0,0.5],[1,0.5]];portConstraint=eastwest;rotatable=0;whiteSpace=wrap;html=1;" vertex="1" parent="EIkCkoQk2M--rUu0jOC--18">
          <mxGeometry y="30" width="200" height="30" as="geometry" />
        </mxCell>
        <mxCell id="EIkCkoQk2M--rUu0jOC--19" value="Radius / Size / Cone" style="text;strokeColor=none;fillColor=none;align=left;verticalAlign=middle;spacingLeft=4;spacingRight=4;overflow=hidden;points=[[0,0.5],[1,0.5]];portConstraint=eastwest;rotatable=0;whiteSpace=wrap;html=1;" vertex="1" parent="EIkCkoQk2M--rUu0jOC--18">
          <mxGeometry y="60" width="200" height="30" as="geometry" />
        </mxCell>
        <mxCell id="EIkCkoQk2M--rUu0jOC--21" value="DamageUpdateFrequency" style="text;strokeColor=none;fillColor=none;align=left;verticalAlign=middle;spacingLeft=4;spacingRight=4;overflow=hidden;points=[[0,0.5],[1,0.5]];portConstraint=eastwest;rotatable=0;whiteSpace=wrap;html=1;" vertex="1" parent="EIkCkoQk2M--rUu0jOC--18">
          <mxGeometry y="90" width="200" height="30" as="geometry" />
        </mxCell>
        <mxCell id="EIkCkoQk2M--rUu0jOC--23" value="Inner Radius/ Outer Radius" style="text;strokeColor=none;fillColor=none;align=left;verticalAlign=middle;spacingLeft=4;spacingRight=4;overflow=hidden;points=[[0,0.5],[1,0.5]];portConstraint=eastwest;rotatable=0;whiteSpace=wrap;html=1;" vertex="1" parent="EIkCkoQk2M--rUu0jOC--18">
          <mxGeometry y="120" width="200" height="30" as="geometry" />
        </mxCell>
        <mxCell id="EIkCkoQk2M--rUu0jOC--24" value="Inner Damage / Outer Damage" style="text;strokeColor=none;fillColor=none;align=left;verticalAlign=middle;spacingLeft=4;spacingRight=4;overflow=hidden;points=[[0,0.5],[1,0.5]];portConstraint=eastwest;rotatable=0;whiteSpace=wrap;html=1;" vertex="1" parent="EIkCkoQk2M--rUu0jOC--18">
          <mxGeometry y="150" width="200" height="30" as="geometry" />
        </mxCell>
        <mxCell id="EIkCkoQk2M--rUu0jOC--25" value="DamageUpdateFrequency" style="text;strokeColor=none;fillColor=none;align=left;verticalAlign=middle;spacingLeft=4;spacingRight=4;overflow=hidden;points=[[0,0.5],[1,0.5]];portConstraint=eastwest;rotatable=0;whiteSpace=wrap;html=1;" vertex="1" parent="EIkCkoQk2M--rUu0jOC--18">
          <mxGeometry y="180" width="200" height="30" as="geometry" />
        </mxCell>
        <mxCell id="EIkCkoQk2M--rUu0jOC--57" value="ActiveTime" style="text;strokeColor=none;fillColor=none;align=left;verticalAlign=middle;spacingLeft=4;spacingRight=4;overflow=hidden;points=[[0,0.5],[1,0.5]];portConstraint=eastwest;rotatable=0;whiteSpace=wrap;html=1;" vertex="1" parent="EIkCkoQk2M--rUu0jOC--18">
          <mxGeometry y="210" width="200" height="30" as="geometry" />
        </mxCell>
        <mxCell id="EIkCkoQk2M--rUu0jOC--27" value="Projectile Spell Class" style="swimlane;fontStyle=0;childLayout=stackLayout;horizontal=1;startSize=30;horizontalStack=0;resizeParent=1;resizeParentMax=0;resizeLast=0;collapsible=1;marginBottom=0;whiteSpace=wrap;html=1;" vertex="1" parent="1">
          <mxGeometry x="314" y="150" width="200" height="270" as="geometry">
            <mxRectangle x="340" y="230" width="130" height="30" as="alternateBounds" />
          </mxGeometry>
        </mxCell>
        <mxCell id="EIkCkoQk2M--rUu0jOC--28" value="Shape" style="text;strokeColor=none;fillColor=none;align=left;verticalAlign=middle;spacingLeft=4;spacingRight=4;overflow=hidden;points=[[0,0.5],[1,0.5]];portConstraint=eastwest;rotatable=0;whiteSpace=wrap;html=1;" vertex="1" parent="EIkCkoQk2M--rUu0jOC--27">
          <mxGeometry y="30" width="200" height="30" as="geometry" />
        </mxCell>
        <mxCell id="EIkCkoQk2M--rUu0jOC--56" value="projectilespeed" style="text;strokeColor=none;fillColor=none;align=left;verticalAlign=middle;spacingLeft=4;spacingRight=4;overflow=hidden;points=[[0,0.5],[1,0.5]];portConstraint=eastwest;rotatable=0;whiteSpace=wrap;html=1;" vertex="1" parent="EIkCkoQk2M--rUu0jOC--27">
          <mxGeometry y="60" width="200" height="30" as="geometry" />
        </mxCell>
        <mxCell id="EIkCkoQk2M--rUu0jOC--29" value="spawn aoe" style="text;strokeColor=none;fillColor=none;align=left;verticalAlign=middle;spacingLeft=4;spacingRight=4;overflow=hidden;points=[[0,0.5],[1,0.5]];portConstraint=eastwest;rotatable=0;whiteSpace=wrap;html=1;" vertex="1" parent="EIkCkoQk2M--rUu0jOC--27">
          <mxGeometry y="90" width="200" height="30" as="geometry" />
        </mxCell>
        <mxCell id="EIkCkoQk2M--rUu0jOC--30" value="fire rate" style="text;strokeColor=none;fillColor=none;align=left;verticalAlign=middle;spacingLeft=4;spacingRight=4;overflow=hidden;points=[[0,0.5],[1,0.5]];portConstraint=eastwest;rotatable=0;whiteSpace=wrap;html=1;" vertex="1" parent="EIkCkoQk2M--rUu0jOC--27">
          <mxGeometry y="120" width="200" height="30" as="geometry" />
        </mxCell>
        <mxCell id="EIkCkoQk2M--rUu0jOC--31" value="recoil" style="text;strokeColor=none;fillColor=none;align=left;verticalAlign=middle;spacingLeft=4;spacingRight=4;overflow=hidden;points=[[0,0.5],[1,0.5]];portConstraint=eastwest;rotatable=0;whiteSpace=wrap;html=1;" vertex="1" parent="EIkCkoQk2M--rUu0jOC--27">
          <mxGeometry y="150" width="200" height="30" as="geometry" />
        </mxCell>
        <mxCell id="EIkCkoQk2M--rUu0jOC--32" value="damage falloff with distance" style="text;strokeColor=none;fillColor=none;align=left;verticalAlign=middle;spacingLeft=4;spacingRight=4;overflow=hidden;points=[[0,0.5],[1,0.5]];portConstraint=eastwest;rotatable=0;whiteSpace=wrap;html=1;" vertex="1" parent="EIkCkoQk2M--rUu0jOC--27">
          <mxGeometry y="180" width="200" height="30" as="geometry" />
        </mxCell>
        <mxCell id="EIkCkoQk2M--rUu0jOC--33" value="projectile count" style="text;strokeColor=none;fillColor=none;align=left;verticalAlign=middle;spacingLeft=4;spacingRight=4;overflow=hidden;points=[[0,0.5],[1,0.5]];portConstraint=eastwest;rotatable=0;whiteSpace=wrap;html=1;" vertex="1" parent="EIkCkoQk2M--rUu0jOC--27">
          <mxGeometry y="210" width="200" height="30" as="geometry" />
        </mxCell>
        <mxCell id="EIkCkoQk2M--rUu0jOC--43" value="eg. water bubble" style="text;strokeColor=none;fillColor=none;align=left;verticalAlign=middle;spacingLeft=4;spacingRight=4;overflow=hidden;points=[[0,0.5],[1,0.5]];portConstraint=eastwest;rotatable=0;whiteSpace=wrap;html=1;" vertex="1" parent="EIkCkoQk2M--rUu0jOC--27">
          <mxGeometry y="240" width="200" height="30" as="geometry" />
        </mxCell>
        <mxCell id="EIkCkoQk2M--rUu0jOC--34" style="edgeStyle=orthogonalEdgeStyle;rounded=0;orthogonalLoop=1;jettySize=auto;html=1;entryX=0.5;entryY=0;entryDx=0;entryDy=0;" edge="1" parent="1" source="EIkCkoQk2M--rUu0jOC--16" target="EIkCkoQk2M--rUu0jOC--27">
          <mxGeometry relative="1" as="geometry">
            <Array as="points">
              <mxPoint x="414" y="90" />
            </Array>
          </mxGeometry>
        </mxCell>
        <mxCell id="EIkCkoQk2M--rUu0jOC--35" value="Beam Spell Class" style="swimlane;fontStyle=0;childLayout=stackLayout;horizontal=1;startSize=30;horizontalStack=0;resizeParent=1;resizeParentMax=0;resizeLast=0;collapsible=1;marginBottom=0;whiteSpace=wrap;html=1;" vertex="1" parent="1">
          <mxGeometry x="50" y="190" width="200" height="240" as="geometry">
            <mxRectangle x="340" y="230" width="130" height="30" as="alternateBounds" />
          </mxGeometry>
        </mxCell>
        <mxCell id="EIkCkoQk2M--rUu0jOC--36" value="RayCastRange" style="text;strokeColor=none;fillColor=none;align=left;verticalAlign=middle;spacingLeft=4;spacingRight=4;overflow=hidden;points=[[0,0.5],[1,0.5]];portConstraint=eastwest;rotatable=0;whiteSpace=wrap;html=1;" vertex="1" parent="EIkCkoQk2M--rUu0jOC--35">
          <mxGeometry y="30" width="200" height="30" as="geometry" />
        </mxCell>
        <mxCell id="EIkCkoQk2M--rUu0jOC--37" value="BeamSize" style="text;strokeColor=none;fillColor=none;align=left;verticalAlign=middle;spacingLeft=4;spacingRight=4;overflow=hidden;points=[[0,0.5],[1,0.5]];portConstraint=eastwest;rotatable=0;whiteSpace=wrap;html=1;" vertex="1" parent="EIkCkoQk2M--rUu0jOC--35">
          <mxGeometry y="60" width="200" height="30" as="geometry" />
        </mxCell>
        <mxCell id="EIkCkoQk2M--rUu0jOC--38" value="DamageUpdateFrequency" style="text;strokeColor=none;fillColor=none;align=left;verticalAlign=middle;spacingLeft=4;spacingRight=4;overflow=hidden;points=[[0,0.5],[1,0.5]];portConstraint=eastwest;rotatable=0;whiteSpace=wrap;html=1;" vertex="1" parent="EIkCkoQk2M--rUu0jOC--35">
          <mxGeometry y="90" width="200" height="30" as="geometry" />
        </mxCell>
        <mxCell id="EIkCkoQk2M--rUu0jOC--39" value="OneShotDamage / constant damage" style="text;strokeColor=none;fillColor=none;align=left;verticalAlign=middle;spacingLeft=4;spacingRight=4;overflow=hidden;points=[[0,0.5],[1,0.5]];portConstraint=eastwest;rotatable=0;whiteSpace=wrap;html=1;" vertex="1" parent="EIkCkoQk2M--rUu0jOC--35">
          <mxGeometry y="120" width="200" height="30" as="geometry" />
        </mxCell>
        <mxCell id="EIkCkoQk2M--rUu0jOC--40" value="Damage Falloff with distance" style="text;strokeColor=none;fillColor=none;align=left;verticalAlign=middle;spacingLeft=4;spacingRight=4;overflow=hidden;points=[[0,0.5],[1,0.5]];portConstraint=eastwest;rotatable=0;whiteSpace=wrap;html=1;" vertex="1" parent="EIkCkoQk2M--rUu0jOC--35">
          <mxGeometry y="150" width="200" height="30" as="geometry" />
        </mxCell>
        <mxCell id="EIkCkoQk2M--rUu0jOC--41" value="Beam Count" style="text;strokeColor=none;fillColor=none;align=left;verticalAlign=middle;spacingLeft=4;spacingRight=4;overflow=hidden;points=[[0,0.5],[1,0.5]];portConstraint=eastwest;rotatable=0;whiteSpace=wrap;html=1;" vertex="1" parent="EIkCkoQk2M--rUu0jOC--35">
          <mxGeometry y="180" width="200" height="30" as="geometry" />
        </mxCell>
        <mxCell id="EIkCkoQk2M--rUu0jOC--55" value="eg. lightning beam; laser beam; light pointer beam" style="text;strokeColor=none;fillColor=none;align=left;verticalAlign=middle;spacingLeft=4;spacingRight=4;overflow=hidden;points=[[0,0.5],[1,0.5]];portConstraint=eastwest;rotatable=0;whiteSpace=wrap;html=1;" vertex="1" parent="EIkCkoQk2M--rUu0jOC--35">
          <mxGeometry y="210" width="200" height="30" as="geometry" />
        </mxCell>
        <mxCell id="EIkCkoQk2M--rUu0jOC--42" style="edgeStyle=orthogonalEdgeStyle;rounded=0;orthogonalLoop=1;jettySize=auto;html=1;exitX=1;exitY=0.5;exitDx=0;exitDy=0;" edge="1" parent="1" source="EIkCkoQk2M--rUu0jOC--16" target="EIkCkoQk2M--rUu0jOC--35">
          <mxGeometry relative="1" as="geometry" />
        </mxCell>
        <mxCell id="EIkCkoQk2M--rUu0jOC--47" value="AoeCircleSpell" style="rounded=0;whiteSpace=wrap;html=1;" vertex="1" parent="1">
          <mxGeometry x="530" y="420" width="120" height="60" as="geometry" />
        </mxCell>
        <mxCell id="EIkCkoQk2M--rUu0jOC--48" value="AoeCubeSpell" style="rounded=0;whiteSpace=wrap;html=1;" vertex="1" parent="1">
          <mxGeometry x="670" y="420" width="120" height="60" as="geometry" />
        </mxCell>
        <mxCell id="EIkCkoQk2M--rUu0jOC--52" value="AoeConeSpell" style="rounded=0;whiteSpace=wrap;html=1;" vertex="1" parent="1">
          <mxGeometry x="600" y="525" width="120" height="60" as="geometry" />
        </mxCell>
        <mxCell id="EIkCkoQk2M--rUu0jOC--60" style="edgeStyle=orthogonalEdgeStyle;rounded=0;orthogonalLoop=1;jettySize=auto;html=1;" edge="1" parent="1" source="EIkCkoQk2M--rUu0jOC--58" target="EIkCkoQk2M--rUu0jOC--61">
          <mxGeometry relative="1" as="geometry">
            <mxPoint x="414" y="900" as="targetPoint" />
          </mxGeometry>
        </mxCell>
        <mxCell id="EIkCkoQk2M--rUu0jOC--58" value="Spell Casting" style="shape=hexagon;perimeter=hexagonPerimeter2;whiteSpace=wrap;html=1;fixedSize=1;" vertex="1" parent="1">
          <mxGeometry x="354" y="740" width="120" height="80" as="geometry" />
        </mxCell>
        <mxCell id="EIkCkoQk2M--rUu0jOC--65" style="edgeStyle=orthogonalEdgeStyle;rounded=0;orthogonalLoop=1;jettySize=auto;html=1;" edge="1" parent="1" source="EIkCkoQk2M--rUu0jOC--61" target="EIkCkoQk2M--rUu0jOC--66">
          <mxGeometry relative="1" as="geometry">
            <mxPoint x="390" y="1010" as="targetPoint" />
          </mxGeometry>
        </mxCell>
        <mxCell id="EIkCkoQk2M--rUu0jOC--61" value="Spells are casted by Combos - sequence of keys, described in spellbook" style="shape=process;whiteSpace=wrap;html=1;backgroundOutline=1;" vertex="1" parent="1">
          <mxGeometry x="300" y="870" width="180" height="80" as="geometry" />
        </mxCell>
        <mxCell id="EIkCkoQk2M--rUu0jOC--62" value="The combos are type-dependent - eg. fireball = F-B-G-RMB == fire-&amp;gt;projectile-&amp;gt;ball-&amp;gt;CastSpell()" style="shape=callout;whiteSpace=wrap;html=1;perimeter=calloutPerimeter;" vertex="1" parent="1">
          <mxGeometry x="514" y="800" width="160" height="130" as="geometry" />
        </mxCell>
        <mxCell id="EIkCkoQk2M--rUu0jOC--64" style="edgeStyle=orthogonalEdgeStyle;rounded=0;orthogonalLoop=1;jettySize=auto;html=1;entryX=0;entryY=0;entryDx=80;entryDy=130;entryPerimeter=0;" edge="1" parent="1" source="EIkCkoQk2M--rUu0jOC--61" target="EIkCkoQk2M--rUu0jOC--62">
          <mxGeometry relative="1" as="geometry" />
        </mxCell>
        <mxCell id="EIkCkoQk2M--rUu0jOC--66" value="Every key press is visualised with a symbol somewhere in the gui - F creates a fire symbol, then projectile a porjectile symbol etc." style="shape=process;whiteSpace=wrap;html=1;backgroundOutline=1;" vertex="1" parent="1">
          <mxGeometry x="330" y="980" width="260" height="60" as="geometry" />
        </mxCell>
        <mxCell id="EIkCkoQk2M--rUu0jOC--70" value="IF PLAYER CASTS WITH TWO HANDS - INPUT SAVED IN USED HAND, CAN USE THIS SPELL AGAIN; CAN SAVE ANOTHER SPELL IN THE OTHER HAND, CAUSE LMB = INSERT SPELL TO LEFT HAND, RMB - INSERT SPELL TO RIGHT HAND" style="rounded=0;whiteSpace=wrap;html=1;" vertex="1" parent="1">
          <mxGeometry x="70" y="780" width="120" height="215" as="geometry" />
        </mxCell>
        <mxCell id="EIkCkoQk2M--rUu0jOC--71" value="" style="shape=image;verticalLabelPosition=bottom;labelBackgroundColor=default;verticalAlign=top;aspect=fixed;imageAspect=0;image=data:image/png,iVBORw0KGgoAAAANSUhEUgAAA+oAAALzCAYAAACGMP01AAAgAElEQVR4AeydB5QUxRaGm81xlgwCkiQHSaKiiEgQkGR+YsAERtSnKCIqGJ+ACRUE0YcgQZCoCGJERcWECUXE+ExgAJSc5L5za5l1wQ0zuz0z1T1fn9M7uzsz3dX3fnWr/opOmTJlxHEcTmwAAzAAAzAAAzAAAzAAAzAAAzAAAzFiQLV57dq1zekg1GmkoKEGBmAABmAABmAABmAABmAABmAgtgwg1GPUQgL4sQUf+2N/GIABGIABGIABGIABGIABWxlAqCPUGc4CAzAAAzAAAzAAAzAAAzAAAzBgEQMIdYucYWtrDumipREGYAAGYAAGYAAGYAAGYAAGoscAQh2hTssZDMAADMAADMAADMAADMAADMCARQwg1C1yBi1U0WuhwtbYGgZgAAZgAAZgAAZgAAZgwFYGEOoIdVrOYAAGYAAGYAAGYAAGYAAGYAAGLGIAoW6RM2xtzSFdtDTCAAzAAAzAAAzAAAzAAAzAQPQYQKgj1Gk5gwEYgAEYgAEYgAEYgAEYgAEYsIgBhLpFzqCFKnotVNgaW8MADMAADMAADMAADMAADNjKAEIdoU7LGQzAAAzAAAzAAAzAAAzAAAzAgEUMINQtcoatrTmki5ZGGIABGIABGIABGIABGIABGIgeAwh1hDotZzAAAzAAAzAAAzAAAzAAAzAAAxYxgFC3yBm0UEWvhQpbY2sYgAEYgAEYgAEYgAEYgAFbGUCoI9RpOYMBGIABGIABGIABGIABGIABGLCIAYS6Rc6wtTWHdNHSCAMwAAMwAAMwAAMwAAMwAAPRYwChjlCn5QwGYAAGYAAGYAAGYAAGYAAGYMAiBhDqFjmDFqrotVBha2wNAzAAAzAAAzAAAzAAAzBgKwMIdYQ6LWcwAAMwAAMwAAMwAAMwAAMwAAMWMYBQt8gZtrbmkC5aGmEABmAABmAABmAABmAABmAgegwg1BHqtJzBAAzAAAzAAAzAAAzAAAzAAAxYxABC3SJn0EIVvRYqbI2tYQAGYAAGYAAGYAAGYAAGbGUAoY5Qp+UMBmAABmAABmAABmAABmAABmDAIgYQ6hY5w9bWHNJFSyMMwAAMwAAMwAAMwAAMwAAMRI8BhDpCnZYzGIABGIABGIABGIABGIABGIABixhAqFvkDFqootdCha2xNQzAAAzAAAzAAAzAAAzAgK0MINQR6rScwQAMwAAMwAAMwAAMwAAMwAAMWMQAQt0iZ9jamkO6aGmEARiAARiAARiAARiAARiAgegxgFBHqNNyBgMwAAMwAAMwAAMwAAMwAAMwYBEDcSfUy6UnSv0KKZKUUAYQLQLR2ta5spXFqXSwOGUS4AVeYAAGQmKgbGpZaViuoTSr0KxEZ/Ws6pJAzAnJ1taWHeQV/AcDMAADMFBKBuJOqE89qap8fWVd6d0wS84+NCC3HVdRbulox3lrx4oy/NiK0q1epiR7uSGhSh1x2vQQJz3b2xk0PSDOkFni/OdVcSrV9PazlDJQUBmO3jAnbO1NW6uwrptTV/oecqIMbzdCpnafJnN6zZXZveaEdep3HjpurDQo14CYQ9yCARiAARiAgThmIK6EuvaibxpWX+SOxrLysjqy6eYGIqObiIyy6/xjWH1pUjHFuxnzuifFmfyzOO1O8u4zVK0nzuDp4szYIM68neLUbeXdZwkjwHU9IkmG9k+VyuXcHXFSNquM3Hh+qrw0NkNeHpdhXvX3/Ocr4zLkvzelS4v6jF5ArHtLrNfMrilXtLpSHjzuIZnV6ymZ3XuOTDthukztMS3sU783v88C6VCjQ1zEHFj3Fuv4C3/BAAzAQPQYiD+hfoMK9UYy9aSD5M0LasqXV9SRLwbZc35zVV15tl91OSgrybuVtIdXiTN/jzjdLvLuMwwcI85Tm8WZslac4YvEKV/Nu88SolBPTHDkq3nZIp/kyL+6JJfoeSvklJEGNRPyzvoHJ0jTugky+64MkQ8CIqtzRNYUca4MyKpZWdKhVaIkJUYvEFLoYOuSMlA5vbLcdtTtMqf3XHmy50x5uPPDMqjlFdKsYnNJT8qQzOSskM/slIA81GmsLOj7tLSr1q5EebCkz8H3yAMwAAMwAAMwYBcD8SnU72os5xwaoBIUooALO9PeuVScOdvE6TfCuza+9klx5u0S56anxUnP8u5zhOFjFcabXs0WWZUj55wQvlBXUf72fzNFPgzkinIV5vnOXcsDsuj+DJl8c7o8MeKf57Rb0+X3F7NFPg7IT4uz5ck70uWafinSvkWSpCbbFTjDzhNh+IFre8fXGUkZcmWrq0wv+n+PnySnNjhVqmYeVKp4ceRB7eSsRmdLhbQKpboOHHmHI3yFr2AABmAABgpiAKFOBdr9yuCpN4gz809xbn9RnHKlq7QWBG3E/9ewnTgPrRRn1iZx+t/lvn0sZU6F+p9Lc3vU7/13miQkhBc0T+2ULPJpjsg7gVyxroJdz48DsuPtgIy8PFUy0oq+5mmdk+WnxVmmV19W5oh8liMbXs6WK/+VImXKFP3diHNhqd947thwUcYpI6c3/JdM6zFdpp8wQ3rW6Rk3sQLmYsMcdsfuMAADMBBfDCDUqXy7X7ms2VycJ9aJM329OE3au3/9SPosq5w42puuIn3Mh+LowniRvJ9l19Zebe0F3/VmQK47OzXkZ+/eLkk+nZkpsiIgO94KSJtGuUPemx2SIM3rJUjDWgnFinS1s4rxJnUT5N9npMiC0Rny+wtZIh/lyNZlAVk1M0s+mpYld1ySKlkZ7s6h94qPMzPT5epBp8qlA3pLYqJdc/nT0lLksotOlKsuO1lSU8IfkeEVH1RMrygXNBsgo44ZLZO7TzG96QOaD2SVdstimVd4Ip3xVenG3/gbBmAgHAYQ6lQuQhZjIYOVkSPO8MW5Yvfs292/fiR9dkhrcab+Is7038Xp0M9baXfBLlXLl5FXx2eaXvBfloS+av/q2Vm5w9w/zpHfXsx2baj6IdUT5PUJmbk99V/k5N7jwxxp3TAx7nyj+e+oI5rI5rXPyPrv50nZsnZNyWjWpLZs/HGBbFr7jNSoVtGX/qmWVU1GtLtFnuo128wjn9dnvlzfdqjodmwhx0cX8in3oqIHAzAAAzAAA/5nAKFOpSkyFcw+V+Uuxnb/CnG0l9oLdtY9088bnbvSuwp1/dsL6XY5jQNPTDHz1Ne/GLpQX/uczi3PkVcezpC+xya5Oky9bo0EGXZeqkwYmibyng6lz5HDGsenUO94TAvZvfF5I4jLlQ3dP9HguFWLerJz/XOy5ZeFcnD1Sr7LO0GRrqu6P3r8Y3JBswvlxHonSrVM/y80GQ1+uIf/K5z4GB/DAAzAQHgMINRdFjkAuA9Anec98etc0dvjUm9U2i96MHdu/bTfxbnvfXEy47OXbOBJKSKf58iWV7OlVYPQhlevXZxtvqNzySOVB2pWTTBD6+NeqP/xvPzx09MyZvRlUu8Qe0Riq0PryY71z8nmdf4T6jrc/aYjbjL7oeuicV1rHS+OE5/TLyKVv7lueJU37IW9YAAGYMD/DCDUEeqREVaJyeJcNiF39fdRb4iT44He6bteF2f2NnGuf0qcCjUiYxcP8Nb/hOTcReA+Csj80Rkh2QGhHp3CQoe+b/99sWxZ96zs2fi83HvXJSH5JxqFuZ+Feu+6vc1w98e7Td4n0qPj72j4jXvgSxiAARiAARiwkwGEugeEk2czT/NOub3qOoy85yBrBEWB9kzPFufu5eLM3y3OGR7eVs4FniuVLSPLJmaaHvIXx1km1PetJN+3Q5LdPLngh4I4DQQyZfCVp8m3n06TvZtelEcevNoaO/hZqJ/R6AwzJ31k+5HW2LsgPvifnRUt/IJfYAAGYAAGSsIAQj1CFeqSOMOX37lqcu5c9dtfEqfiwXZWclMzxOn/n32LyK0X5/iBdqYziqw+cUu6yJoceXGsPUK9YtkysnpOluntXzUzUw5vEp/z1DVOzH/yVpHtS2XCA/+2hlU/C/Vzm54n8/sskDuOvsMae/uyvIhijMN+VJphAAZgAAZsZwChTsUgshXPBkeIM/lncZ7cKE6XCyN7r5L6skVncZ5Ym7ud3IAx4qRm2pnOkj5fCb4XjlDvcVSSbH09W2R1jtnvPJJB78Rjk2T9C9lmFfjFY0JrRIhkemJ17TnThotsfVmmTxomThk75kr7VagHUgJyw+HDzPz0Ac0vivvYECvmuS8VahiAARiAgXhjAKFeAhETb5CU6nnLJIhz+aPizPxDnJFviJNV3r6KbvvTxZm7I3eYvvauw4SEKtR19fXvFuTudf7VvCxpG4Ve7oeHpIl8kSPvPRG/DSr/vvxks2jb5ysmyeFtGlnBrF+FeuvKrWV85wnyZM+ZclS1o62wNTGKyioMwAAMwAAM+J8BhDqiLPIVz2YdxHnyj9wV4KvUifz9wvXp0afmLno38StxEuJz7vOBwT5UoT74zBTTu71pabZ0bhudoegPXLNPqE+OX6Gu2599+9k0sx3a1ZefakWe8ptQT0pIkk41O8nYTuNkZs9Z8kjXiaKrvx+YV/jb/xUlfIyPYQAGYAAGYsEAQj1cUcfnw6+oHlRPnHGrxHlygzhHnRz+9yNt86BQf/RrhPo+W4cq1K/vn2KGvP/v6ayo+RWhnltYPvrQ1WY7tKWL75XKFWO/laDZR33Dc7Jp7TPy4D2DpEE97+6ckJaYJmc1Pkum9phmhrw/1GmstKt2VNQYj0VlgHtSCYUBGIABGIABuxhAqEdaBHJ9cXQ4+eUTxZm9RZxrptlV2U1OFSe4f/ojX4qTEJ1eYdsDIULdrkBdEC9HHt5Ytv76rGz95Vlp3LBmzPNV86Z1TFq2rFsouzYskYkPXRPzNBVkt1D+d8RBR8i0HtNNT/rwdiOkdsDCkUCULZ7lKxQG+Yz9MRgf4SMYgIFIM4BQp7ITncpO53Nzh79PWCNO+YOic89QfFu5ljiTfxJnxnpxTr/JnnSFkvYIfgahbn/hc0idakao677qTRrVijm7mRlpZuu4rz55Qvb88YLMmnJzzNNU0gK0W+3uZpX3hzuPl4wk1q0oqR35nv1xBB/hIxiAARiwlwGEegTFDuDnA79OS3HuX5G7BVrn8+ypwFetm7siva5KX8OORbls4Aahno9dS2NErlBfJNt/s0OoB7md/MgQs3XczMnebfg6vlY3I9THdhprT6yylMOg33m1P2bgI3wEAzAAA95iAKFO5Sc6FVHdQurqJ3JXV//35OjcszjfHtxYnGHzxZn+uzizNoujfxf3nTh5H6FufyBHqEfORwj1yNmWGIttYQAGYAAGYCA0BhDqcSK8rMgQJ16d23t9x8vilKsSe1E8aKI4T20R5/EfxRk6R5ycSrFPkyU8Wi/U18T39myanxHqoRVyJYl9CPXI2bYk/uA7+AMGYAAGYCAeGUCoWyKM4gK+1t3FmfSDOA+tFKfBEbEXxSrO5+0U57onxUlJi316LGIxFKFerVIZmXlnutmeLVqrvteoXEbeeizT3POVh+N77jBCPXKVFoR65GwbF2WdRbEce8MyDMAADHiXAYQ6BWr0BGqlmuI8/HnuPPX2p0fvvoX5+PqnxFmwR5yLmYd6YBAvTqinJDvy6oRMkfcDIh8E5H/PRn57toQER0YPShVZEZA9ywPS55j43vMeoR65gleF+rw+C8we6gfmDf6OnN2xLbaFARiAARiAgb8ZQKgXJuL4f2SE9Mhl4szZJk6/EZG5fqh+y8gR59bnxZm/S5xLEOoHBsXihHp2RhnZ/XZA5L2AbH0tW+6/OjWi/kxNceSoFomybVlA5MOAjB/CCIigUN/22yI5rE2DiNr/QD6K+tvri8llpWTJtYddJ7N7z0WohxpP+Zw1+a+ovMl7f1d+sQW2gAEY8AIDCHUqGNGtYJx9pzgz/xRn5Bvi6NZosbL/SdeKM/03cSb/LI4NvfuxskMh9w1JqL8VEFmZI73aR7Zn+7DGifLB1CzTKKAi/Yu5mVL7oITYsVOIzaLNcr261WTn+ufkj5+eFt0S7cL+PaywibeFehkZ0Hyg2T99Svcn5KR6J1th02izxf2owMIADMAADMBA7BlAqFtS6Y6bzFD7UHGm/CzO9PXitItRJbhGY3Ee+Ch3YbvLJ4iTgOg7kD9bhHp6qiPTb083DQLyUUDk4xy57uwUxJPjSOVKZeWjtx4R3Uddz+efHmmFXbws1JMTkuXRro/JrF5PSf8m50pCGWLDgbGBv2NfccMH+AAGYAAG4oMBhDpCPbqV+9R0cYbMyu1V1zniScnRvb/6u+Xx4szalDtXvkrd6N/fA8zZItSPbZ0kO94ImHnpd1ySKke3SJTygTL4zHFEg3eN6pVk9tThIltekufm32WFXbwu1B/v9rjM6T1XDq96uBX2pDIWH5Ux/IyfYQAGYAAGDmQAoe4B0XSg0zz/99Gn/b0tWlrkFyHbz14d+uUuaDdjgzhT14mTWZbKeAF5wAahnpNZRhbely7ySUA+fypTymYj0PdjeZ/fxoy6TGT7UoR6ARwXZK+i/qc96pMQ6sREF1gqijPeozIOAzAAAzAQCgMIdQrk6FfKGrfPnRv+xC/iNO8Yvfs3bCfO+C9yh7zrFnGnDRMnMbLzq0PJhDZ+xgj11Tmy8slMaVE/QZIS9w+oujXbngjOUa9SvoxMGZFuVpTXleUvOSkGIy88EhsQ6vuzWZr8hFB3z5al8QPfxQ8wAAMwAAMwkDt6snbt2qKno6rdz0ZJSigjm26oL3JXYznn0ICvn9VqP5arKs7NC8V5arM4gyZGxw+BCuIMnZ17z3vfFafx0eIkJEbn3h4RfPmZMUJ9ZY7Zfm3dkmxp0WB/Wz04OC13cbfPcqSXi9ukpaU6cmHfZFk2MVP+WpG7qvyE69NEV5nPnz5+/7sAR6j/bYvScoFQd8+WpfUF38cXMAADMAAD8c4APeqOIzVzkuXxE6vKZ5fVlpWXlv789LLa8sHFtWT4sRUkPQmBUWAmO/m63HniuqhbtShsLXV4H3Gm/ibOlLXiHHsmoq+YxoNTjkuWX5dk54rxVTnS5Yj9Rx6snJkl8kmOfDk3S5rWdWfBraMPTZJ3JmXKDt327bMc+evtgDwyNE2y0imoCsxD+3yIUHePD4S6e7Ysilnew84wAAMwAAMwUDwDCHXHkQGtcuSvOxuLjG4iMsqlc3QT2T68odQpy5DdAjNi7ebiPPhJ7jD0vldHXjgfd444c3fkzk8vRqQWmN44/E6lcmVE3gkYQd6l7QFCfUaWyBc5MvJyd/ZPr1MtQT6eniWyMiDb3sqW1yZkyGmd978nfik4oCPUC7ZLSXhBqLtny5LYn+9gfxiAARiAARj4mwGEuuNI9ewkGXJ0eRndpZLc1dmdc3TXSnJhq7KSRo964SL8yknizN4qzo1Pi5NdofDPuSGSO50rztztuXPU3bheHFxDV1cPVag3rJkgV/4rRW44N1WG9g/vHHxmqiy8N8MMs9/8WrZcfFIyvehh8GWDUK9cqZx073q4pKQkyaTx15rF7WZOvimyeToMG4Va6CPU/64chGozPofNYAAGYAAGYCAyDCDUI1DZA9YQYT2spzhT1onz+A/itOwauUp9aoY4gx4VZ9Zmce56PXL38RlL4Qj1Rffv2+v8sxwzbF1W5YisDuP8NCDyYUDu+3ca/gmTIxuE+v0jL5MNPyyQ88/pLuPuuwKhHqYPKTNCLDOwK/ERBmAABmAgjhhAqMeRs62rDCYmi3P38twF3i64Wxz9OxL+aHasOE+sE2fGenE6nhWZe0Qi3TG+ZjhC/Z4r08xe5/JewPTCr12cLV/NzZLvFoR2/rgwS6bdmi5ZGVTYw80DD9x9edS3Z+veta0sfe4e+fLjKbL6g8dl/Q/zRba+LLfeeK48uC899KjDcrgs83mYgQEYgAEYgIG/GUCox1gMxT2MPS7Nnaf+8CpxKlR3V0QnpYjToos4t78ozqw/xbn9pcgPsfcRT3lC/aOADDsvVcrl28d85QFz1DPTyhihbYT6ewEZc3WaZKazkGI08veIYf1l18Yl8uFbj0j9Q/7OQ7VqVpE+J7STk3ofLSf2cufs2f1IuWbQqfLtZ9PMPWXLS6Ln3s0vimx5WQZd3FfG3nuFEe1LF98j9epWk8QEdxYbjIYtGfr+d+UgGvbmHtgbBmAABmAABgpnAKHuI2HlSdBrNhVnxkZxnvxDnENauyvUj+grzqTvxZn5pzi6Z/sxZ7h7fZ+zY4T6uwERPd8LGCEeZOxAoa7/18+bbd1WBGTvioCMG5ImgUzEetBmkXpt3bK+fL1yqmz/fbHcOCR3xEggO0OeXzDSiOm9f74gf7l47tqwRLb+ukiWv/ygXHxBL7nogp5y8YW95Lyzj5dyZbPlvw9fK7s3Pi+b1j4jn773mDSoV8Mz+Q6hXnhlIVL8cl1sDgMwAAMwAAMFM4BQ97nYsh78cgeJM+pNcWb+Ic6AMe5W6M8YLs68neKMXy2Obs+mPez4O2QbpCQ7MvOOjNwF5T4IyOdzsyQ91ZE7L0uVHcsCovPQR16x/6rvZbPKyPRb0818851vB+TzWVkyb3SGHNZ4/33Y8UPBAbmkdhl3/5Wy4/fFsuKN8TL5kSGy7IUxsnntQtn08zPyyzdzZO1XT7l2/vrtHHn52bulSaNaBbJ0+skd5fvPZ8ifPz8teze9KEcd0bTAz5X0WSP5PYS6u1xG0ldcG1/BAAzAAAz4nQGEOsIt9pXoPlfl9no/9q04tVu4k56ERHEuHpu7Jdudr7hzzThl5Y5LUs3CcB9OzZTe7ZOMCJf3A2Z7tlsH7i/UNWBmpDoy7ZZ0+WtFQGRNjsinAfl6Xpa0aYRYj1SB0rhhTVn//Tz546enZfefL4hsf0X+2vSibPt1kWiPe5kyjqSmJrt2JiYW7csa1SvJnz8/Izs3PCdHtm3smfyHUKfSF6k8ynVhCwZgAAZgIFwGEOpxKr7CBSWinz+onjij3shdlf3ice5U6lt3F+ex76K3T7uPORoxINWI8g+eyJTTuySbVd13vxWQuy5PlUa1C55/rEPerzkzRcZfnyYbX842e7E//2CGVMhhKHwk8lJWVrr89t1c2frLszLj8Rvl9pvPk9F3DJRLB/SW7Kx0d/JUGIxXqVQOoR6GvSLBBNekQggDMAADMAAD3mYAoU5lKuqV+AKDxilDc+epP/ChOLWaly5N6VnijFgkzqxNuQvJZQRKd704Z6Qgob5pabYkJYYW/K48PcXMcZcVAbnnqjTTu1sgA3Fu59LYJCjUd//xvHTrcljMeUeoh5Y3SuNzvouNYQAGYAAGYMDfDCDUEQcxr9SbIFO1rjgPfZK7VdvJQ0qXphMuFWfGBnEm/yxO626luxZ8SGmFenKSI5NuThP5KCB7lgek/wkR2oYvjn2FUHenoGbouzt2pOKIHWEABmAABmCg9Awg1OO4cm9dBrrowdxecJ1TXqlmyQX2yNfFmb0td4568j/nUFv33JYzWFqhrvauWSVB3nos0wyB/2VJtrRvWfQcZ3wUXnBHqIdnr8L4Qqi7Y8fC7Mv/sS8MwAAMwAAMhM4AQt1ykRRXMOv2bNoL/uRGcdqfXnKhfv+K3NXeew4q+TXgIs92bgh15fjwJonyw8IsI9ZXTMmUQ6oXPL89rph3iTOEeuiFXlF8IdTdsWNRNuY9bAwDMAADMAADoTGAUHepogxwoQFXpJ2S08S5fnbuCvA3LhAnJS1PLBb5vaAPsyuIc+5Icab8LM68XeL0uiK87wevw+t+dnNLqKsPTzw2Wbbp1m4fBWT2XemSme4CN/hLEOrucKRC/fFuk2VO77lyeNXD98sHIcUgWMRmMAADMAADMAADLjGAUHfJkFTi3Kkom/3Op68XZ+ov4jQ6KryM3qFfrsif9ps4o98Sp2mH8L4PCwXay02hrvlkyNkpsvfdgNnmbcLQNMlIYyX40sYPhLo78ScpIUnGdX5YZvV6Sq5rO0RyUnMKzBOl9Rffd8df2BE7wgAMwAAM+JkBhDrizK6KaIUa4tz2Qu5cdd0HPRz/HD9QnLk7xRm/WpzKtcL7bjj3ibPPui3U01Icuf/qNPnrvYDIBwEZd12alM1CrIfF+gEMItTdq6h0r91dJnebIjN7zpLLWzJ9pjRc8l33uMSW2BIGYAAG4o8BhPoBFV4ygQWZ4LQbxJm9RZwHPxKnYo3QBffxA8SZuyN39Xj8GrrdirGV20Jd81h2Rhl5cHCayPsB2bsiIA8NTpPMdMR6SeMPQt29uJVQJkHOb3q+zO41xwj2S1pcKhc2HyAtK7VyLU+V1M98zz0/Y0tsCQMwAAMwYDsDCPViRIrtDvRl+hoeKc64z8SZ9rs4utVaqD5CqIduq1Bt6jil3p6tMP+lJjsy9to00f3VVbD3aJcUkfQXdn8//R+h7m5lo1PNTjK3zzyZ3XuOzO+7QJ7qNdsMiU9LDHPdjDDymZ945Fnc5RF7Yk8YgAEYiE8GEOpUpOwUR9dOF2fOdnFuWiiOLhJXnJ8ycsS58N7cnngV+cV9nvdDtlEketSD/tFe9I+mZ4qszJFbLmIrvaBdwn1FqLtbgFdMryQDm18kQ9veIHe2/4882XOmTD9hhvSq2zvkfBOuD/m8uz7EntgTBmAABmDA6wwg1BFsdlY825yQu1XbE7+Ic0y/otNYJkGcqyaJM2O9OE/+Ic6drxb9eXweln0iKdQTEx15dFia2bJt/ugMSUmmUClJoYJQjxw3dXLqmt50nbM+vssEaVOlraQm0qhUEk75TuQ4xbbYFgZgAAb8xwBCHdEWlmiLWhBISBRn2Dxxntoszk3PiJNVvvB0JqeKM+l7cWb+Ic41U8U5uEnhn8XfYdsmkkJdebryXylGqG9+NVum3pJu9luPGmc+4QGhHtnCuX+Tc2Vu73mmZ/2/x0+S4UeOkKGH3yD9m/SXyhmVw85T8B1Zf2Ff7AsDMII5eYcAACAASURBVAADMOAHBuJKqDeumCLbhjUQGdlYzmkRoHJlu0g5tJM4U38VZ8YGcdqdUri/KtcWZ9IP4szeKk5bhqa6HZgiLdSPbZUo8lGOyGc5Ip/myJIHMs1ic24/h5+vh1CPbIWkbs4hMuLIW2RSt8dlXp95sqDv0+bUuevD242Q+uXqG8FeJbOKZCVnFR6rbI+5pA/fwQAMwAAMwIA1DMSNUO9SN0PWDa4nclsjkTsby+lNs61xgp8FRKmeLS1LnGum5faq3/6yOCnpBfvs3JG5Q97HfCBOrWYFf4agU2K7RFqolwuUkZsuSJVF92XIX+8GZNdbATm9S3KJ01sq5jzKCUI9skI9yNThVQ6XS1tcJhcderEManmFaO+6zl/XU4fG6zz22466XSqmV4Rfj+aloK95jU6ews7YGQZgAAYKZyBuhPrIzpVE7mosW26oLzcfW0EqZCRSkfJCReqwnrm95dN+E6fDmf/0Wc1m4jz4ce6+62fd+s/3vfCMlqcx0kI9GKCTksrIe5OzRFYG5MVxmVKlPNu1BW1T3CtCvfBCrjjbleb9TjU7y4Quj5hV4VWoz+j5pMzq+ZTceMSNZuG58mlFTNmxPN+Xxi58NzY8YnfsDgMwAAP+YiB+hHqXSiKjmsinl9VGzHmpgpiWKc61M3L3Rx8695++O/EacWb+Kc4DH9GbHiG/Rkuoa+GiPenyUe52bV88lSWXnpwiWRn+CrqRKEQR6rFhJLFMolROryw1smpItcxqck7jc2RO77kyr89808N+7WHXiQ6HT0lMkfSk9LxT/y7j0BAVibzANWOTF7A7docBGIAB9xmIO6G+8lKEuucy0gX3iLNgtzg3L/ynUD/nP+Is2CPObS/+870ICVfP2a+UdjBCfXWOfDIjUwaemGzmkW96PVuSEt0PSFkZZWTisDTZ9nrA3Ec+DMjy/2ZKvRoJ+LcIPyLU3WexJPm8amZVGdTqCrn1qNtkSvcnzJD4J7pPNb/r33rq3/cde7+cXP8UOSjzIAR7EVyXxAd8x468gB/wAwzAAAyUnoH4Euqjm8jKy+tQ4fdaxUiF+vxd4vznVXGy8w0lrVRTnNteEOepLeIMmYVfI+RXI9Q/y5HNS7Nl1cws0+O9enaWJCaUPgAVFMTTUxzpc0ySzLkrXXYsC5ih8ONvSItIw0BB9/fi/xDqkWGxpCxob3mfQ/rIf7tNkrl95sns3nP2O3URulm9npL7Ot4vZzTsJ73q9pI+dftI11pdpUpm1RLFMu3R71a7u/Soc4LUCtQq0TVK+rx8zy7+8Af+gAEYgAF/MBA3Qv3ERlmy5cb6MqlvySpBAB9D4I87R5wpa8XReeoXjxUnY9+K/WffIc6TG8V5/Edxmh1LxTSSQv3THJF3A6I93GsXZUn3IyO/xkNGWhm5/ZI00zCw7fVsObR+5O/p1XyOUI9hfCok3yUnJEv9cg2kVaVW0rJSy7yzRaWWck6T/jKx66NmbrsOk5/fZ4E5VcDfctStUjsQ3sivhuUbyl3tR8rsXnPMNnKjOowWHZbvVZ5Jt3084xN8AgMwAAPRZyBuhHpCGccsIJeezLxAz2U03VNdh7jP2Ji7VZsK9wrVxZn4Va5Q73cLFdJCxIIbvjY96irU38kdjn7NmSlRs/ch1RNk9ZzcBeaeuKWQVf8j+Oxu2C8a10CoR7/wLK1fq2dVlwHNB8r9HcfknY93m2x62lXEP9RprIztNK7YUz/3WNf/mu/pKvQPdHxQLmp+kSSUYbpIaX3E972Xr/AZPoMBGPATA3Ej1P3ktLh8ltSM3AXjnvxDnCfWiXPtzNw91nUhuTotoiYc49H2Bwr1gSdGT6irvW86P9X05G9+LVu6HZmErwtomECo+6Nickz1DjK+ywSZ33eBWZBOe9tDOfXzKtjbVDmM/FFA/ojHuM0z+yMm4Ef8CAPxzQBCnULdOxW7QzuLc8fL4sxYL860X3MFO0I94v6LtVA/uEoZ+Wh6pllc7oWHMqR8gFExBxbcCHX/FORNKzSTbrW7yfG1jg/57FarmzQq3yjiseBA7vjbP9zhS3wJAzAAA/YxgFBHqHurctf3anHmbMsV6dqzPmuzOHVaeusZPMZcrIW6Fhz9eyTLruUBkRUBueL06Pboe6HgQqjbV7h6gRvSCDcwAAMwAAMwYC8DCHWPiaa4z0ydzhVn9lZx5uw7dd56zaYI9QhybINQL+M4Mm9UhlkB/qt5WdKyAQtl5Y8FKtQ3/rhA9m56UXocf3jM80OVyuVk66/Pyp4/XpB2RzSJeXry24rf7a2Q4Bt8AwMwAAMwAAN/M4BQj6DAAbS/QXPNFmWriNPn37mLy+kCc90GipOWhRCIIMc2CHXlR8X57y9lm1XgdW/1JnVYLCuYr1JTk+XtpWNl87qFctQRsW+4yglkyidvPyobflggzZuyJWbQT7xGoEyIYOzDX/gLBmAABmAglgwg1CnkEbkwUCQDtgh1DZQXn5gsW17PFvkkILlinZ71YAHStFEtOa5DC8nISC3Sn8HPR/JVC5YWzepKh6MPlbTU5JinJ5LPyrWpxMEADMAADMAADESCAYQ6Io1KNAwUyYBNQl2D4KDTkmX7smyRTwPy9n8zpVEtetYjUThwTSodMAADMAADMAADMBA7BhDqiLQiRRqZM3aZ0xbb2ybU1S6Xn5oiW1WsfxKQtydlSkPEOvmYWA4DMAADMAADMAADPmIAoe4jZ9oi7EiHv8T9fkJ9VY4MPNmOVdevOD1ZNr2aK9ZfGpshuuAc7GEDGIABGIABGIABGIABPzCAUKdyj7iBgSIZyBPq7wVk3eJs6djGjnnhZco4ctGJyfLnK9ny9D0ZRT6DH4I1z0ClAwZgAAZgAAZgAAbihwGEOiINgQMDRTJghPrqHPlqbpYkJjqiAtmWQkLTUqV8GUlPtSdNttiGdMAEDMAADMAADMAADHiXAYQ6Is0a0UUgsTOQGKH+RY6smcM2eDBqJ6P4Bb/AAAzAAAzAAAz4jQGEOkIdoQ4DRTJghPqaHFkzD6HutwKA56FSAwMwAAMwAAMwAAN2MoBQR6QVKdLIuHZm3Gj6pX2LRNObfu+/Y78/dzSfm3vBPgzAAAzAAAzAAAzAQKwYQKgj1BHqMAADMAADMAADMAADMAADMAADFjGAULfIGbFqreG+tBTCAAzAAAzAAAzAAAzAAAzAgD0MINQR6rScwQAMwAAMwAAMwAAMwAAMwAAMWMQAQt0iZ9CCZU8LFr7AFzAAAzAAAzAAAzAAAzAAA7FiAKGOUKflDAZgAAZgAAZgAAZgAAZgAAZgwCIGEOoWOSNWrTXcl5ZCGIABGIABGIABGIABGIABGLCHAYQ6Qp2WMxiAARiAARiAARiAARiAARiAAYsYQKhb5AxasOxpwcIX+AIGYAAGYAAGYAAGYAAGYCBWDCDUEeq0nMEADMAADMAADMAADMAADMAADFjEAELdImfEqrWG+9JSCAMwAAMwAAMwAAMwAAMwAAP2MIBQR6jTcgYDMAADMAADMAADMAADMAADMGARAwh1i5xBC5Y9LVj4Al/AAAzAAAzAAAzAAAzAAAzEigGEOkKdljMYgAEYgAEYgAEYgAEYgAEYgAGLGECoW+SMWLXWcF9aCmEABmAABmAABmAABmAABmDAHgYQ6gh1Ws5gAAZgAAZgAAZgAAZgAAZgAAYsYgChbpEzaMGypwULX+ALGIABGIABGIABGIABGICBWDGAUEeo03IGAzAAAzAAAzAAAzAAAzAAAzBgEQMIdYucEavWGu5LSyEMwAAMwAAMwAAMwAAMwAAM2MMAQh2hTssZDMAADMAADMAADMAADMAADMCARQwg1C1yBi1Y9rRg4Qt8AQMwAAMwAAMwAAMwAAMwECsGEOoIdVrOYAAGYAAGYAAGYAAGYAAGYAAGLGIAoW6RM2LVWsN9aSmEARiAARiAARiAARiAARiAAXsYQKgj1Gk5gwEYgAEYgAEYgAEYgAEYgAEYsIgBhLpFzqAFy54WLHyBL2AABmAABmAABmAABmAABmLFAEIdoU7LGQzAAAzAAAzAAAzAAAzAAAzAgEUMINQtckasWmu4Ly2FMAADMAADMAADMAADMAADMGAPAwh1hDotZzAAAzAAAzAAAzAAAzAAAzAAAxYxgFC3yBm0YNnTgoUv8AUMwAAMwAAMwAAMwAAMwECsGECoI9RpOYMBGIABGIABGIABGIABGIABGLCIAYS6Rc6IVWsN96WlEAZgAAZgAAZgAAZgAAZgAAbsYQChjlCn5QwGYAAGYAAGYAAGYAAGYAAGYMAiBhDqFjmDFix7WrDwBb6AARiAARiAARiAARiAARiIFQMIdYQ6LWcwAAMwAAMwAAMwAAMwAAMwAAMWMYBQt8gZsWqt4b60FMIADMAADMAADMAADMAADMCAPQwg1BHqtJzBAAzAAAzAAAzAAAzAAAzAAAxYxABC3SJn0IJlTwsWvsAXMAADMAADMAADMAADMAADsWIAoY5Qp+UMBmAABmAABmAABmAABmAABmDAIgYQ6hY5I1atNdyXlkIYgAEYgAEYgAEYgAEYgAEYsIcBhDpCnZYzGIABGIABGIABGIABGIABGIABixhAqFvkDFqw7GnBwhf4AgZgAAZgAAZgAAZgAAZgIFYMINQR6rScwQAMwAAMwAAMwAAMwAAMwAAMWMQAQt0iZ8SqtYb70lIIAzAAAzAAAzAAAzAAAzAAA/YwgFBHqNNyBgMwAAMwAAMwAAMwAAMwAAMwYBEDCHWLnEELlj0tWPgCX8AADMAADMAADMAADMAADMSKAYQ6Qp2WMxiAARiAARiAARiAARiAARiAAYsYQKhb5IxYtdZwX1oKYQAGYAAGYAAGYAAGYAAGYMAeBhDqCHVazmAABmAABmAABmAABmAABmAABixiAKFukTNowbKnBQtf4AsYgAEYgAEYgAEYgAEYgIFYMYBQR6jTcgYDMAADMAADMAAD/2CgVatWMmHCBJk+fbrMmDFDbrvtNqlZs+Y/PherSiz3RUDBAAz4mQGEOgUzBS4MwAAMwAAMwAAMGAbS0tKkfPnyUrZsWXn77bflwOPWW2+FFViBARiAgSgwgFCPgpH93NLDs9GSCQMwAAMwAAPeZiAxMVFq164tZ5xxhixevFi2bdu2nz7//PPP5bnnnpOnn35aOnToQAWduiMMwAAMRIEBhHoUjEwFxtsVGPyH/2AABmAABvzAQGZmprRo0UL69esnw4YNM0PZR4wYIffff798/PHH8tdff+0n0PWPPXv2GAHvh+fnGcjHMAADXmIAoY5Qp0UMBmAABmAABmDAhwzoMPY2bdrIpZdeKlOmTJF3331X/ve//8mOHTv+IciD/3j55ZflggsuMD3nnTt3lnbt2klWVhZ8+JAPLwkW0orAjkcGEOoEXgpfGIABGIABGIABDzOQkZEhderUkYYNG0qDBg3kiCOOkMmTJ8vatWsLFOUbN26Ub775RnRI+xdffCGfffaZTJw40Yj6lJQUWPAwC/EoZnhmRLxfGUCoE4wpkGEABmAABmAABjzIQCAQkL59+8rUqVNly5YtwU7x/V63b99uxPgLL7wg48ePN73r2kuenZ2Nzz3oc78KEp4LsQ0D/2QAoU6QpqCGARiAARiAARjwEAOVKlWSSy65RF566aVCBfrXX38tN998s5xwwgnStGlThq97yL8Iln8KFmyCTeKRAYQ6gZvKGQzAAAzAAAzAgEUMpKamivaW5z91nnj16tXNAnCrV6+WvXv3mp5zXeztnXfekf79+0ujRo2MKFdhXqNGDUlISMCvFvk1HoUGz4zAhoGSM4BQJ4BTiMMADMAADMAADFjAQMWKFc2K7MuWLZNdu3aZVdhViAfP/Kuy//7777Jw4ULp3r27JCUl4T8L/IcgKbkgwXbYDgb+yQBCncBO4Q4DMAADMAADMBBDBsqXLy/nn3++LF26dL/55QX9oau2P/DAA+xnHkN/ISj+KSiwCTaBAfcZQKgT6KmcwQAMwAAMwAAMxIABXWFdt0J78803RRd9Cx4q2P/1r39Jt27dzBxznWcePJs1a0YPegx8hQhxX4RgU2wKA0UzgFAn2FM5gwEYgAEYKICB008/XWbOnCmHHnoo9inAPlSwiq5gqX10H/PWrVvLuHHjRBd3++WXX2TdunV556+//mqGuKtAV6G+fPly6d27t+gcdexbtH1POukkmTVrlrEvtiraVtgH+8CANxlAqFP5oDIAAzAAAzBQAAO6x7QeQ4YMwT4F2IeKX+EVv6pVq5oe8dmzZxe4j3mw51xfdS66bp125plnSnJyMqyFyNpHH31kzDhixAhsFqLNyLOF51lsg21sZAChXorglpmZKRdeeKFpKX/ooYekoHPs2LFyxRVXiG6lYiMApMn7galatWpmCx5lrSAGo/E/vfdll10mFSpUgPNSxBTyo135UecC63H99dfDNVwXy8Bxxx0nd999tzz88MPyxhtvmIXgDEAipjdd37v00ktl0KBBeafWD0477TQpV65csdcnPuwfH9asWYNQJ1+Sb2DA1wwg1EsBeL9+/fKGrAUL48Jer7zySl+DRAVi/wpENO2hiwrZcOhWQVOnTpXKlSuLzrtMT08v9NThoKxSHDtmosmn1+6lhWJiYqJZSXvTpk0mayHUYbUwjjWO6XnuueeKrsJ+4PHhhx+a/c5r1apFzCtFfasg+yPUyZcFccH/4MJPDCDUS1BwaMv3fffdJ3/++acpk3XY2ttvv232MdW9TPOf+v8FCxbIYYcdhlAvga39lNki9Sw9e/aUt956S95999392MvPYSR/V8Z1CGJw26CdO3eaoZ47duwo8FXf17yjQz379OkjZcuWJW+QN6xhYNiwYbJhw4a8Paq//fZbOeqoo6xJX6TiCNcNrXKrolz3Jz/66KPlpptuktdee03++OOPPH3+448/mvpAcNs09jEPza4l4Q+hHjnblsQffAd/wID7DCDUw6wgV6lSRaZPn55XKOsvKoIKg1NFyFlnnSXao/7vf/+7ROfVV18t/fv3Fx3iXNh9+L/7mQObhm5TXfjo/vvv32/V4v0ySSF/aC/8c889J7169aK3KcxYBJ+h8xmqrXSkR7ABVpHVxb901e1Qv8/n3PdJrG2qoytUlOsQdS2LdVi7Nkzu3r37H1Htvffe229hs8aNG0v79u2Zdx6B2Ka21UX59Bg6dCh5NAI2jnXe4/7+i6f4NHyfItTDCG4VK1bME+nae/joo4+aHsGmTZsWWkhMmTLlH4V5Sf/xzDPPSJ06dQq9Fxkg/AyAzdyzWXZ2tnTt2lVOPfVUOfnkkws9+/bta9Z20DmcwWPLli1y+OGHw3YY8Qh23WM3aEsV6sEtsu655x5RMRB8j1f37e0Fm+o6NEFBGIxXwdeffvrJ1An0MxrXGjRokMeLrtehgv63334z63d44Vm9lMYxY8YYN/zwww+UHZQbefnOSwyT1vgsU8L1O0I9xACnc24nTJgQLJ/Nol1aqSvM4Nr7rSI9OBxY5zpqgaIFe7jnzz//bK6jvY86B07nvGkPuzqvsPvzfwKA7QzoYoxnnHGG4XnlypVSVIOX7c9C+ryf3xo1aiSLFy/Oi/Ha4IRfve/XkvhQ9yl/8sknRRcTDDbc6PB2LYs1VumicJ06dcpbj6Oge2RlZcmSJUsMTzoN6JJLLoGnEOtbBdkz//9atmxpRruocXWEQ/73+D0+8yx+x+9+ZQChXkzBocPetFC44IILROfW6jF+/Hgpbt6Z7oMaLOD1O4MHDy5VYXLjjTeK9joGD/391ltvlR49ephefb2fVi40vX6FleciEMMADESCAd2VQ/dLz3/o2g+RuBfXtINhrfxo46CukxE8dQqOTlFbu3ZtfhTM9LYmTZqEzYP2sOvUOD1U9DNCwx3f68J9emzevFkaNmwYtl/Ig+74ATtiRxiIPAMI9WKE+vHHHy+//vqrKRSCP0JZGE7npmthogsTXX755VKzZs1SFSa6gM0pp5wi1113nVmoJpiW/K9aEVCxTsaJfMbBxtgYBvzBQE5Ojrz++ut5oVR7Tc8++2wpX748sbSY8tHLeUAb4L/55ps8vx/4i753++23y1VXXSUlEelB2+hChL/88ou5/KhRo2DKBaYGDhxo7Ll+/Xrs6YI9g6zy6o8yDT/6y48I9WKCnC5SoocOO9fz008/Fd1mJZYZoW7duvL888+b4fC64ryewUPn/WrjQizTx739FSTwJ/4siIHiRhUV9B0b/6eNqMFDpyrpsGYb00ma3M2H2pu+evVq4/pgOaoLxOk5f/58ad68uWvTyx577DFzH12lnMb00vsRoV56GxJPsCEMeIMBhHohQl0Nc8MNN+StAPz999+Lzkkval56NKFPTk4WnQOXkZEh1atXF21ZDh6ffPIJFc1C/BpNH3EvbwRB/BS+n7p06WIaC3UBLa/br169esHQKcccc4znn8fr/ohm+rU810UwtSzNf2r56mY6dMh7cOocax+EH28O9IWuvq+Hrtlz4Hv8XXr7YkNsCAP2MIBQL0TQaaGdf0647lNtK7jas6WFvy4yp4cOs9Ne9UAgYG2abbWlbenSNQd0qgW9MPYETdsYiUV65s6da2LN7NmzPR9jBg0aZJ5FG2MPOeQQzz9PLHjgnkXHJ20QCK5Zg1Av2lbFsaRTUl5++WWTZ3Xxx+I+z/ulszf2w34wEFsGEOqFCHVtZQ/uk3rvvfeKrghsO6wjRowwhZf+0LQPGDDA+jTbbtNYp69Vq1by3XffiY6SSE9Px5+F5NdY+yne7r9w4UITa3QnC53P7XYPZLTs2bZtW/nyyy/Nszz++OOSmppKHiOPuc4AQt29iu6xxx5rpiFqptVFAKMVK7iPez7EltgSBkJnAKFeQKVERfmzzz5rKm/6Q1eC9QJURx99tKxatUq2bdtm0q497FWrVvVE2r1g31ikUdnTQxtetPEoFmngnqEH1Hixlc4R1S0n9dCeQl0z44gjjvDUrhO6IveKFSvMM+jWW16J8/HCmJ+eE6HuXgwNbpOr2+RVrlyZMrGAOqyf8g7P4l7ewZbetCVC/YAgp8OqnnrqKVN5C/7o2rWrpwoDnWcZHA1w6aWXeirtBJL9AwlCfX97wIc99jjyyCNFe9a3bt1qQqXuFf3ggw9KnTp1rI85OrXpgQceMOnWhoYzzzzT+jTDvj3sh+sLhLo7vtOpYMFdeHQEYbh+4PPu+AE7YkcYiB4DCPV8Ql1F+muvvRbU5/Ljjz/K+eefL+XKlfNUgaBDpKdPn26eQ1e1ZW/16GUot4NXfqGu20i5fX2u5102bPBdZmamGfq+bNmyvLj55ptvim5PaUP6CkqDDtPXVb2Dh25rWdDn+B95wy0GEOrusKTb1AZH8pxzzjnk23z1V7dY5TrusIodsaNbDCDU8wW6+vXrB+tu5tXLe56ed9555hl0u6Hx48eLDvN0CxquE70AFBTqe/bswYf58ioMRo/BUGytQ1CHDx+eFz91y7NQvheLz+Rff0QTPHXqVGvTGgv7cE/38xZCvfQ21Wl8Y8aMyZufjlAvvU3J69gQBuxnAKGer/KfX6gfddRRnq686cqy+Y+xY8d6+nniNZjotIvg4bUpGPHqs3h97pYtWwZRlf79+1sbb3QBquDxr3/9y9p0xitHfnxuhHrpK8NDhw4NZlvz2q9fP/JuvvqrH/MNz1T6fIMNvW9DhHq+QJdfqHt9O6xKlSqJzuF6++23TaH2wQcfeGLuKEFl/6CiIyE+/fRT40MdJYF99rcP9rDHHrodZHBI+ddffy029qq3bt1avv32W5OfNDYefPDB5Kl8ZSD5KTL5CaFeeruOHDnS5Fsd+n7XXXdZGV/IP6X3MzbEhjCwPwMI9XyVFD8J9SDoTZs2zRsqRo/s/vAHbWTzqw73e/XVV00F5ZZbbkFU5MuvNvstXtN23HHHyS+//GJ41dWZbbJD9erV5ZVXXjFpW7t2reiimzalj7R4Lz6H6jOEeul9GxTqutp7qHbnc6W3OzbEhjAQWwYQ6vsq/rpfdVAQaU3O6z3qwYyVfz4m2w/FNrMFfRLOqy4MOHv2bCMuHnnkESooCHXrGRg9erTh9c8//7RiyzPtRV+yZIl8//33Jl263gOjU7wXC8OJm7Z9FqFeet4Q6qW3oW35gvTgUxgongGE+r6K/7x580wlTn9oRa5x48bWV4hDARyhXnwmCMWOsfzMww8/bNh87rnnfMFkLG3JvSOfH3Tazccff2yYXbp0acz3Os4f23VxzTvvvJN8RINXVBnwglDXyuAhhxwiHTp0+MfZqFEj0RXXYxk/7733XhNT6FGPfAyPpZ+5N/6Fgf0ZQKjvq7C8+OKLphBYtWqVWQgpIyMjpoWSW6Ai1PcH3i27RvM6t99+u2FT1xmI5n25l/fZiZUPdcE2FcV63HDDDTHjVrfcXLFiRV5sHzBggOge6rGyC/eNzzzlBaGui0F+8cUXJq8c+GPdunVy/PHHxyzf6Fotn332mUkWQj0+8xCxE7/HKwNxL9RTU1Ploosukt9++80UAk888UTMCqNIQIhQ935wGzJkiGFTF5WLBCNc0/uM2OZD3av8v//9r+F2w4YN0rx586iz26NHDzOdKdhgMGzYsKinwTa/kJ7Y5HXbhbrucvPmm2+a/FrYjyuvvDJm+Se4TammbeLEiTFLB/knNvkHu2P3eGYg7oV6u3btZOfOnXll06RJk3xVCCDUvR/gEOre92E8FjI6fWjNmjUmti5cuDCqQ2d1UTudIx88dH0HbZSNRz/wzLGPHzYL9YoVK8rnn38ezCqyceNGOeigg0SnsOh7X375pXnv8ssvj1n+CQr13bt3mzTBdOyZxgf4AAaiw0DcC/UuXbrkFVCzZs2S9u3bx6wwigT0CPXoZKRI+C54TYS6930Y9GW8vWov3N69Hw0IdAAAIABJREFUe2XXrl1m5FI0nr9y5cry/vvvm7iuW7HdfPPNkpKS4qu4Hg07cg/34o6tQl170vOLdJ1eNXDgwP3yyqmnnmp6sXX4eayY6N27t8nPKtS1ThOrdHBf9/IEtsSWMBAaAwj1fEJd5zP6DRyEemgZwWa/I9S970Ob+Ypk2nQ++AsvvGAq2Tq3tGHDhhGPsaNGjTL327p1q5xxxhkRv18k7ce1/ZH3bRXqw4cPN3lFf2zbts2KXRoOZD4hIUHuuecek85ff/1VMjMzydMsBgkDMBA3DCDUEepxA/uBFQCv/I1Q90dl3Su8uZ1O7bXbvHmzqWiPGTMmokPgu3fvLjonXo/HHnuM2EZlzgoGtMF8+/bthkvtoXY7j5XkejqsPdiIplsX1q9fX7RBoSTXiuR3tCd/06ZNxnb/+c9/rEtfJJ+da1P2wwAMINQR6hR8lldmr7vuOlNJYTE5ArZXC+3bbrvNMLxjx46IrR6tQ97feOMNcx+dV6vzbL1qL9Ltn7zetm1b0SHlwcMGoa6LPerCuXroYos33XSTlXklPT1dpkyZYtKpjQm6TRx5wz95A1/iSxgongGEOkKdgs9yoa7bW+nBtjTFBzSCvp02qlKlirz77ruG43feeUcCgYDrceeuu+4y19f58Keccorr14ctO9my3S/B/b8VTmUzltucBW3Vpk0bs3aEpknTp8PLg+/Z8qoiPTjkXdOpjX22pI10EAtgAAaixQBCHaFO4We5UNfhfnog1CkYolUwROI+2pOo82D10AXe3LyHbsWmc9L1GD9+vGiPoZvX51rkvZIy8MADDxguv/nmGznmmGNE120o6bXc+p7mET20TDnkkENinp6Cnuukk07Kmy4wc+ZMVnu3vJ5SkA/5H3ETBkrPQNwL9a5du5oCS3+wmFzpgSJTum/DkSNH5lWqsK/79sWm0bFpYmJi3jDWn376SXTuuhu279Spk/zvf/8zeeTjjz82c23duC7XiA4XfrdzUKi/9957rvBeWnvVqVNHfvzxR5NfdOHFcK6nPe86GiYaPfC6Y4QeuoBcTk5OWOkM55n4LPkcBmDAZgbiXqgPHjzYFAZr1671ZWHAqu/eD0AIde/70OZCIJpp0zmmQVE9Z86cUvcu6vaa2lOpx88//ywnnHACFXp63qxiwCah3rhxY3n77bdNfvntt99E8084+f/iiy+Wjz76SAYMGBDRRSE1TUGhrnWzcNLIZykvYQAG/MRAXAv11NRUmT9/vim0nnrqKV/utYtQ937AQqh734d+KjRK+yxXXHGFibm6iNW5555b4kp4+/bt9xPpPXv2LPG1SvtMfJ88WhgDNgl1FdjBY+7cuWFPEdGdFPRYv369TJo0SbRHXq8ZidGIRQl17dXX2KFz2O++++4SnfpdXddC1wyIxgiBwvjg/8QOGICBohiIa6Guw6m0VVkPLRSKMpRX30Ooez8AINS970Ovxo9IpFsXiVqyZImJu7o6e40aNcKOvRrX3n//fXMN7UlHpJNHIsGqG9e0SahfffXVJs/8+eefUr169bDzXa1atfLynbnQvh8q1t2wVf5rHCjUVUzr9JmyZcvKhAkTZPfu3fmTUOLfdWh91apVXU9//mfhd+ITDMBASRmIa6GurcDBI9whYCU1eLS/h1D3fnBAqHvfh9HO97bfr127dqZXTuPvI488EnYlObjd25YtW6Rfv35hf992+5A+/+R5W4S6bl+oOy7oofunl5QxXRDvwOPWW28t8fUKS0dQqP/www9SoUIFmT59umh+10Uj9+7da87Vq1ebofi6NkU4pw7fX7NmTd5jNGvWzPX0F/Zc/N8/eRtf4stoMIBQ3xeqEepkuGhkuJLcA6EOmyXhxvbv3HnnnSb66qimli1bhlxR7tChg5mPrl+ePHmyaCFm+7OSvvjNw7YI9fPPP9/ktz179oQ9Nz0/v4cddti+WpOICmU9vv32W9GdF/J/rrS/B4W6xoegDYM31t70iRMnSkZGRonvqfP1N27caC65aNGiEo0wKO0z8v34jQv4Ht+HygBCfV/kR6iTaULNNNH+HEIdNqPNXDTu16pVK/nuu+9MBA519WmdrrRgwQLzHV2UTlewjkZauQd5sKQMBEVmLFd912Hjwakiui5PabaIyy/UH374Yfn6669NftS83KBBA9fyY3Ati31VNPOijQw6zL5Pnz6lnhevld+hQ4fmDaF/8MEHXUt7SVnhe8QZGICBAxlAqO8rBRDqZI4DM4ctf0dDqGtFThfoqVixYlinzje2xU6kw3t5WBfx1ENFTM2aNYtl6bLLLtsXsUUuuOCCYj8PE95jwm8+s0GoJyUlyaZNm0zeOe+880qVb3Q+9/Lly821dJtFFevff/+9+Vsb0dxamE0b8j788EP5448/zFpC2vs9e/bssBfAK46nxYsXm7Q///zzpbJLcffhfWIRDMBASRhAqJsQLaUaClYSw0frO8xR935giKRQ1wCgvSDDhg3L6xnZlyVCennzzTfZt5rtsEpcwe3atavs2LHDsHb22WcXeZ26devKunXrzGd1xerSDHuNVvzlPt6Pv6X1oW1C/Zxzzikyn4XyvIcffrgZ7q6ZcebMmaLbtumhPd6XXHJJqa8fShrc+oyKfz103rvO3S/JIntupYXrEC9gAAYOZAChbkI0Qv1AMPjbnmBRkFDX3sfrrrtObr/9dtGFtUpy6gJA9957b948w31ZIayXbdu2iS4uBC/28OIlXyQnJ8sHH3xgmJs1a5ZkZmYWyJL20j355JPmczrkvW3btgV+zkvPTlrjI8/4Uagru0GB+/TTT5u8qL3feujccS+xfdNNN5l0B3/oto9eSj9pjY84gp/j188I9X3RmaHv8ZsJbA+ABQn14JDhYOWitK8quHWP3OOOO046duxoXvX3os7OnTuLzldMS0ujYkOveokZCA5n3759u7Rp06bA62gvYLDnXSvWtudZ0kd5EmTA70J94cKFJj8uW7bMFENeE+o66rBv3755Rejpp59OfKE8gwEYsIYBhPq+8IxQp2IVrFjZ9lqQUA9uLaMr4q5atcr0iusKvOGeep0ZM2ZI8+bNrQlKttmf9EQ2Nug+6jrXVY/Ro0fncZiSkiLXXnutGWK7c+dO876KgdIshIUvI+tL7PtP+yLU/2kT2zjRkTwvvviiiTFvvPEGjc+ItLxyyDZWSY/98cRtHyHUTWhm6LvbYHE994JJQUJdt5PR46qrrqJAoVLhaQZ0WPt9991neP7xxx+lXLlyoiJdudd5o8FD39PRHsQW92ILtoy8Lf0q1MeNG2ey5qeffiq6wNwrr7xi/vZaj3owD2hPevA49dRTiTOUqzAAA1YwgFDfF5npUY98hSVYIPIanq0LEuoNGzaUM88801SQsGd49sRe9tlLF5XbvHmzica6KrVuv6TTMfR45plnRPeAZu6ofX4jLxXvE78K9aOOOsqsyK55VPNscPV0rwr1ChUqiK78rserr75qRQWd/FV8/sJG2MjvDCDUTVj2b4+6DmkO9kp169aNwseDLYQFCXW/ByaeL74KX13B/dlnnzXRWBenuuGGG8zvP//8c6n3S4al+GLJNn/7VairnXVhRz2uvPJKzwt1fZ5Ro0aZ51m5ciV1JQ/WlWzL+6SHsscNBhDqJiz7V6gPGjTIPOHXX38tzZo1o/DxYOGDUCfYuxHsbb+GTuPQQ4e4v/XWW+Z3FQK2p5v0kT+LYsDPQv399983+VTz6w8//GB+92qPuvqQspa8XFRe5j34iAUDCHVTtPhPqOu2R9qD/u6775on1OGjgUCASi9CHQY8yEAsCodo37NatWry1Vdf7YvIuS8IdSpG0ebQ7fv5WaifeOKJsnHjxv3yLEKdPOt2HuJ6MBXPDCDU9xUxfpujrttq5S9Adb/seAbdy89OKz+FlJf5DSftQVETrPnr3unhfJ/PkldsYyDI9HvvvRczlpOSkmTTpk0mW+lWh27a6JprrglmV/Pq5e0TKWuJH27mDa4FT24wgFDfV8T4TahrYRw8dFXW7t27u1o4uwEf1wgtiFF5CM1O8OR9O7Vu3Vr++usvE7qGDh0qOjIIv3rfr/HsQ78L9V69egWrGmYBSLcbAqLJDmUtsSaavHEveAuFAYT6viLGNqGek5MjRxxxRImHqweFuraia2t6KDDwGTuDBpUHO/1CfnHfL4MHD86r9Ou81+zsbGIXUzU8zUA8CXXNvK+//rpUrlzZkz6jrHU/plNOYlMYKB0DcS/Ugyuin3baaVYVLFpg/PHHHzJmzBhR0R4u6Aj10mWMcO0dyc9TefCPLyPJidevrVs8bd26NU+oa2w+9thjw459XrcD6fdXfrdFqAenwi1YsEBq167tWr7q379/Xp4N/nLuuee6dv1o5gfKWn/lvWiyw71gJ1IMxLVQ1y2Bli9fbsoW3QM0LS3NmsLljjvuMOnauXOnrF69WrRwbdeuXUjp02HuOtxdD3rUvR88qDx434eRCuB+ue4JJ5wgv//+u4lZX3zxhXzwwQfm91mzZoUU8/xiB57Df3ndBqGuXD344IMmT+mP7777Tt555x155JFHpGXLliXOYwcffLB8/vnn5rr6Gtyt4ZdffjHbLbZv377E145FXqCs9V/+iwVH3BOO3GQgroW6GvLss8/OK7zuu+8+yczMtKJg0UaDJ554Qvbs2ZOXvrlz54aUtvwrJ69du1YSExND+p6bYHEt9wIVlQf3bAmX9tlSp/gE92NWkd6gQQO5+eabTdzbvHkz62sw9N3T5ZctQl3rFJqv1q9fn1en0F927Nghjz32mHTo0EHatm0rhx9+eEhnmzZtRHeT0WPLli1ml5nOnTvnrTGh/1+0aJHrvtPpMDVr1ozIlD7KWvvKB8psfBLvDMS9UC9btqxMmzbNFDa6iJGKYzeHhZUGMN1O7fLLLxfdA12PF154IaRCL1gQv/zyy3LSSSeF9J3SpJPvRjaQUnmIrH3hN3b2VVH+8ccfm/im+6d36tTJxCv9/4cffmj+rz11TZs2JY4h2D3JgC1CPRjnOnbsKHfffbc8/PDDeb3hJqOV4sctt9xifJOeni4DBw4UbXDTY82aNdKqVStX/fboo4+a6+uQe63ABp/LjVfK2tiVBW74j2vgPz8yEPdCXZ1apUoV0d7q4KEVxGCF0Qan33rrrSZpOoy9b9++xRZMQaGuBaYN6ScNpQueWqnSQ7nElqWzJfazx34qvl977TXDts6fPfPMM/fjWwVFcEup+fPnl2itDvxtj7/j1Re2CfWgH7TyV79+fdHdFb7//nuTD0vyY/LkyaIdHsHr6qvOUdeeej10tIxO3Rs7dqxoni6NuNbvLlmyxFx3w4YN4vYK8wh14kV+jvkdHmxgAKG+r5dC56uPGjUqr3DRhdzcLgRK6vAKFSrIJ598Ygon3Yu1bt26+xWK+a+bkpIiWoDpgVD3R5DReYR6hDqiIj8P/O4PBvzkRy10hgwZkjcEd/fu3aJ7MRf0jFdddZVhX3/ceeedBX6moO/xP7i3hQFbhXrQPpofK1WqJDVq1Aj7rF69eoHTBfWa559/vujUu/zHtm3bZN68eXLkkUdK1apVpVq1aoWehe340LhxY1m5cqW5rM61Dz5HaV+17jRjxgxzXb1+aa/H94lBMAADbjCAUD9gOOGpp54qP/zwgwnWuiBbo0aNIjIXKlzn6QJx27dvN+l66aWXRBdxyX8NLTC7detmFowJ7kNsS0ND/nTye3iBSxuQ5syZY/w+ceLE/XyOLcOzJfayw17lypXLW91de/JuuOGGQrnWyrNyr4eu19GvX79CP4t/7fAvftjfD7YL9Uj6S0W1zn/XuexBcW0ycwg/dEHJZs2aFZjfL774YnMFnRt/1llniS5GWadOnQI/W9zzpaammoV6df5+cBTA8OHDS3St4u7F+/vnDeyBPWCgeAYQ6gcIdYUmWDHUkuDnn3+WCy+8sFTDtdwAMSEhQYYNG5Yn1nVeffC6ukjM888/v1/Rp0P5vbqXafC5eM2dlrF06VLjWyoPxQc0mLHfRl26dMmLVTrPtDifaSPksmXLzHe0B00XsSruO7xvPwfx4qN4Fur5fVyrVi0ZPHhwyIJde98Lm4LYs2fPvMa+YDDRVexLshjwZZddJrq7TvB48803mWZTQL04vy/5nfgKA9FjAKFeQEDSPdV1zmRwj3UdBv/uu++KFrg6PCxWgKqzJk2aZMqT/EOzypcvHyxjTJp1SyOddx+rdHJf9zLwIYccIh999JHx7wUXXIBPC8iv8OYeb5G0pQ5z1Z01gsNhdfG45s2bh8T00UcfLevWrTP5QBfJPOigg0L6XiSfh2t7g7tY+wmh/jcnWofRFdt1q9mizqOOOkoOPfTQQrfMTU5OllNOOcWs2xIcQajBQetC4fp79uzZefWnVatW0RBIGRs2Q+Eyx+f/jgnYonhbINQLCUpaEGglUueE5z90f3NdgKVFixaiPT3a0x1N0PJvWxRcfElXVQ0evXr1imp6ovns8XgvZVB7EfXo0aMHvi0kv8YjG156Zu1NC44MUZZVrIeyMGb+Z9StNHU+ux4qfth2svgCPr/9+D029gruKqON/fjAfR9onSd46BZzWmZq/ay4s0mTJkbsB8vXp59+Gv9QvsIADFjHAEK9GCgbNmy43yJzwQJBX1evXi0tW7aMqlM1PStWrDDJ0NVUx4wZI9ozFTx0WCmVAfcrA7Gyafv27fOG+GkPQ6zSwX39w1S0falbNmklWI+tW7fK9OnTpWvXriViOdg7qaOdLrroohJdI9rPz/3iN+8cc8wxeYsm6u4tsOA+C/mn0gTrQeG+/vTTTyWOSfjUfZ9iU2wKA38zgFAvRqgHYdH91Qs6Fi9eLNqKG/xcNF7btm2bt+hJ/jTp0FBtRY5GGrjH35kokrZQMaKHruSvi3BF8l5cOzo+jTc76wrveuhicDfeeGOpRiFpHli0aJG53u+//262e4o3e/K83sinOiovuGOHLlDLdLTI+E07L7788ksTE0ry49tvvzWL0ZGvIuMf7IpdYaB0DCDUQxTqulVIvXr1zNZoupKpzmEPHr/++qtZjTgnJ0cqVqz4jzMQCLg6TDMpKSlvf+FgGl599VWzlynDQUuXIWwKKNoTGRQlum0MvvWPb23iLJJp0bnlwTnpOhdUdzEo7f10aOuaNWtM6Fu+fLnZ3qm01+T75C23GdA1GXR9Gz10r3K3r8/1cpnVSqw2gmj9TNd0CefU7+h6F9GewojviDcwAAOhMoBQD1GoH2hQ3R7kxRdfFN1eqLjjm2++ER32pnOiDrxOSf7WgkW3Jcl/jB8/3pVrlyQ9fCcyAad27dqiK9/qccYZZ+DfEuZV+IwMn8XZVXu/n332WcOvTtNxc7TP6aefnrcDxkMPPSTae1lceng/NhzEq9110bTgcdhhh8En8RsGYAAGYCBsBhDqpYRGVyfV/T5DOb766iszp1xF+2233Vaic8SIEbJkyZK8FemD933hhRfCdn68VqC88txXXHGFca8OzWvQoAH+LWVe9Yrf/ZLOa6+9Nhie5JJLLnGd35EjR5rr697HwYU1/WI7nsP7jQoVKlQw69hor3qjRo1c5x9GvM8IPsSHMAADxTGAUHeh8l+3bl2z3+dxxx0n+c+OHTua/2uPz59//plXaXXjF53vOWrUqLyh0dq7X5yzed9bAeH11183qEyePFlSUlLwrwt5lTwQ+TxQp04dUWaD04Pmzp0bkR5v7bF/5ZVXTB7RHnsasyLvW/JP6DbWypXOn27dunVE+McXofsCW2ErGIABrzKAUI9S5V/ntT/22GPyxRdfmFZ2XTG+pKfOz7zllluMcJswYYKpqH744YdSqVIlxFyU/BmNDK/iQ4/rr78ev/rIr9FgJ5b30Gk4+Q+dpx6p9LRp0yZv14vnnntOdF2HSN2L61LRgwEYgAEYgAEYiCYDCHWPC4CePXvK5s2bTb34sssuo5LqcX/mz/wIdQqD/DzY/rvOE1dRro2GeugicrrKe/ny5SMaly699FLZtWuXuefVV18d0XvZ7gPSR8yAARiAARiAAf8wgFD3uLDT1Uqff/55U0nVLUp0X3Udakcm9X4mtUWo624GKoAef/xx0XnzbBPnfbbcjg/169eXKVOmiO6AETyitcCl7oLx3nvvmdtOnDiR2OfxMs1tNrke8QoGYAAGYMCrDCDUfVCp6dy5c7BubF7feOMNKqs+8GtQqOsCgtogo4I52qeKoCuvvHK/xQtZgZ4CTwu8zMxMw2NqaqrMmTMnLwb9/PPPZjuqsmXLRi0OLVu2DKHug5jn1YoU6SYmwgAMwAAMRIIBhLoPKjc65PSOO+7Im6upc9gjAQvXjG4QCgr1v/76S3TxwFiden89du7cKboXdtOmTeHLB3GjNPm5T58+onzu3bvXcKmveixatMiI99JcuyTfRahHNzaVxEd8Bx/BAAzAAAzAQHgMINR9VOHWnlc9fv/9d+ndu7dkZGQgqDzs3/nz5xt/2vJDp1gQYMMLsH61l24vWdAxdOjQmDCCUIdLv+Y1ngu2YQAGYCB+GUCoe1jIHZhxhw8fnld31t5PHbJ84Gf42zuZvUaNGnLCCSdIjx49Yn5qOnQbQvjxDj+R9FXFihXl+OOPz+NT+ejSpYvo/yN538Ku/dprr5nYxxx1+CyMEf4PGzAAAzAAA15jAKHuI6F+2GGHydtvvy2//fabqbRu2LBB9H9eg5L0EkhhAAbCYeDss8+Wzz77TE455RTinY/KtHAY4LPEDBiAARiAAb8xgFD3YaVGez6/+eYbI9ZffvllUSf7DVyeh2AMAzAAAzAAAzAAAzAAAzDgVwYQ6j4U6grr4MGDjVDfvXu3XHvttVKtWjXEuk997dfgxHNR8MIADMAADMAADMAADMQrAwh1n4q3fv36GaEe/DFy5EiEuk99Ha/Bi+em4IYBGIABGIABGIABGPArAwh1n4q3gw8+WKZNmybr1q3LGwJfuXJlxLpP/e3XAMVzUfjCAAzAAAzAAAzAAAzEIwMIdZ8Lt2DP+vr160W3b6tduzZi3ec+j8dAxjNTgMMADMAADMAADMAADPiJAYS6z0VbzZo1ZdeuXcER8LJkyRKEus997qcAxbNQ4MIADMAADMAADMAADMQjAwh1n4u2xMREGTt2rGzbts2I9e+//55V4H3u83gMZDwzBTgMwAAMwAAMwAAMwICfGECox4lou+iii4xQ37Nnj9x4442SkpJCz3qc+N5PAYtnoQCGARiAARiAARiAARiIBwYQ6nEi1nQhuYULFxqxvn37djnppJMQ6nHi+3gIZDwjBTYMwAAMwAAMwAAMwICfGECox5FYq1Gjhuiicnp89tlnctZZZ4kOjfcT0DwLARoGYAAGYAAGYAAGYAAGYMDrDCDU40ioK6wrV640Ql1/7N27Vz744APp2LEjYj3OOPB64CL9FL4wAAMwAAMwAAMwAAN+ZgChHmcCrXPnzjJr1qy8nnUV7A888ABCPc448HNQ49kotGEABmAABmAABmAABrzOAEI9DgVaWlqaHHPMMfLdd9+Z3nXdsq1s2bKI9ThkwesBjPRTCMMADMAADMAADMAADPiRAYR6HIuzoUOHGqGuK8H/9NNPsnTpUjnuuOMQ7HHMhB+DHM9E4Q0DMAADMAADMAADMOA1BhDqcSzKkpKSZPz48bJr1y4j2PXHggULEOpxzITXAhjppdCFARiAARiAARiAARjwIwMI9TgXZVlZWWb1988//9yIdd3CzY+g80wEcBiAARiAARiAARiAARiAAa8wgFCPc6EeBHXAgAGi+6vffPPNCHWYgAEYgAEYgAEYgAEYgAEYgIEYMoBQj6HxgyLZhteEhAQJBAKiw+FtSA9poLUTBmAABmAABmAABmAABmAgXhlAqCPUEeYwAAMwAAMwAAMwAAMwAAMwAAMWMYBQt8gZ8dpaxHPTUgoDMAADMAADMAADMAADMAADfzOAUEeo03IGAzAAAzAAAzAAAzAAAzAAAzBgEQMIdYucQQvS3y1I2AJbwAAMFMWA7lhRr149SUlJoVJBOQYDMAADMAADMOA7BhDqQO07qIuq3PMe4g8G/MHAfffdJ99//7307t2bGEY5BgMwAAMwAAMw4DsGEOpA7TuoEWL+EGL4ET8WxcD//vc/0eP6668nhlGOwQAMwAAMwAAM+I4BhDpQ+w7qoir3vIf4gwF/MIBQ94cfyY/4EQZgAAZgAAYKZgChjlBHqMMADMCA5xhAqBdcqFPZwS4wAAMwAAMw4A8GEOpU0D1XQSf4+CP44Ef8WBoGEOrwUxp++G5s+TnyyCNF15kYNWqUtGnThnoIdVEYgAEYKIABhHoBRqEAj20Bjv2xPwzAQHEMfPXVV2aO+ujRoyncKcdgwEMMpKeny6pVq0z+1R/Lly/Hfx7yX3Gxmfcpv2HAPQYQ6gRHCkgYgAEY8BwD48ePNxX9Tz75RGrXru259FORca8igy29Zcvs7GzZvXt3nlDX0TH40Fs+xF/4CwaiwwBCnQo6BSQMwAAMeI6BI444Iq+if9ppp3ku/VRyolPJwc722Rmhbp9PyCf4BAbsZAChTgWdCi4MwAAMeI6BzMxMWbp0qRHrixYtkuTkZM89AxUjOytG+CWyflGhvmvXrryGNnrUI2tveMa+MOBdBhDqVNCp3MIADMCAJxk4//zzTWV/586dopV/KiPerYzgu/jxXWJiotx///2ybds2k38R6vHje/I5voaB8BhAqFNBp3ILAzAAA55koFevXqair/NdEerhFf5UlrBXrBm4/vrrEeqUPZ4se2Kdd7h//MRvhDpBkiAJAzAAA55kAKEeP5UVKqb+8zVC3X8+JZ/iUxhwlwGEOhV0T1bQCQT/DASamfXENv+0DTbxp00Q6v70K/k1PvyKUI8PP5Of8TMMlJwBhDpFjG7eAAAgAElEQVRCHWHnAwYyMjLk7rvvlkmTJkm5cuXwqQ98SsFWfMGGUC/eRnCEjWxlAKEOm7aySbpg0xYGEOpU6BF1PmCgXr16Zq6f/mjWrBk+9YFPbSkkbE5HUKjv3btXzjzzTClbtizswz4MeIQBhDpiyObyhbTBpw0MINQ9UqDZAAtpsDdo1a9fH6FOXo47gRIU6kH4hwwZEnc2IC7bG5fxTdG+QagXbR/4wT4wAAMIdSr3VGx9wEB+oX7ooYfiUx/4lAK6+AK6du3a8sorrwR1ukycOBH2YR8GPMIAQr34GEc5gI1gIL4ZQKh7pEAjo8Z3Ri3O//mF+vjx46mokq/jioFly5YZsY5QJ04WFyt53x5GEOr2+IJ8gS9gwE4GEOpU6OOqQu/XQFS1alX54osvjFjZtGmTJCUl4VfydtwwgFC3s4Lh13jLc7nDG0LdHTvCI3aEAf8ygFCnMh83lXm/B7JBgwYh1MnPcZmfEer+raT4PW7H8/Mh1Mm38cw/zw7/oTCAUKdiH5cV+1Ayh9c+c8455xihvnnzZgkEAviVvB03DCDUqfB4LV6TXkcQ6uRb8gEMwEDRDCDUXazMp6WlSbt27aR69epxU0EmgxWdwaJpH10Be8+ePUasjxs3DrHuYt6Oph+5V/h5CqEevs3gDJvFmgGEOgzGmkHuD4O2M4BQd7Eyr/v4bty4UaZPn45Qd9GutmciW9KXkZEhjzzyiBHq+uPyyy+HQziMCwYQ6lS2bInDpCN0FhHqodsKrrAVDMQnAwh1FyvyI0eONCJp5cqVcVE5JmjYFzSysrJkzZo1hkPlER/Z5yN84r5PEOru2xROsWmkGUCow1ikGeP6MOZ1BhDqLgr1YcOGGYG0bds2ueiiixBJLtrW6xktmunXhiI9EOoUUNHkLpb3QqjDeiz5494l4w+hXjK7wRt2g4H4YQCh7qKYrFOnjrz55ptGJG3YsEE6duyIWHfRvgSm0AITQj00O8GTf+yEUPePL8mX8eNLhHr8+Jp8ja9hoGQMINRdFpLNmjWT7du3G7Guq3ADZsnAxG4ltxtCveS2gztv2g6h7k2/kd/i228I9fj2P/kf/8NA8Qwg1F0W6klJSbJp0yaEust2JTMXn5mDNkKoh26roM149bbNEOre9h/5Lz79h1CPT7+T3/E7DITOAELdZUGZmJgoX331lRHq48ePl+TkZHrVXbYxGbzoDI5QL9o+8OM/+yDU/edT8qn/fYpQ97+Pycf4GAZKxwBCPQIicsiQIUaob968WVq3bo1Qj4CNyfiFZ3yEeuG2gRt/2gah7k+/kl/97VeEur/9S/7FvzBQegYQ6hEQkbVq1crrVX/88ccR6hGwMZm/8MyPUC/cNnDjT9sg1P3pV/Krt/yakpIiV199taxYsUIWL14sxxxzTJH1H4S6t/xLfsRfMBB9BhDqERKRw4cPN73q69evL7KgAvroQ+93myPUYcrvjB/4fAh1mD+QCf6OPhO6883atWtN3Ud/LFq0qMj6D0I9+j4iX2BzGPAWAwj1CAn1gQMHItQjZFuCTNFBBqFetH3gx3/2CQr1BQsWiPbq4WP/+Rif2u/T1NRUOfPMM2XNmjWm/rN8+XLR/xXmO4S6/T4tzHf8H9/BQHQYQKhHSEwi1KMDMIHin3ZGqP/TJnDib5uMGjXKCINdu3bJHXfcwSKeESrXyEf+zkdu+Te4Ts9ff/1lhsIXdl2EOjwVxgb/hw0YyGUAoR6hCs15551nKo66oFzjxo0LbVEGRIKR2wwg1GHKbaZsv152drY8++yzJubu3r1b6tatS8yNUNlmOwukL/bxLzMzU1566SWTH3X633HHHVdgfkSox95X5Bd8AAN2M4BQj1Blpl69evLxxx+bgmrGjBkFFlJkDrszh1f9g1CHK6+yW5p0H3rooSbe6o/69esTcyNUtpXGR3w3fmJTkyZN5NtvvzV58oMPPhAV7wf6H6EePzwc6Hv+xvcwEBoDCPUIVmYGDx5sCqlNmzZJ3759/1FIAWlokGKn8OyEUA/PXvDlD3s1a9YMoR7B8ox84o98Ek0/DhgwIC9Pli9ffr86kFY+x40bZ95ftWrVfu9FM43cC65hAAZsZgChHsGKjbYgf/jhh6Yg0tVPy5UrR2EUQXvbnNGimTaEOoVONHmz5V4Idbi3hUXSkctily5dChXqDRs2lO+++868/5///Ie6EXUjGIABGCiAAYR6AUZxs5Dt0aOH7N271xRGOm/dzWtzLSqmBTGAUIeLgrjw+/8Q6nDvd8a99nzHHntsnlDv2rXr/9k7E/Cppv+PexBFIWWr0GLJvoRESijZyVp22UWisiV7QpStkhTZiWQpJLKUFGVNRPZQUiiynv/zPv/fuc/9TjPzneXeO/fOvM7zzHfmO3OXc8/ndZb3WT6nSvvnzDPPtL/9/vvvZrPNNqvyW9Kek/hS9sAADITFAEI9ZKGurYIeffRRWyFpelft2rWpkEJO87AyS1Kui1CnwkgKq0HGE6EO90HyxLWK52n99dc3kyZNsu2fCRMmmJVWWsm2f7Rlm7ZuU3j88cdNzZo1aRfRLoIBGICBNAwg1NMkStAV9P77728rJP1JXacV9L24XvGNi6SnIUIdBpLOcCHxR6jDfSHccE643Jx99tm2/bN06VJz6KGH2oa4dmnQ7gwKnTt3pnEeQTsUzsPlnPQlfcNiAKEeQQGZbZ1WWIblupVbaCDUK9f2lZzvEepwX8n8x/XZ69evb+T1XWHkyJHLCfUDDzywaKGuEXrNXoxrGhAvyiYYgIFCGUCoI9Sp3CJgoNAMWsh5CHUqhEK4Sfo5CHW4TzrD5Rp/TXtXGDVqVOBCfYMNNrDT53VtCfZyTUOei/INBiqTAYR6BCKNEfXKzFylKlQR6vBWKvZKeV+EOtyXkj/unZm/MIX6XnvtZTsB9IelhZltAJ+kDQwkkwGEOkKdHugIGIiygESoJ7MwjpKRcrwXQh3uy5HrcnimMIU6AyHk+3LIIzwDHGdiAKEegUijIiEDZsqAYXyPUIe3MLiK+zUR6nAfd0YrNX4IdfJmpbLPc8N+sQwg1BHqjKhHwECxGTWf8xHqVAz58FIuxzZp0sTMnz/fLFmyxGy88caUa2VWrpULp5X4HKlCvVatWmb27Nnmv//+M+3atSsqr55yyilMfSevF8VQJeZJnjk57USEegQFHCPqyckQ5VB4IdThrRw4zvcZVl55ZaP1qvvtt5+pUaMGDbcI6rZ8bcTxlVk2pQp1cdCyZUvTqVMno63a8uVitdVWM6effrq57777zJdffmmF+pw5cwq6Vr735vjKZBi7Y/dSMYBQj6Axg1Ang0eZwRHq8BYlb9wL3mAABrIxkE6oZzu+ut+09/pff/3ljaR/8803tpOuuvP4HU5hAAaSxgBCHaGed2920iCvtPgi1KmIKo15nhfmYSC+DAQp1C+77DK7vEUq/d9//zXjxo0ze+65J+2YCNqy5LH45jFsU762QahHULgxol6+GSiOhSNCHd7iyCVxgksYqEwGghLqWt7y888/eyPp06dPR6BH0IYl31ZmvsXu8bA7Qj2CQg6hHg/YK6XQQajDW6WwznPCOgzEn4GghHrHjh29Ke8DBgzAaWQE7VfyV/zzFzYqbxsh1CMo6BDq5Z2J4lZIItThLW5MEh+YhIHKZSAIob7zzjubL774wo6m633HHXdkND2C9iv5tnLzLbaPh+0R6hEUdAj1eMBeKYXO2LFjbWPmkksuoSETQf6uFK54TsoxGICBQhgoRqjXq1fP7Lvvvubxxx+39Zqmvnfo0IG6jboNBmCgIhhAqEcAOkKdxk0hjZtCz2nevLnR3rIbbrhhRRRihaYT55EvYQAGYCB8BpxQ11ZqJ598sll11VVzrpuGDx/urUnXB80Yw2bh24w0Jo1hIB4MINQR6lR6ETBAgRePAg87YAcYgAEYiJaBCy+80Ftb/scff5jNNtssp3aHGqhff/21Ferajk3nam069ovWfqQ36Q0DpWMAoR6BSGNEvXSAU7iQ9jAAAzAAAzBQWga6dOnijYxvvfXW1YptifmJEyd651x66aX2HDVasWVpbUn6k/4wEB0DCHWEOpVeBAxQqEVXqJHWpDUMwAAMxIuBTTfd1BPd1Qn1Jk2amAcffNA7Xh+6du1KW4W2CgzAQMUxgFCPAHpG1OPVYKABhz1gAAZgAAZgIDoGchXqa665pnnnnXc8kb548WLrPG7ttdeuuAY6fEbHJ2lNWseVAYQ6Qp3KLwIG4loAEC8qJxiAARiAgbAZyFWo9+rVy4p0rUmfP3++ufnmm2mj0EaBARioWAYQ6hHAz4g6jaCwG0FcH8ZgAAZgAAbiyoBfqGsae+3atZdreDdo0MB88sknVqg/9NBDZpVVVlnumLg+H/Ei78EADITBAEIdoU5FGAEDYWRerkmlAAMwAAMwkAQG/EJdSvyWW26p0vaoU6eOGTp0qBXpmu6+//77V/k9Cc9IHMmLMAADQTOAUI9ApIU5ot60aVNz//33m6lTp5prrrnGrLXWWlRuEdg06IzYuHFj079/f7PvvvtivwTaL2geuB6VPQzAQDkxoLbJiy++aIW4/rz++uteXbfSSiuZfv36mf/++8/+fu+993q/lVMa8CzkaRiAgXwZQKhHIArCFOq33XabV/Hpwx577EEFF4FN881o1R3fu3dva8eFCxeaU0891e4zm25qYHXX4XcqARiAARiAgbgyMHLkSFvXzZw502y++eZmm222MUceeaT5999/7fePPfaYWX311WnHJLAdE1fmiBflYZIZQKhHUBj6hfqJJ55o6tatG1glNGrUKFu5ff/990ZOWOrVqxfYtZMMdtLivtVWW5n333/f2lJ//v77b3P33XdjywjyZ9JYKYf4ao/kVq1asQYVvinjKoyBYcOGefVc6gd5e2/YsCFMVBgT5VCn8Qx0BoTFAEI9ggJx7733rlIf9e3bN7CKyAn1CRMmBHbNsGDjutkLsl122cXMmDHDY2XBggWBduqQ/tnTn/SJJn1WW201M2XKFOvRuUWLFpRbEdRBsB0N26Rz9el8yimnmGXLlnn1nPvwzz//mNNPP53ygPIABmAABnwMINR9iRFWJduoUSPzwgsvuPrISFwXe68uXbqYd9991yxZssReF6FefQOh2DSP4nw51OncubP56aefrF179uxZNCtRxJt7lAd/UdhR+yG7oNlGUdyTe8AnDMSDgRo1apiNNtrINGvWzMjHjl76vPHGG5uaNWtSHkTQJiUvxCMvYAfskAsDCPUcC8U111zTtGvXznTs2NG0adOmoJFOiWmFYoS6nK7stNNORqOt/vDEE09QweVoy1wyRimPkY1lTwWt41NHTynjw72pTIJkIO5CvX79+kYdCHvttZdZZ511yHtlUq4GyTDXokyEARiAARiIggGEeo6NEP+6Kjk90R6fG264YV6NuCCE+iGHHGLkcMyF0aNHG4267rjjjnnFJQq4uEfhhViHDh282RJMByw8HWEwfmnnF+qdOnWKVbm14oorGjmzcoEO0PjxQ57GJjAAAzAAA5XCAEI9R6Hu9vd0nknVkHvyySfNuuuum3NDs0ePHnZtVvfu3XM+JxVEbeHlwg8//GBat25d8LVSr83/8Sr4vvrqK2vqiy66CBvnmE9hOF4Mp7OHPDrLaZTCmDFjYuNQTg7u5MDRH1TGp3sGvos/Z9gIG8EADMAADCSdAYR6jgJA66q0D+gaa6xhrr/+eq8td+aZZxqNwuQCgo7T+SuvvHJOx6dec8stt7Tr0nXz9957zyhOud479Vr8H//Cywn1AQMGmPXWW4/1eznmVdiOP9tdu3b1ylBtzaQOz1KWZdttt51XtrqIHXfccQWV0/AXf/6wETaCARiAARhIAgMI9QIa/3J48scff9j23J9//mnuv/9+06BBg1AbdfKU/OKLL9p7/vrrr+b4448P9X5JgLfc4+iEuowu3q699lpsXkB+LXdOkvh8Ki8nT57sNLGZM2eO3a6tFM+iztOXX37ZxmXRokXm4YcfNtddd13oZXopnpV70jCFARiAARiAgeQwgFAvoOEvZ1/jx4/3Gpn6oCmcG2ywQShCSqOpN954o3c/TaEnkyUnkxVqq5EjR3o214cPPvggdnaXt95zzz3X7LrrrrGLW6HpznnR5K3TTjvN/PXXXx7j+r8UaS8P1C6cffbZJYlDKZ6be0bDOelMOsMADMAADBTKAEK9AKGuxJZDpE033dQKaLdu/Zxzzgmlkaepz/6w++67h3KfQiHivHAKII30SUQMGTLEml8j7NrCJg7pLaeGr7/+uvnuu+9s3LQUIw7xIg7hsBhGumpm0iabbGIWL15sGYpaqGtUf/jw4ebzzz/3ilftqBHGs3LN5HCJrbAVDMAADMBAXBhAqBco1P0G/Prrr21D784777Rr0P2/Ffu5Vq1aZuLEifb68vYup3b5OLAr9v6cX/rCSttEzZ8/3zIgYaEZHaWyiwqMM844wyxdutQTN9oq8IorrihZnEqVFtw3mLzhdrGIWqhrJog/jBs3zmhrNuwajF1JR9IRBmAABmAABopjAKEegFB3a4n/++8/89prr1mnc0GBqe2LtA5eo/YSSEFdl+sUl3GiTj/n7f/33383++67b0k4UGEh54lax6ugUfTLL7/ctG3b1ui3qNOE+yWL4Uz2KoVQl+O6wYMHW47l86N3796mSZMmMBxAfZjJznxfHvkVO2JHGIABGIiOAYR6AA2T22+/3RuYkVjfb7/9im7wycP7fffdZz777DN77XfffRev3wHYKqmFi5ZaLFmyxLIQtSNBjTLKuZYcbv388882DjNnzjRiNKnpSbyjq2SqS+sohbqmuw8cONB2qP7yyy+W5aeeegqOK7hsrY5Pfo9PWYEtsAUMwEClMYBQD6CBokTcfvvtzdtvv20bfjfddFPRDb9nnnnGXsv9Yaugyi6ctKWfRv4Uohbqffv2dRjad3G++eabF814pRW2PG/6POxmJGlXi7Accrq079evXxWWX331Vby7B1AHuvTlPT3jpAvpAgMwAAMwUAgDCPUAGykjRozwhIz2XC/EIO6c6dOn22tpRP2aa64xtWvXLup67rq8J7Og8Av1E088MRIWVl11VfPAAw+Yf/75x7Kodenyw4BITyZDcc373bp187y/P/HEE6GxrcrusccesyxrZsjNN99sGjVqFNr94prexIv8CwMwAAMwAAPJYAChHqBQ79q1qydqhg0bVvBa9VVWWcW8//77tkGpxiSZKRmZKUw7aU2t1oQraKs+Zdww76drd+7c2d7P/dEWhGHfk+tXHutyjjho0CCLmWaNqFMqaA50zYsvvthzgqhlRUHfg+tVHrvYHJvDAAzAAAyEyQBCPUChru2G7r77bqdrjBzBFWK81q1bmx9++MFeBwdyFACOIXlWV/joo4/MeuutVxBb7lqZ3lUgiOO6deuaGTNm2Pu98MILplWrVqZevXqh3DNTXPi+ctjv0qWLZe2PP/4w2267beCcXXTRRdYpp24ih59aqw5flcMXtsbWMAADMAADSWQAoR6gUBcAq6++uvntt99sozPftcSaaqyRJTVWFbRHdYsWLWhQBmyjJGZUxXnHHXf0Zmy0a9cuFC4kaOTV/e+//7YMikWNrCc1zYh3MirmLbbYwsyaNcsyp+nvQY6qn3DCCR7PkyZNMg0bNoRnylQYgAEYgAEYgIHYM4BQDxhS/1rie+65xzRt2jQnCOrUqWPOPvtsI6/xLsi5kqbBIzaSITbCtpO8r2s0UEFrxYO8X61atcwRRxzheZZ3DI4fP952PgV5L64Fz+kY6NWrl8Vu2bJlJkjnmc8995y97jvvvGMaN24caL5J9xx8B98wAAMwAAMwAANBMIBQD0GoL1682OkcM2XKlGobhhLjd9xxh3eOPvTs2TNnkR8ECFwjGQVKnz59LCca9b722msDGx086aSTvKnBuoFmdnTs2NE0b968Wn5hJxnsxN1O6qx8/fXXLd9vvvmm2XDDDQNhb8KECfaao0aNCuR6cU9H4kd+hAEYgAEYgIHyYAChHrBQV8aQgHLT3yWotAe2EjpTpjn55JM9kfTTTz8ZNSzD3qYoU1z4Pt4ZW9N4/UGjkEHYbOjQofaymtGhHQe03WAQ1+Ua8eYpbvbZZ599vFlF6igKIn4IdRgMgiOuAUcwAAMwAANRM4BQD0Goy4innXaap6c+//xzc+yxxxp57k41sKZifvjhh/bYN954g23YQrJHaron9X85wRo4cKDR9GAFOZgr9lkkyr/99lt7vVtvvbXo6xUbH86v3IpQo+rOP8KBBx5YNIvyGTJ16lTLNiPqlcsVZQq2hwEYgAEYSCIDCPWQhKFGhrRXrwvy4q4t27S11oABA+yrf//+5sEHH3SHmD322KPohmkSISTO+Reen376qeWmGKGuNe/du3c3zz//vL2WZnPk6lMBm+VvM9Ks+jQLUqjLadzDDz/sCf9+/fpRvoZU38F29WyTRqQRDMAADMBAvgwg1ENquNSoUcNsueWWpkOHDuaDDz7wxHi2D+uvvz4NyZDskW/GiPvxQQj166+/vgqON9xwA/zBX0kZqF27trfrhRwmFur9XbNE3PaCgnzkyJFGHVNxz9fEj0YcDMAADMAADMCAYwChHkHDXA65nnrqKSvYZ86caVJfEvJaIyzP284wvJNJszFQjFDXqKV4++uvv6xQX7JkiRk3bhwesSMoC7LZlN9WsMuDBg8e7HUgyd9Hvumy11572a0tdRE59rzkkksKFvz53pvjKbdhAAZgAAZgAAaCYgChTuM874ZwUPBxncILMifUx4wZk/d0de3H7g9akoEtCrcFaRds2tWtW9d2HIlRLR/SMqKaNWvmzOjw4cMt3j/++KPp1KlTzudhx2DtSHqWT3pqZkvLli3tLEHsWj52xZbYEgbizwBCHaFOQzaBDHzyySee1tZnLbPIpcDVllf33nuvd+4555xjNtpoo5zOzeX6HBP/Qj8JNurdu7fH6B9//GHEaa7xfvLJJ+258vae6zkcB7cwkJkBiXQ5HNVyEi3rI60ypxVpQ9rAAAwEyQBCPYEiLUgAuFYyC5SePXsaOX/7/fffrSgZP358xum9a665pllnnXXM6aefbr744gtPAD333HNG0+BhIJkMlLPddtllF/Pee+9521wuWLDAOtvU8iBVWumeXb917tzZ/Prrr5bxm266Ke1x6c7lO/IADGRm4IgjjrB5Sp1m+cxuIU0zpylpQ9rAAAzkwgBCHaFOYzbBDHTr1s3uO/3vv/+ayy+/3Ky00kpV7HnooYd663WdQp8/f7655ZZbzHrrrVfl2FwKDI6hYomSgWbNmpmvvvrKoWvmzp1rTjjhhOU479Kli5GYd0F+P+rVqwffCS7bouSMe2Uv1xDq2dMHfkgfGICBsBhAqNOQoTGbYAbkJVvr1BUWLVpktD73yiuvNHLC1bdvX/Pxxx877WL++ecfe2ybNm2weYJtHlZlENfrHnfccd4ouWCWIB8yZIi56qqrLOfaotA/U2TevHmmffv2MA7jMBAQAwh1REhc6wfiBZvlzgBCPaCKrNxB4fniWxg2btzYvPnmm54gT/fh1VdfNTvssINZY401aLyS5xPFgKbaygHifvvtZ3fMSMe3+07LOZo2bbrciDvlV3zLL2wTf9sg1ONvI/IRNoKB8mQAoU6jPVGNdgqi9AWRnMQ99thjRt7gZ82a5b00ov7++++bo48+GjuT1xPPwCabbGLGjh27HOezZ8+2Iv7ggw9O/DNSxqUv40iX0qULQr10aQ/3pD0MVDYDCHUa7zRsYQAGYAAGYAAGYCAtAwj1yhYKCEXsDwOlYwChTsWctmImU5YuU5L2pD0MwAAMwEBcGECow2JcWCQesFhpDCDUEeoIdRiAARiAARiAARhIywBCHXFUaeKI54X5uDCAUKdiTlsxxwVQ4kFhCQMwAAMwAAOlYwChHk3aN2rUyGywwQa0yWiXwwAMeAwg1IHBg4GGUDSVMelMOsMADMAADCSFAYR6+KzKUebUqVPNpEmTzGqrrUa7jLY5DMCAZQChDggUBjAAAzAAAzAAAzCQlgGEevhCfZ999nG7TJq11147rR2S0rFDPMPnhTSunDRGqFMxUyHAAAzAAAzAAAzAQFoGEOrhiwKEevhpjLgljZPIAEKdijltxZxEmIkzhTAMwAAMwAAMBMsAQj3Y9EzHJ0I9/DROl+58R7rHnQGEOkIdoQ4DMAADMAADMAADaRlAqIcvZhDq4adx3AUZ8YOBdAwg1KmY01bM6WDhOwoRGIABGIABGKgsBhDq4dsboR5+GlNukcZJZAChjlBHqMMADMAADMAADMBAWgYQ6uELHIR6+GmcRJFGnOECoU7FnLZipnCgcIABGIABGIABGECoh88AQj38NKYsI42TyABCHaGOUIcBGIABGIABGICBtAwg1MMXOAj18NM4iSKNOMMFQp2KOW3FTOFA4QADMAADMAADMIBQD58BhHr4aUxZRhonkQGEOkIdoQ4DMAADMAADMAADaRlAqIcvcBDq4adxEkUacYYLhHoFVMyrrbaaad26talfv37aSpiCgIIABmAABmAABmAgHQMI9fC5QKiHn8bp2OY70j3uDCDUK0Cor7POOub55583+++/P0K9Auwd90KH+FExwgAMwEByGECoh2+rpAn1hg0bmiFDhphp06aZN99807z11lvmySefNK1ataKdSTsTBgJkIHFCfb311jNrrrkmEOQBgYy8+uqrmxo1apBueaQbDcnwGyekMWmcjYFatWoZNQhXWmklyi7KLhgoEQMI9fDL6aQJ9UsvvdSkC88++yz5tET5NFtdym/h5+Gw0jhRQn3bbbe1vXaPPPKIUcTDShSum1ygsR22g4HyYaBPnz7mk4rePCcAACAASURBVE8+MQceeCDlPY0/GCgRAwj18MvUTp06ebp37bXXjj3r/fv3t/FduHChGTBggJk9e7b9f8KECbGPO22E8HkmjYNL40QJ9eOPP94WBL/88otp3769GTlypJFof/jhh7O+dIyOPeywwxD4JaroybTBZVrSkrSsFAbGjh1ry/yXX34ZHxuU3QiAEjGAUA+/zunRo4ct6/QnSUL9gw8+sPly1KhRNv4I9fBZqZT6n+f8f5YSKdT/+ecf89VXX3mFWq4flixZYs477zyz1lprmVVXXZVKv0SVPpmPghwGYCAXBjSS7sIxxxxDmU2ZDQMlYAChHm55veKKK5qBAwe6og6hXgLGc6mPOCbcfED6pk/fRAp1rzQzxrz99ttGa2LGjx+f8aXfNX3Shb///tuMGTPGCnbASA8G6UK6wAAMlJqB2rVrm3HjxtmiW2U9fjZgstRMVuL9Eerh5rtVVlnFPPHEE66JilBHqNMhCQMeA4kX6rmuXdxyyy3NxIkTvYJQHwYPHmyuvvpq07dvX7PnnnuWdFq8PLNrtP/aa6+13tlpkIZbMVZiY4tnhqkkMnDSSSfZcvuPP/4wNWvW9CqvJD4LcSYPJpGBs846y+bB3377jTwYgoDQFrpTp0712qdMfaecSGI5QZzD4bZihLoAWnfddY1r9Hkl4v8+/Pjjj+bYY48tWSPwuuuu86K0ePFis9VWW9m4aEoU8IcDP+lKusJA/BlgNC/+NiIfla+NtEzw/vvvt+0TDXawA0Pwtl5jjTXM119/7bUBkyDUb7jhBhtf1qgHzwPlKWnqZ6CihLoevE6dOmbYsGHms88+M7NmzTIffvihmT9/vi1w5KRODudcAmlLs80228xsscUWaV/aKk4J6I7P571evXpG0zrdOQcddJD5+OOPvYL6119/NRLsitudd95p5PF+8803x6FSCL3Zzga8UzjCQPwYQKjHzybkk8qxido58+bNs22TXr16eW0WGAiOAW05/P3333vtvzgL9ZVXXtlcccUVRm1UBYR6cByQp0jLdAxUnFBPlwgtWrQwX375pS105LlSx6jXePjw4ebff//1Cs/UDx999JHZbrvt8q64NFo+efJk88ADD1QR+pr+Pnfu3NTbVPl/2rRppnHjxnnfM91z8x2FAgzAQNwZQKjDaNwZLef4uf29//vvP7PzzjvT9ghhsEBCfcGCBV5bL85CXR03f/31lxdX5+Udr++U0+VcDpby2RDq/yt0VdgoaBs3eYW/5pprvIIo2wc1IvM14FVXXWUvuWzZMjNo0CB7T923X79+5oQTTjAnn3yyOfHEE825555rR/xT79+6deu875lvHDmeQjcqBtRIOfvss23HmPLBiBEjbJ648cYbvSUgUcWF+8SPe4R6/GxCPqkcm9xyyy22CTJ9+nTToEED2h4hCPV27doZ7WbkQpyF+vrrr++iaa6//nqz6aabGi3RfOaZZ+z3TrhTRlROGYGtw7U1Qn2FFcxuu+3mjahrpPvpp5/2CiJ9OPPMM+0otqbAa/q5ClXXo5irUJdXT61D6tOnj/n999+rXN//z+233+5VhDLOBhtsYJo3b24kzuWtXuG2224zmn5E5gg3c5QifVXhSbiKlUrwT6AlHVr36Nj25wV9VuWvNZLqPHMv5aVS2IZ7lia/IdRLk+7wTrqLAc0cVFDbpBLqpFJw//DDD3tVn2YuxFmoX3jhhV5c3aCRloy6OhyhTrlRijxUzvesaKGu6e0DBgwwGtlODfIwPGXKFHPfffeZjTbaqIowkGd2BTmga9myZZXf0sEiJ3baesM/jV6Vn1vjoz3hJVZeeuklo7Xq6a4hL/BDhgzxoqlR+XTH8V2yC0nZVR05YkOzOsrZnm3btrV5SFAvWbLEer19+eWXjSp6tyZSvynf6KUGjDrItF2Xc7ZYzunDs/1/XkaoJ7tMg+Pk2k+dxs6Hj3alwZbB21Ij0v716WrnxdVh39FHH23UNlZQe1XT4MXEaaedZr/7888/Ta6DV7AUPEukaXmmaUUJda0B1xRbjWpfeumldis01wtoS5n//Vm0aJHp3r172kpJzuXcevahQ4emPSY1s+y1117+y9tRQhVwM2bMsN/3798/p+vIAd2LL75oz3EOPFLvxf/JzKhyLKgdCVTRuaDKu1T2VANNSzAuv/xym1+UH9SgCDI+d911l33UH374wZx66qlGW9S46/fo0cMKc5cWqe/aU3vrrbf2jnfn8Z5M/rPZDaFefjbNZm9+i4e95XhXbRwXjj/+eMrbEKa9X3LJJS6J7bt8AsQ1Dzz00EM2jhpocu0B+Ux65JFH7PcLFy6MbdzjmqbEKx7lXZztkCihru3TUkOu+6jLCJoyni1oVHu//fazo+SZptdefPHF9hIaTd99991zKpScMxadePjhhxsJbjmhc72ouQp1PYOOVUCol1fmVgeSf42abFxKoX7RRRdZzvx/xo8fnxPvuRR4DRs2NG+99Za9fLqpcpr6ryUmyo8dO3a0r7333tv07NnT7oagE8eMGRNYfHKJM8eUJs8h1EuT7vBe2emu9pYbyNBOOf5damAjGDbq1q1rJk2a5K9mTZyF+uOPP27jqiVpYkACwh9/hHowXJC/SEc/A4kS6s2aNTMvvPCC+fbbb73RtnRCXduq3XzzzXZarTxpauqWhLVbV65t2ObMmWO3aPNPsW3SpEm1Df9bb73VFlQa0fMnZLrPmr6kKUFffPGFVxCrl1pT6adOnWq/+/nnn83BBx9c7bXc9fMV6jLw+eefbx10NWrUKOf7uPvxHk6Bsckmm5gnn3zS/PTTT5ZN57dA726qYZRCXVPJNaXcxcdNb9OUdH2noOnnY8eO9XrSC2VDDb5HH33UXlOdE+Izn2up0agg50b5nMex4bAcdroi1JNpt7C54PrhcuE6a9XeqlmzZtmUtfKLovpHHRGlZkhtP1fXqk5bunRpTsspSxXvVKEuX0luCadE+k033VTyNC1V2nDfcMujSk7fRAl1ZyiJXdfTm06o77DDDrYhn+mPfwRb24389ttvRoWMpvu6e2R6d0K9OpEgka4pTa5zQHGRAFPBduSRR9qoSfjIu3ume6X7Pl+hLlGk51NIl1bp7sF34RY44kyCN1147LHHvPVeUQl1+VDQbJJ04e677zbHHXdclZ/U+VQMI1tuuaV3Pfl7yPdauebBfK/L8eFyX2j6ItTjaZdC7cl5ybCnE+ryoVNONtNuIgrVteHCfma1BQcPHuzVhfqgznu1b8O+d6HXzybUWRqRjHxdqO05r3T2TbxQ33///Y1GwtWTJycc8kzqChMVfJdddpk5/fTTzVlnnWXXp3ft2tUe76BTT7F6NTXFtjqPpnvssYe3rry6Qr59+/beFF05yNL99Z3u26tXL1s4qycyX+/t+Qp1iSJ1CCgg1EuX0WR3LXm44IILzFNPPeXZ5J577rG2cX/k/VW7DCiELdTlJ0GNseeee87eT87aJJzPOOMMy6vioV0O5G1dow9u1L9Yoa615S64dW4uP+byjlAvLce52CjIYxDqlWXvINnhWoWzU4hQr1Wrlu3Y1TJDtcckRNO99Nudd95p/aDkOqVe08Q1sKFlg4XaNZ82XKH3yPU8tVtVx7ug+lftxFzPL8Vxrm2tgQa1Xfv27eu1ZRDqhee1UtiSeybHXokX6occcojR2tlMIdVje6FwatTx66+/9m5TnVDXmmMFTbPXelx3X00//+677+xvUQh1eZt3AaFe2oypSs0fNHouIeyCZl/omKiE+g033OBubd/vv//+rN5mNetEAaFeWo5cWVIp7wh1eKsU1uP0nPkIdYnoc845x7z33nteh26VyiXDP6rz1PGqWWbVDVp069bNXkXexgtJp3zbcIXcI59z/B3WerCPP/7YaHlnPteI8li1VdxWfRpQkPNbF9Q2kE+ZKOPDvagXKoWBxAt1TSd30+C1FvyNN94wb775pp3WdMcddxitVw/CmBL8LsiRmwqpdNdVhaPRfQl0BRVg/uM0guiChJL/t1w+5zuirrgqaKs51qiXpmDTKINGD9wyCI1My3uqOnAaNGjgcDAdOnSwPGgbHIWwR9Rd77iWRowcOdKsv/76WXlEqJeGn1zKhXI+RrOgFLSWs5zWypazzXi25JcV1Qn1VVdd1WjG3hVXXFFlEEP1yTvvvGPbHGqLpXtNnjzZfPjhh56vIdWNM2fONG3atMlYB+Xb9kll0N+GU3lS3WBL6vlB/+8X6toiWB0RQd8jqOtpNqA6SBTkt0YDZNpKVkE+DNguNfn5PShWuE7wLCReqNuS4n9/wnQO4i/kd9ppp+UKVK1J17QqrTHyB23B5gfXL9RVUPt/y+VzvpWVE+o6L5frc0zwmUyO4/xBIt2lczquohbqzoOri1Omd4R68GxkSmu+//+0btGihR1pUv5RR2ym3ThIL9iEgWAZyCTUNfK955572qntzvGp8qdmCo4YMcIusfNvtZnJLhqFVwexG2jRNUaPHp1xjXa+bZ/U+/rrWt2r1EJd7UUXtBwyNb5x+t/tXKRllOeee66Na7H2iNPzEZdgyw7SM9j0LAuhLq/U2qtca2nDAsRfyKcT6mpQaj9oBRVmrsJKFeMI9WABDsveQV7Xb3OJcP/MhnRcIdQzM6KefW3nplDqhlaQjHCt9DbXLh8KEgSHHnpoaOU76Z8+/UmXyk2XTEJdU9xdp63ypnbOkW8TtYE0YJEPMyrP5bvnyiuvtPlcbSc3syz1OsUKQ39dq5uVuv645ppr7DPrj9oIqc8bp/81O1VBM1blU0AO75xvG7YKrtwyIk6MlnNcykKoh+mVdOONNzZaS+zvOfYLdTmg09TMzz//3Ct0tTWcpjunA8cv2uToLt0x2b4bMGCAvU+uhSMj6qUvRP02T+248TcetP5LjRbn3yCqqe9JGVHXaKrbmk2Z4Oqrr847/2TLW/xW+rySagPnbKlPnz7YeoX42SfVXvxfPjZS+0TB377S9GxN01b48ssv7daackqar0BP5USj6xLOCvI5lO565STU1W58//337fPqT5yFutqy33zzjY2rdjJS3J1w15eFLOFMtT//l0+5gS2Dt2VZCPXU6eVBgqI9nv1Ba6m0D6fuocrk0ksvrTJ1S/u1Z1sXv+GGG3qif/HixdU6UNF9tBZs9913t964P/vsMxsd9Wzm8pwI9eAzTS7p7j/msMMO8xBKXculdeFuJoYO0jqwU0891R6PUF/BbLDBBnYqpXZmUIfYn3/+adNGa/6r26XBbwM+lz4f5GsDNV4XLVpk7a3Oq3zP5/jk2RybxcNmLVu2NLNnz7Z5T0K9bdu2dk2y2+pV686DFpennHKKvZ9G1Tt27Lhcfi8noa4Oe//+6UGnZZD56IADDrB2kfNjtUPXWGMNr7NG27dW5wQwyLhwrXiUD9ghWjskXqhrivkuu+yyXKEeFEhu+tfPP/9st9Y6+uijjVt/pS3dnNO4V155xfTo0cNu86ZEzXZ/jQ4p/PPPP0aVj7xpZjteU82cQNF5WgumNUPZznG/IdSjzVAu3d17jRo1rDMd2U0ifO21165iN3X2yIGOnP0pqNPJzZqodKGutHPT62zi+P74Z7W4tOa9tKwHnf7aalNBI3c777xzlXwT9L24Xnmxgz0Lt6dmLmlLWQW1UeQ8TOLZBYl0OZELOo3VKfv666/b26jcT71+OQn1gQMHuuS073EW6vfee6+No9ovWl6qThQXWrduvZydUu3G/4XnRdKOtBMDiRfqYW855oS6f/qXEk73nTVrli2vtF7LvwVbdZlLHQtuqzdVgGqIpvOMqu80cq41+C7MmTMn4xqudPdFqJc2ox9zzDG2saM9Urt06ZKxUuvcubNZunSpPVY91wqVLNS15GTUqFEOeztrRZ1VSkdNGdSSgXS8811peQ8q/XfYYQczd+5ca39Nswzqutmuo8aynFu99dZby5XHU6dONePGjbOzmrLNmPJfXzOhLrjgAnstne8v4/X/a6+9Zrp3727UIeU/j8/lwXBS7SgfKhLoCqqT1EZRuavvJk2aZOQcNaxn0/7rCunWj5eDUFfZoenjbmaCe9Z11lkntDQt1lbTpk2zNlHnwjbbbGOdeuoLtVurG2Qq9t6cT1kIAwj1agtHJ9TlMEXTlbbbbjs7uqP/XdD69Hxh2mKLLazDOf/ad3e9TO/yKK/7VDdi748LQr20BZ3bx14zLrQOz2+b1M/a5kYNIxe0zEINeTX4U48N4n+3PVvYa9S1pZbyzvbbb2+3cXH7Yus5NaXd/abf9dpss83MPffc45LBvms7GHGv2Sx4/i4t00GwV9015FlYQZ2UYYzepbv/oEGDqjCX6R9tK6XtOVNnx6ReU5y7LRkzXUviZ99997V5QJ1T6aaRaqqp6h0tm3GzuVLvxf/lnyeisrHKWglzf9Be51qrnI7PIOOl+yiUq1Dfe++9/clqBg8eHErdHqRNnO8A7Z3+9NNP2/hruV665QlB3pdrUabBwP8zwIh6NQ56nFCvUrr6/nnxxReL8kbcqlUrO/19yJAhdq9trb1NfakwV0+z1gflCy5CvbSFnfNQrtHhXGx33XXXeaMZwkw979qyRr4SzjrrLKNlEFrL17x585yul+2eUQn166+/voofB1/2qfajOrKUB9ddd92inzdbWvBbafNJavq7cjd1JlPqcUH9r5EhOXNU0Ei3pt37y2H9rw4t/7rSZ5991npATheHiy++2FvHqWtqpF4zA3RNleUu7/kzgPyPaNRQ+VxOJdVBp9F2beeooG2s1JmQ7n58Fy9+k2yPvn37+rE04lxevqN4pnIX6pqJ6YLqtt122y2SdC3Gdk6oawmEHAmq8/G4446LfbyLeWbOpTyNEwOJFOoacXNTs8Ke+q516Fqfni5oynsh4jlKABDqpS1w8hHqWq+uHmv/vrLpuNN37733XtHsObGQy4i61qK50f7TTjstr0paDmcKDRI1UeYX7lXa/OLSP2qh7hxZaXmFcxbq4uLeJVbkWEnCxa3Zlahxv/vfXbkr7vV5zTXXrHKcnIr6j0nNH2oUa/RNo5j+8Omnn1a5jv+efI4Hu0m3g7yuuyBGo1w/Xc5T39XY7tevn0taM3HixETkZSfUXcRzHXRIej4g/pSncWEgcUJd02jd9BsVHGELdYknrT9v2rSpadKkiffS/w0aNAh9KlixoLjGoEZqir0W5+dfcOUj1CUE3IidRtI1k0Jr3LU2VuvVFyxYYLSrgNseRx1IWnahtby5vL744gu7/rZTp06WhVyFuqbcOo405W2PPfbIiyXtu+ryjtY/+p3RtGvXzu4r735Pfde5cJc/d0lPsyiFuhhzTgvlMEllfrb0k3h2o9zKixqJ17pT/3kuv9x1111GdZYqWv819X/9+vVtvSJ/C+oc0Kwq5XMX5NNCyzz8AaFeeXnBz00Unx27cpSrgYoo7ql7aGnYCy+8YHFP13lcyBp1rQnXLDXVk26LMZef0k2vD/NZ1cHtXwoj/xVh3i+oazuhrrirnGR2G2VQUGxxndxYSpxQv/LKK6usn8rV+3mlAuEqXYR6bhkiaE5yFeqa5uq8vashobXbmeKita/y/F9oUGNI13ZCXY6ttP2OXvXq1atyX62PHTp0qL2VRvkOP/zwKr9nimO277Um3YUoR2uyxYnfSpM/0qW7Rp/Hjh1rEVHjWh1DEgzq4CnkpXO1xChTp49Gt92a3GwOH/1x1VR5rVV3QTO8/GvW05W72oqxWbNmWbcV1JaDzkmptnVUueAPCPX4cOrnoVw+y/O6c+L44IMPRuroUJ22btbWUUcdtVw9U4hQ1zZzmcK7775bpXMtLBs2btzY7tLj0lXxUXmhmaFh3TOo60qUf/LJJzYJb7755tjHN6jn5jqUs3FiIFFCXdPM/XtOS2hodCNOCRq3uKRrMMYtjuUcn1yFupxTuS34NFrnb/SnSx81arTN32WXXZb3a9ddd7V5xgl115DRdF59p4aF7qmRQDfSqGOCEgkIdSrBdEy7766++mqHpJ1h4pY5eV8W8EEzVeS1OJ1DR41ou5DPtn/aMk5rz13w59nUclcNXjmU1N7UEuvuWdO977nnnqZbt26200ydFv4QVB5Md1++I1+qPnEh6s59jXwryC9F6lIRsVmIUJe/BxfkK0Wj2G4rVM2G0T3DXH+v2ZhuRNrFQ+9a3hbmfYPKyz179rTR1uyKsGevBhVnrkM5Vm4MJEqoH3/88f6yzqgQKTeDBP08qQ3GoK/P9bIXik6of/vtt9YhXGrHkkbQ5JhF09IVPv744+VGtcNKY63LdVPt3ZpbvSsOWj+nrQH9QWvNg4iLX6hriqPW/QZxXa6RncU4p49mblx++eWWud9//92PnR3tFpfFvHRBNcw1ivbII4/YEXaXHoUKdZ2vGV0uZBPqmhqvoM44bXHk7l3du67pD6UW6pp189RTT5levXrhgb4aR7TV2TZuv2s534wZMzzcomxfaXsyOVNU0MyydGmTr1DX7Bu3ta229HTiXzNVFi9ebO+lTsAbb7wx0JkDmrmj/K6OuXfeecdLT1d+6Qs5kst1m8d0aRHFdyoXtVWlgvxyRHFP7pHcOhzbhWe7xAp1jUxoOxvgyA4HQj17+oTNT+qotcSuPLZrez5NfdNWOG4kXRWixHHYcXLXVyeBBJIaMGpcaFmJW/9ua2ffnyB70zVt2P/Muqc8YrP2rbSsOi5K8a7Gc7qgqbDa8UDbkonTQl4Su3KA5Ka36z7arcM9Z5hCXc6j1DnnlqoMGzYsL1EQJ6G+3nrredPylYba696lIe/Jz7v+bTOjbl+5/K88ussuu6Tlygl1dVZpZowar9m4057vCjq+RYsWVY7VEq8xY8bY3yXWNUNNy7DkNyLbNXP5bf/997fX9f/RCLri4OKk7UdV/+ZyvVIdc/bZZ9tHUNw1yyc1Hkp/1dmaeZf6G/8nvzzAhvGxYWKFukZfAKl6kBDq1adRmBypcpaTKI1Qq0c9U5CzG4mJKJ33pHtuOby57777zIgRI+xLcZKAD6IB4+6nil3bzOk+bhqi0kXrksPaM97dm/fS5odM6Z86W0ojYOrUOuGEEwIp5zV6deGFF3qjdq+//rp33WKEur9Rnm5E/YorrjDnnXeezfZyBilBkCkN0n0fF6Gu5TJuraorw/JZJpDu2fguXnnRnwcz7WYQhs004PLqq69arOQ/xZ+P/PdzQl0HqiOhOv6qa/vo/NSgEXA5NPXfN9/PrsNDHQCq4/Tq3r27kVNWN4PNOXTN99pRHS8bzJw50yaPZtCk61TQrhRKYy0piCpe3CdeZQb2iMYeiRTqcmqlqVJAkhkSjeKcfPLJ3hQvVXKkV+b0CjttVPHJi3u69bYS8GeccUZF2kejdG7vXI2maH2+BFrnzp3zGnkM235cP9y8c+KJJ3ptZuWR008/PZT8oBFthSCEujqV1IhV0Ii5Zqc4TpxIkB8JNdQVCpk+GpVQl3d5OYrUzJl0jXLnhd8+yP/+VCeUXFrwHm7eCSp9nVCPsn2lWRmvvfaah5U6cDM9j3ZAcc7mdIK2kROzNWrUqHKOOoJzafuog845bnQR0JR0Lc3KFIdcvle+0O4NEv0rr7yyd63evXvb2+TipyKX+6Q7RnFXW6LY2WnyU+NC+/btvWfw39N1nKis83/P52Tkd+yUHDslSqi7xtyvv/5apQAEuOWB00iPf3oxQn35NIqaG43qaXqdpr67l6bAb7LJJhW93lPT6lKDGouasqiGlDo4tBVirvaS0FBjZdCgQUaNsVzP47jS5JGjjz7a2zpJDXEtjUj15RCUbYIU6hqhdyFVYDihrpkyzgGqlsHk+xxRCXVNN1aeW7hwobeW18W1a9eu1sGXe1b3jlAvTX5xdgn6XZ2jClG1ryQAv/zyS3tPbf11zTXXZJ1GLUGu+lOMuiB/FnPmzLF+VeRbRfWF/vf7ucjU9lHjV17ut9xyS285muoL/zaLhaSxztd1tMuD/3ztrqKgMqjYe/ivq89qQ6hDUNu3KqSWR6nHZ/tfswCnTZtmr6M/mfI5Qr288n82JvittLZOjFDXdCQ3TTaqiiTJcLrecY1SaiRH2xMl+XmIe2kLijDTX2JEo+pan6+RzkWLFnmNBPdBSwfUsJMzKwn7TK/WrVtb50BuPbIan2HGnWsXz6VzpChbh122ByHU1RF07rnnev4cnnjiieXErdsP2vGr9zgL9UxO8XbccccqHb7y/uxCpgY8eaL4PFGKNDzyyCOtaX/++edQBkIkTiW0tXuPloOoY0hBHVnqDMr1mc8880w7VV6O7/z7kjsu3bscxqnts9tuu+V87VzjkO9xEr/OgZ3aZvmen+34bbfdtooTQD2//HpkOyfbbw8//LBNQvmO0YwhzXpLPV5loJsppCnyqb/zfzLLAOwWT7slRqg/+uijrvwNvTFXDrA6oR52w7cc0opniE/hpFETNRi17k1r44cPH+416LwCIMcPWvOeOqqBreNja2cL/whZ2OVVsUJdYkMiwwlWdR5rVox7FveuxvO9995bhdQghLpG6FOn+rp7FvOeSajLQ76CPHLfcMMNRjtFuIBQj19eKoaBsNoMcgAp3yvqjNUsKX/QCLjYKyTecggnHq+99lo7Gq8ReffStmty1FrIdcM4R3WZgp5Xo99B3WO77bYzb7/9tr22OrjllFXe+otxtKydWBS0Y00mnzHyWeE61OWHI6jn4TrlVaZgz2DsmRihHmVjrhzgCqvSLYe04RmCKTyiSEeJEu19KwGXT3jyySeN9rCNIo7cozie/HuRayRalVJYaZqvUNeUcHUSK15aE/vyyy97DVTtj6ydGzLFVY3l9957z8O2EKEub/duiyRdSEsDtFQg0z0L/T6dUG/Tpo23vZX219a1NaXXBYR6cdwXaquwzguyzbDHHnvYTtbnGnnHSwAAIABJREFUn3/eTJ482evYcuzoXXlJDtbCep44XdcNNKkMCSpeEulu+zd1HMoRbBDXdkLdX17Jh4X8howbN86Wg25pzzfffFP0evgg4sw1yqsswp5V7ZlIoS7R7nfSgVGrGlXpEWSlS/oun76kSXRporyu6fFyIJnrK6w1ztg9eLtr1MbZVcI0zDTOV6i7daV+gaHPEs/ad7q6uKqC1VZwCv6Gb3Xnud81GunWnbpdI9RpoO0U3TFBvKcT6jfddJONt0ZB3bPmKtTlzKpZs2ZGo55hdrwE8exc4//ztGszaEq6OjnTORXMllbKx+rYGj16dJU14oJIW3xpiYuYksMzledx30c827Pm+5vSROHpp58uOt/KLlrK6Pa8/+2338ypp55a9HXdM6UT6poR4cof+yD/+yMHee483oOvG0lT0lQMJE6oa5pPPuuZKhV0V+mGPZW0UtOX56YAhYFkMaDK7rHHHrNNzExe3w899NAqDc+vvvrKHq91mFqTqZExTS/NZ/pquoZvruz4nclpGrpG1LUuN+hpvX6hvtZaa9k0qC6tMo2oy3+EpugrfPjhh+y3vkIy8olrM8huGinVDgC5cCov69p2UEs9/GvGNZtEu3go32g01nGVyzXL6Rg5rHPO2W6++eac0jTT82u9uDob3TZvQYt07VzhfEGpnFM81FH+yiuv2PysTjutYVdZpKUMerZMceX7ZOR77BR/O8VeqKvg6Natm+fQJqjpPeUOp6t0Eerxz4TlziLPB4OlYEDTNY866ii7a4AanRLZbm25xIOLU/369a3XaLVEtVe4HBK63x588EE7ktSlSxfvO/dbru9BCfWDDjrIbgOneJ511lkFxyddvJ1Q16iZRsM1Uua2wvKnVbYRda3V1xpht/+ybdkbY2d3pbsn38WrXJCTNzd7Q7bTiK12ztCuG5leylfq0PEvTdT2Y9oRwc3CqHQ7q8NDeUniWnuPF5oemp3iHL3JPtpKTmv0C71euvPU+abOSTlj1S5LdevWNVdddZXLyubYY48N9H7p4sB38SoXsEfp7RF7oS5h7jw4q7RAqOcGDUI9t3SiECKdYKD8GFDFdvDBBy83BVd1iPZtTt3uTyJ4wYIFtkGqUSPnKVodxdq+qZilFMUIdTlDdEFieu7cufZf7dt+9dVXW2eJQWz15IS69rCX0zi3vVVqWmUS6kpvOZ9KF1QXkcfin8c0cir7yuFZIeHbb781PXr0sKOs+U6bL2c+Lr/8cpucyruZnLPl8vx+R44azdZe50EvAVWHpDrrVBZq1o6m6rswadKktB7gc4k7x8Q//2Oj+Noo9kJdHiUVtMZJW0VUivORYjMNQj2+ma5Y23I+toWBzAxoCz+JDdfBO2/ePPPmm28aOX+7//77lxPpLi0PP/xwz3ma9ndWp7DWzrvfC30vRqhrP2QFbe2krdK07ZJ/9FJTjbVmXY32QuOn85xQtzf73x9Nd03t0Egn1NWR8dJLL3mnakRODsQk+hUQ6plZLcZmYZ17xBFHGPlmUJ6p7qXjZGuJ0Uqd2p7NDpqto61FFYYOHVpwHtV17r77bnudr7/+OjS/D847/U8//eTFW2WMpsOnLgvK9tz8lqw8j73iba/YC3VNv1FQYQdMucOEUM89reCKtIKB5DOgqe4S6W+88YatM/RHo0P5eEmXSNG+zi7IaZzEcjHb/BUq1LXjgfP4rjWhblRfHrXVaPcLdu0tXQzDqUJd3qTTiX+/UN9+++2NnP/JE7Q/uOm4bqcGhHry81YxbFXyudqm0S0h6dixY955tE6dOuaMM87wHMcpn4W1b7mc+znv9NpDXUEiXZ0wlWxDnp3yq9QMxF6oq6Bq3769ad68eUUVFpo5cPHFF5tNN920oOdGqFO4lLpw4f4wWCwDLVu2tNvzad20ykIJVM2sGjNmTJWXtuOTd3W/eH3//feNRK3qkHzioXN0D+cYS+9yYuruqXJZTt5yvaYT6hqlv+iii8zAgQPNgAEDql3Dq3pPYlczA5z4dfdUp4SctrlRazn/Ume20sHFM9u7nk9e6E8++WT7HHvttZdfa5tRo0alfT6/UNf9tMWWm7nQp08f61RMW9ZpWr7zEo1Qpxxw3Fbau3xJKGipSj6dfVo6oE5D5bE///zTXkOzSpW/MzlxLDZtN998c7s+3RUE8ufRq1cvo7Km2GtzPmUADBTOQOyFeqUa1zkN0dQzOenJNx0Q6oVninzTmuNJaxgIhwEJZIVzzz3XCkvXiMz0rsasHGJpeqhGwgu1i0az5cla08qdh2X/PTXKJbHeqFGjrC85Y9LeyS448ar/5aQpXfy0jlVr493+8tqzWPdJPVZr0+UBWp6fnWB398n1XWvRJSC0Jt8fdO/U++l/xcMJB//xcrrnRvx79uzp/wkHVAnx+p7O3nxXeLmm/On8NgwfPjwvwasOsZ9//tnLR5999pmRs7+g16TLvtrqccMNN7T73rsb6n777rtvaFPs4apwrki7yks7hHpMK9EjjzzSaD9TBW0lpP1088mgCPXKy8z58MGx8JEEBr7//nvXdvTe1YjUFE2NLrmXGz3WiHU+o93VpYEqSDma09r2sWPHWl8pXkSK+KDn0myB1Ptru6MRI0ZU6RxQYz/1OPe/OhR22GEH2ymhUXClg0uT6t7lKOq6666zAlsdA/LY/txzz9mtl7SEwN3D/677yWGYZgno+rqGPH9LWLjj+vfvb1NGU371W5MmTbzf3DG8U/6UOwOaBeScMuYzq0R+MbTTkQvy/6AyKIz00tR8/1Ihd098QZE/w+CNaxbGFUI9pkJdQGuLExf8DaHqYNcU0SeeeMKeyvZshWWM6tKY30lXGAifAVeOuXJQ7xKKpUh7VZYaYQ8iyFnTbbfdZqfAa29lvW688UZvv2L/Pe68886SPG+haeyEumYCFHoNzgs/b5HG4aSx/DYcc8wxZvTo0TYby7miOtOqS2+Nlus87bTglpOo/Vbo8sfq7qcOTXlyTxfymaZf3X34PRzOSNfKSVeEeoyFeosWLbwytHv37tUW9C7jqqB3AaFeOZnZ2Z93bF4uDGh0adddd7Wjz3pXmajR31I9nxqwLj4aEc/ntfPOO5sOHToYrVXPFjR9X2vY5eV9l112MfL4XKrnLeS+GqVXQKhTDhXCT9LP0ZIZNxtS+UAzT9yykGzPprLEP9391VdftbsxBLnVnWbEaM25OgXUAejC2WefbXeUcP8j1Mm72Vjlt2j5QKjHWKirx1NTERW0LlDrNHMptJ1DJTkw0XRGMlW0mYr0Jr1hAAYyMaD17fLcPGPGjOVe7777rrnkkktyKuczXb/U36uDQU6wtJVcqePC/cmHUTMg7hU07V27J2TadUKNb60Nv+CCC8zHH39cxffDUUcdFfj68GOPPdZor3vFy3miVzy1PEUe390MgGnTppW0MzRqe3E/yoi4M4BQj7FQFzzydq89LBXkNEgOkjKJdTkh2n///b11UdoHOO4AEj8KSRiAARiAARiAgaQzoDaY/FkoyF9EaltN/8spnLzBa5cECfTUoAGWMGYNaYZLatBSHvnFUGeCgqbcq5Mg6XYg/pQl5cQAQj3mQl2wadsMt5/u4sWLzXbbbZe2IFUB6+8pRahTWJVTYcWzwDMMwAAMwEBcGahXr5756KOPrOjVzJjUeGqtuoS4P2jP8nvvvdcK5C5duphWrVotJ/BTr5Pv//LgvmjRIntbjZwfcsgh9n6NGze2S2s0k0dBPkE0up7v9TmePAkD4TGAUE+AUFcG2GabbbyyXYW5vMBr/aZ71axZ0zojcgd9+OGHdi0lmSe8zEPakrYwAAMwAAMwAANiQI7fXNhrr72WE7ydO3d2P5sFCxbY6ebaFz2Mbdfq1Klj5Hlee6FrT3QFvXfq1KlKvPr27Wt/05LJ9u3bV/kNruEaBkrPAEI9IUJdDoXc2nOvpM/w4dNPP6WwTYhdKQRLXwhiA2wAAzAAAzBQLAPy2q4gh5FNmza17bCGDRuaQw891G576ASzHEZKSBd7v0zna1RegzX+oHbh4YcfXuWe2p5N210q3HXXXVV+y3RtviefwEC0DCDUEyLotLbpuOOOM++//76/7E37WQ7oyEjRZiTSm/SGARiAARiAgcpiQNPZNSp97bXXmtdff922yebNm2cGDRpkZzlq2aKcAfvD7Nmzc/IEny9L6hyQc7rJkyf7b2edEmtWZur1NDtTQQ7mXMdC6jH8X1k8Y+/42RuhnhChrswjY2k/9TZt2pi2bdumfe255572GDJb/DIbNsEmMAADMAADMFAeDGjJ4fTp06uI4kz/SLDLGfAee+xh/Q6pPRc0B9oKzh/mzp1rt5DUDkLp7nX88cfbw9nGtzx4TGdjvku+bRHqCRLqZLjkZzhsiA1hAAZgAAZgIPkMaKZjv379zJw5c4y8qmtKu8IPP/xgp57PmjXLPPTQQ3ZQRR7hw7Z5t27djKa4674atdfoerZ7ItSTz2A2+/JbedgXoY5Qz1qQk9HLI6NjR+wIAzAAAzAAA+EwsMoqq5gff/zRCnWNnCchnc844wwbX+0mFIZDuySkAXEMJz+QrsGlK0IdoZ6ICoVMH1ymJy1JSxiAARiAARgIjgF5U9eI+s8//2z22Wef2LeratSoYYYMGWKF+tSpUwPfEg62gmOLtKzstESoI9RjX6FQSFV2IYX9sT8MwAAMwECcGbjnnnus6JVDubXWWiv27Spt7Ttz5kwbZ03fj3PaEjfyfiUzgFBHqFNAwwAMwAAMwAAMwAAM5MCA1qY3adLEc9zbqFEj8+6771rR279//9in4UorrWQOPvhg8++//9o477vvvrGPcyULNZ69sjsqEOo5FMpkksrOJNgf+8MADMAADMAADIiB7bff3o5Gz5gxwxxxxBGme/fudtq7vKfLq3vcOVF8ly1bZkW6/my99daxj3Pc05T4UTaExQBCHaFOAQ0DMAADMAADMAADMJADAzvttJP56quvrNBdunSpmT9/vv38xhtvGI1Wh9VgD+q6EyZM8ES6vMNrRkBQ1+Y6CFYYCJYBhHoOhTLQBQsd6Ul6wgAMwAAMwAAMJJWBVq1amSlTpniCd8mSJUbfJeF5XnnlFRvvxx9/3MZXQiAJ8SaOlBeVyABCHaFOAQ0DMAADMAADMAADMJAHA3Xr1jVz5861ordPnz6xTjvFdZdddjHnnXee+eWXX2yc77jjjljHuRJFGc9MZ0QqAwj1PArl1MTjfzIUDMAADMAADMAADFQeA2pAt23b1px44ommXr16sRa9d955p906zon06dOnm+bNm8c6zuSpystT2Hx5myPUEeoU1DAAAzAAAzAAAzAAA2XKwMCBA71p+vqw7bbbYusytTVid3mxm+Q0QaiTUSmsYQAGYAAGYAAGYAAGypSB2rVrmzFjxnhife2118bWZWrrJItS4r58JwNCnYxKYQ0DMAADMAADMAADMFDGDOyzzz4I9TK2LyJ3eZFbDmmCUCfTUjHDAAzAAAzAAAzAAAyUMQObbrqpmTNnjnnvvffM6quvjq3L2NblIFB5hv/veECok1EprGEABmAABmAABmAABsqYATX4NeV9rbXWws5lbGcEbnmNrCPUyawU2DAAAzAAAzAAAzAAAzAAAzAAAzFiAKEeI2PQC1ZevWDYE3vCAAzAAAzAAAzAAAzAAAwUwgBCHaFOzxkMwAAMwAAMwAAMwAAMwAAMwECMGECox8gYhfS0cA49dDAAAzAAAzAAAzAAAzAAAzBQXgwg1BHq9JzBAAzAAAzAAAzAAAzAAAzAAAzEiAGEeoyMQS9YefWCYU/sCQMwAAMwAAMwAAMwAAMwUAgDCHWEOj1nMAADMAADMAADMAADMAADMAADMWIAoR4jYxTS08I59NDBAAzAAAzAAAzAAAzAAAzAQHkxgFBHqNNzBgMwAAMwAAMwAAMwAAMwAAMwECMGEOoxMga9YOXVC4Y9sScMwAAMwAAMwAAMwAAMwEAhDCDUEer0nMEADMAADMAADMAADMAADMAADMSIAYR6jIxRSE8L59BDBwMwAAMwAAMwAAMwAAMwAAPlxQBCHaFOzxkMwAAMwAAMwAAMwAAMwAAMwECMGECox8gY9IKVVy8Y9sSeMAADMAADMAADMAADMAADhTCAUEeo03MGAzAAAzAAAzAAAzAAAzAAAzAQIwYQ6jEyRiE9LZxDDx0MwAAMwAAMwAAMwAAMwAAMlBcDCHWEOj1nMAADMAADMAADMAADMAADMAADMWIAoR4jY9ALVl69YNgTe8IADMAADMAADMAADMAADBTCAEIdoU7PGQzAAAzAAAzAAAzAAAzAAAzAQIwYQKjHyBiF9LRwDj10MAADMAADMAADMAADMAADMFBeDCDUEer0nMEADMAADMAADMAADMAADMAADMSIAYR6jIxBL1h59YJhT+wJAzAAAzAAAzAAAzAAAzBQCAMIdYQ6PWcwAAMwAAMwAAMwAAMwAAMwAAMxYgChHiNjFNLTwjn00MEADMAADMAADMAADMAADMBAeTGAUEeo03MGAzAAAzAAAzAAAzAAAzAAAzAQIwYQ6jEyBr1g5dULhj2xJwzAAAzAAAzAAAzAAAzAQCEMINQR6vScwQAMwAAMwAAMwAAMwAAMwAAMxIgBhHqMjFFITwvn0EMHAzAAAzAAAzAAAzAAAzAAA+XFAEIdoU7PGQzAAAzAAAzAAAzAAAzAAAzAQIwYQKjHyBj0gpVXLxj2xJ4wAAMwAAMwAAMwAAMwAAOFMIBQR6jTcwYDMAADMAADMAADMAADMAADMBAjBhDqMTJGIT0tnEMPHQzAAAzAAAzAAAzAAAzAAAyUFwMIdYQ6PWcwAAMwAAMwAAMwAAMwAAMwAAMxYgChHiNj0AtWXr1g2BN7wgAMwAAMwAAMwAAMwAAMFMIAQh2hTs8ZDMAADMAADMAADMAADMAADMBAjBhAqMfIGIX0tHAOPXQwAAMwAAMwAAMwAAMwAAMwUF4MINQR6vScwQAMwAAMwAAMwAAMwAAMwAAMxIgBhHqMjEEvWHn1gmFP7AkDMAADMAADMAADMAADMFAIAwh1hDo9ZzAAAzAAAzAAAzAAAzAAAzAAAzFiAKEeI2MU0tPCOfTQwQAMwAAMwAAMwAAMwAAMwEB5MYBQR6jTcwYDMAADMAADMAADMAADMAADMBAjBhDqMTIGvWDl1QuGPbEnDMAADMAADMAADMAADMBAIQwg1BHq9JzBAAzAAAzAAAzAAAzAAAzAAAzEiAGEeoyMUUhPC+fQQwcDMAADMAADMAADMAADMAAD5cUAQh2hTs8ZDMAADMAADMAADMAADMAADMBAjBhAqMfIGPSClVcvGPbEnjAAAzAAAzAAAzAAAzAAA4UwgFBHqNNzBgMwAAMwAAMwAAMwAAMwAAMwECMGEOoxMkYhPS2cQw8dDMAADMAADMAADMAADMAADJQXAwh1hDo9ZzAAAzAAAzAAAxExsNNOO5lRo0aZp59+2owcOdK0atWKtI8o7REx5SVisCf2LHcGEOpUDjQQYAAGYAAGYAAGImLg+eefN/7wxhtvkPYRpX25N+p5PoQrDJQXAwh1KgcaCDAAAzAAAzAAAxExcNhhh5nRo0ebTz75xOr1Dz74gLSPKO1TRUzNmjXNnnvuaTp16mRkl0wv/b7ffvuZddddF1uVyFaptuP/8hKk2DO9PRHqFDhUOjAAAzAAAzAAAxEz0L9/f4R6xGmeKga6detm/vrrL/8Eh6yf77//fvJJiW2WakP+Ty/wSJfySBeEOgUOlQ4MwAAMwAAMwEDEDCDUS9+QPumkk8ySJUusWF+2bJnJ9Pr777+tgP/jjz/MW2+9ZSZOnGh0LmKo9DbEBtignBlAqEdcMZczTDwbhSUMwAAMwAAM5MYAQj23dAqbp1q1apnVVlst40v3792793Ij7RLvffv2Neutt55RYzrseHL9ePCCHbBDlAwg1BHqVC4wAAMwAAMwAAMRM4BQT06Df8MNNzRXX321GTJkiLn11lvtqLpT7h999JHZeuutyT8R558oxRL3Sk5eLTdbIdQpWKhcYsRA27ZtzX333Wfuuece6+Cm3AocnofKDgZgAAb+nwGEenLzQtOmTe32ek6sP/vss2yzF6O2FGVMcvMWtqtqO4Q6BctyQl3TwOTZNNtrrbXWKoupXiuvvLKpX79+1mdNlw5169YN/Plr1KhhZs6c6ep9M2vWrOVsQwFWtQAjPUgPGICBpDKAUE82u+uvv7759ddfvTpb9XdSWSTeyWYR+5Wv/RDqCPUqFctGG21kJkyY4FU8mT5899135swzzzQSl0ktICTQb7/9drN06dJMj5nx+/nz55vTTjst8Gc/9dRTvS17vv/++8Cvn1RbEe/yrYSwLbatVAYQ6slmXw3o008/3Xz22We2rbBw4ULTvn17U7t2bepu2tYwAAOBMIBQB6QqIO24445m3rx5GQWq/4dFixaZESNGmPPPP99oGliSGlsaEdc2K8WEO+64I5RnPu+882y0EOrJbsQlKT8QV1iDgegZQKhHn+ZhcN65c2fz559/2npbHuQff/xxK9jDuBfXLA9msCN2zJUBhDpCvYrY1Aj5NttsY9dHt2nTxqR7tWvXzkyZMqWKxn344YerXCdXAEt1nEbDXRg8eLBdW5buWTN917p1aztdPoz4I9QpwMPgimvCFQzEiwGEerzsUWj+0HLBE044wcyePds1K8zcuXPNKquskqh2UaHPz3nlwTF2jKcdEeoI9YIqkoYNG5qHHnrIW5+l3mTtK3rkkUea5s2bmwYNGpgVV1yxoGtHUVhcccUVtkL9/PPPzUorrRSreCLU41lYRsEl98D2MFA5DCDUy8vWEuw33HCDbVtov/WaNWvGqm1B2VJevGHPyrAnQh2hXlRFcskll3g9yP4PX3zxhZEH87gWJE6of/rpp7GLI0K9MgrfuOYN4gV/MBANAwj1aNI5Sp6POOIIhDrt6ti1K6PMA9wr2HINoU6BUlSBss4669hRdDmWe+mll8y///7r6fVBgwYF7hk9qAIAoR5sQRKUXbgOdoEBGKgUBhDq5cc6Qr38bFop5RHPGU92EeoI9aKEuj9ja8u2TTbZxHz99ddWrGs6vNa7+4+Jy2eEejwLpLjwQTzgAwZgIGwG7rzzTltXfvDBB7GsJ8N+/nK8PkKdcqMcueaZSsc1Qh2hHngDQR5QXdhpp50Cv34QBYYT6pqiv/rqq8cqjkx9L12BGARbXAP7wQAMVMfA1ltvbeQjRWHo0KGxqoOqizu/Z+Zb27UpsEY9cxrBD2kDA7kzgFBHqAfSQNDI+UUXXWT69Olj3HQ+VVZxFeqnnHKK+e+//8w///xjHn30UaO19n379jUnnniiWXvttQNJk0ILIoR67gVYoWnMeaQxDMBAKRnYb7/9rKDTcjE5YC1lXLh3MHlh1113NXPmzLF21Tte34NJV/gkHSuZAYQ6Qr3oBoI8m06fPt1WTql/4irUa9eubUaNGpUaXft/9+7di06TYgoVhDqVUjH8cC78wED8GTjwwANtffP333+bOnXqlLTOgZdgeNHONwrff/+92X///bEp7WsYgIGiGUColxFEW2yxhdF+5hdccEHRYFRXca+66qrmuuuuMz/88INZuHChrZz0Z968ebZH+auvvjLPPPOMWX/99UOPS3VxzfS7xPrtt99uNP1dvd9aU68wadKkksYboR5MoymT3fme9IUBGCg1A24tM0K9PFjU6LnaQwqaoVdqvrh/eXCFHbEjQr1MhHq9evXM888/byuJGTNmhFpJbLDBBqZr165VPLzrxprCt9dee4V67zALrTFjxtj005+TTjqpZM+BUKdgDpNzrg1fMFBaBuR09a233rL1zYIFC2LnJwU+8uNjjTXWMDfeeKNdTiejqn1EGuaXhqQX6QUD6RmInVBfbbXVbCEn5ypDhgzhlUMa3HHHHebpp5/2KomgRGaNGjXM4YcfbnR9Zw+9T5482buXKqWrr77anHHGGUYjBKqwkprZtM7ebS/3ySefmEceecQMHjzYMqjnVi9548aNQ38+hHr6wiqpXBFv7AkDMOBnQH5RFH799Vdz6qmnhl6n+O/N52BZbNOmjRk/frxZtmyZteno0aONtq0lnYNNZ9KT9KxUBmIn1A844ADz+++/2wKPP/mngMSlBHaxQAsMOYZbunRp2kjICZsqpqlTp5Z0mnixz+k/f+WVV7aO5eRkTq90Ydq0aWa33XYrOn399039jFCnQkplgv9hAgbKhwEtDVMYMGBAqHUJzITLTK1atYw69V0YO3asqV+/PjYtk5mq5J9w8w/pm1v6xk6oN23a1I5kyjnZlClTeOWYBhKQDzzwgGnYsGFRlYTE6pZbbmluvfVWT6x++umn5o033rC2ePPNN824ceOMPNauuOKK9lVOmU1r79u2bWsuv/xy88ILLxg9rzjUu1uLr6mKxx57rFlppZWKSutM6YZQz63wypR+fE/6wQAMxJkBJ9S1U0qc40ncsuejE044wWl0c80115Rdewj7Z7c/6UP6RMFA7IR6FA/NPZbPXGuuuaY57rjjzC233GK+/fZbr/KRWN1www1pTKywgjnssMPM7NmzbdpoNsGdd95punXrZnbYYYdA0wehvjyf5FnSBAZgoFwYQKgnm2U5jttnn33MN998Y9sD2jNdU+DLhU+eI9l8Yr/ysh9CnSk6tnK57LLLPHGuD7/88ovdD71Ro0ZUPj5Gtt12W+sV3p9Ys2bNMpoCF1ThiFAvr0I2KC64DlzAQHkwgFBPth0PPvhg89tvv3nNgHvuuSew+p88nmw2sB/2C5oBhLpPhAWduEm43nrrrWedxS1ZssRWOlqTLudxWoIgOJLwDFHHUR727777bvPzzz/bNAt6ex2EOgV91ExzP5iDgegYQKhHl9ZBc73WWmuZCROzMhDyAAAgAElEQVQm2Lpf7SbNsmPP9OTaM2g+uB4sBM0AQr0ChbqMrpFheXR/8cUXvV5hfbjvvvsQ5zkyceCBB9q0k6f4jh07Gu1YEEQGRahT0AfBEdeAo6QxoJlJe++9t62bOnXqZDK9VHfJT0pSHXch1JOXN+W/Z+edd7a7v7hGk/hMWh4jvsljD5tVts0Q6jmKsnLKKFpT/cUXX7i6xnrZ11Z4Z599tnUkV07PGuazOKGuhNSo+rnnnhtIpY1Qr+xCOUxmuTZsxZmBCy64wJalXuVUzYd77703kDI36jRBqCcvH2q6+6JFizwiX3rpJbP22msnkr+oeed+yeMdm8XHZgj1ChTq2u/cBe3jevHFFweypVulZexNN93UvP322y4pzbBhwwKptBHqVQvIli1bmpEjRxrtbPDWW2/Zd+08EKbnfceynAZ1797dev1391ccMr10zPPPP29H+9w1eK9qT9KD9PAzoPz93HPP2a0+nRDSLCU57Mz20jFapuW/VlI+I9STlweuuOIKr67XsrdDDz00kewlJY8Qz+TlEWwWjs0Q6hUm1GXw/v372wpHzlC03krfkcEKy2CbbbaZ+eyzz2x6alZCEOmIUF/Bbn230047mYcfftg21r0WUsqHp59+2my//faBpHs622mJiGZL5Bs++OCD0OKULp58V1j+Jd1Kn26vvvrqctnrwQcftPlHU+GzvcLaIjNMLrbbbjtvq8+ePXtSTiSgDaZlbY888ojl9OOPP7ZtJm1PGyYnXLv0ZRM2wAZxYAChnoBKIkhQOnToYJzjOG0vFuS1K+1aNWvWNHfddZetvBcvXmzXqQeRBgj1FczJJ59s5NjQhQ8//NAMHjzY3H777ea2226zvhX+++8/+/P3339vtB/xBhtsEDjP6ixwQf4bdG+N4qV7aWtDjbQrfPrpp4HHJQi2uEblNTzWWWcdo3JfjkPjZH+t+W3durWZN2+ezTPvvPOOGThwoBk0aJDRKHuc4hpUXOrUqWOeeuop+7waVdea56CuzXXCy9unnXaa+eeff6zdevfujc0qrN1M3govb5G21actQr3CCpxnn33WVjbvv/++adKkCRVOgfZv0KCBGTFihF3frwSVSAuqwKl0od6iRQvz5ZdfWk7nzp1rLrzwQrsLgT9969ata8455xzjppBKtL/22mu2syTIGSJ+ob7RRhtVa2M3PRKhXn3l47cnn8NJrw033NA89thj5q+//rKdTHFK5z322MMsWLDA5nP90UyvOMUvjLho2ZlsodCrV6+yf94w0jDqax5yyCFGncEKEydONLVr18ZuBbaborYd9wunXiFdo01XhHqFFTjXXXedFTcHHHAAlc3/bK8Rp6FDh9p0kUCUo73qXq7iVuX98ssvmzXWWCOw9EwV6s2aNTNPPPGE+frrr6uNl4u3nkPbxvTt2zdR/gfUCHryySdto2jhwoXVTmvffPPNzUMPPeQ1fjVbRCNzp556atH2aNu2rZk5c6aNi/4g1KOtnGgMFJfeGr1V3lBQR5ZmnRSaplpeIsdtKpsKvUbqeccff7yXt1RuHXTQQQVfe5tttjEvvPCCLcNdGZjtXeXjo48+ajbZZJOC75n6PLn878r2H374wWhGQS7ncExx+aCY9NOMj++++85yKmbkiLeY63Fu6WxJ2pP2SWUAoV5hQj2poBYSbzWENDqrTgntc5rutddeexl1XhQS5PioX79+gYp0PadG5xXmz59vdtllF3P//fcXEj3vnPXXXz9r40KzA+QYLw7rPbt16+bFW59ztfvRRx9t3nvvPe9cNa622mqrnM9Pdx+N0LugafgNGzas9nqMqFdmY0CiWCPEKmv22WefnJdhrLrqqma33Xaz5+ncdu3aGc0WScdjvt9JXLtw/fXXF3xNlaEfffSRvZRmuOQbj0zHO6Euh6aFitZ69eqZ3Xff3biZYu55c30PaqeOTM+Y+r0T6uroTf0t3f/yIaM17UExke4e6b7TMgktl3B1pwSqHGumO7acv3NL27Q8o02bNhX3/OVsW56tMuvqJNodoY5QL9vK57DDDjPyzpprkIfhyy67zO6Teskll2R9v/TSS+1+v0Fn+q233tr8+OOPNspyYubWxekLjcJoumR1cdMxmiHggvYbzhRPjWBrJEqj7xqdznRcFN9LWOgZFTSqLvGTz301zVc7GKiDQ6GY5QhKCzetXmtKxVJ1DdUaNWoYrWNXYOp75TQC5Bvh7rvvruJ0ULsS5LIE48wzzzR//PGHZcb9CcopZb7LNtLlNTH/yiuvuKjZPJHuuEK+C0Koy9mkP8yZM8culclWRqqMUOeAQpAzBHJJg3yEurjSbheqw1Tf5HL9II5ROTZ27Fh/slrnd9nqkSDuG8drjBo1yqbDhAkTIkv/OKYDcaqc+gxbx8/WCHWEetlWQJpK6bb7keDN9lJt/Mwzz+TUuA6zILv55purNJA0ZdWJ9Xy2ImratKmRd1qFzz//3I46pYu3Rttd0DS/dMdE8Z286rrGoQSyZhIUel85SXTPXahH+C5dupg///zTNlA1yplLXDS12K0/dV6rczmPY+JVMR544IFWGNWvX79au6szSb4qXNCWYQrVjRKL9x49engdU8rn7lzN3tAsHy3JKYaNIIS6ns+/64HyZjFx8p/rhLrKt9dff906iDz99NPzmtnjhJTSTq+rrroqp/i5pUtRCnUJXe0GoVDdiLr253ZexnW8ntOfdmF+9tvcMak4RJlWYT5fPtd2fCHU41VG52NDjsV2SWcAoY5Qj6wBEHVmEdwaMdb68Vxe1Y2Yhh1/TYN1DUg1jNRA1ui4GvWKv0Y68omDpi06Z03axqxx48Z2Tabu464TF6F+wQUX6JHtWtrzzz/fi5+LZz7vmsYvL/wKWpqQz7nuWLeF4axZs+wWhu77dO/rrruu9VKtNfUK2kddDe10x/JdvBsNKgO++eYba8dc9kk+8sgjvY40sSahqSCxrfyWbjmJ8rPWe/uDlrfIm7Q/HHPMMUUxFHehfvjhh/sf135W55jyU675RGWiv2zPdQq9K2ejEp/iSj5GXND6+UzPqLLj8ccfd4fa9+HDh2c8PtN1qvt+zTXXNM2bN7fLnrSDiTveL9RlIy13UIgqrVw84vCOUI93eR0HRogDjITNAEIdoe5V0GHDxvWzF2hqLPmnwVY36pJLemqWgD/o+tdee61n8zgIdTUW3V70mjLs70jI5RnTHePW+WsqvYR7umOyfXfrrbfaZJs+fXrWc7V+VDso+IPWKGe7Nr9lzwelTB9/HpSH7kxx0R7KGr11W13K/hJjmonhgvJvOrHv/BhoJFnLTrTtoNapa+mGZtS4UUyNOGe6fy7fx12oa8aCnF3ec889djaTS7dWrVoV9dzVpY18TbhOtajEp58rLSXIxJY6Kfwj6UoTzdgoZoZRuvTYYostjMpasabOEW2J547zC3XNAtCMLIWo0srFIw7vCPX4ltVx4IM4wEcUDCDUEepeBR0FcNwjc8Hmb8ypYaQGXbHplSrUdV2to3bXjYNQP+GEE2xD8LfffjPbbrutFzcXx0Le5UjOrVW/4YYb8rrm3nvv7YnvbEJdDpa0XY8/yL9AodPtC3lOzsmcnwpJG38ezCSmdN3jjjuuSqeaOms0mqv9v91orbjQVOdhw4bZEXSNomtk1HGpWS6pWz3pGm79dLkLdb99/D4h5LhO6aTnD6LTzn8feXl/7rnnbJbVMhXNiPD/Htbn6riSU9Pbb7/dLgFwS51cuRL07Bwti5oyZYq7vH0fM2aMlw5+oa6OJkbUjWHqe7DlbFj5jOtip3JkAKGOUPcq6HIEPEnP5G/MqeGvUY9C46/ptRqtkvj1B01l1G/uulEIdXnbl4OsdM7qNArptmPTFnT638WtmHcVbDfeeKN99J9++iknj+26n7wdy8OvC9OmTfPio1HUs846y4r4Tz75xBNcOla+EDQzQKOiuU6/Leb5ODecBok/D2YS6ptttpm31njq1KnWK7ebrq2p7vqcOsvC8eR/949iOnv6hbpmg6gjSCLO/Z7Pe7Ej6npO5zfCxTvINeqpz3LiiSd6nRS6n2YraDRXcSh2RLlWrVqmZ8+eXt6WTwDNLIoqr2bjSp0+KqNc0KwnlTsuBC3UXbmo9O3evbtp0qRJFa/y6jxyM0U0XV8j7gqMqIdT5qTmA/4nnWEABvwMINQR6gU1Av0Q8bn4QkUNfDWsnTOyYtenamQvXdA9/PaKQqg7B0pqKPvvrc/ybOw6E0466aTlftcxShuNhDkxlHqNTP8rDdx6Y3mBznSc/3vtle7C22+/bY499lh7nuKgkfbff//d/WzfZS9tC6c19v7r8Ln4PFGKNMwmqBQfjfBqyruCBFUmEX3IIYfYGTEvv/yySX1NmjTJbiem7dxSn1GcaQcGf5DPg9Tjcvm/WKE+cOBAfzTs5zCFup5JnSOaSZS6W4cEe65OHf1pIyGudJ48ebL3LJr1ouUH/uPC/pyJK3VOOH8aSluxonJSZY0LQQt1N51bnUDpnlsdkldeeeVyNqhkoa66QEsmlDbp0ozvklneYzfslgQGEOoIdSqeGDCgkW5/4zTTaF6uhYo8uCto5Eje4l0ohVBXA1RBXtFT43/aaafZ3ySotTVd6u/6v23btla8vPjii7YzI90x6b5T4ebWe8qrdOo043Tn+IW6P60UTzkIc0HbJkmwaURKo/DprsV3yWsEZBJUzpZu+z1xoHXO7vsg3yVINRtGHUAKhU67LVaoa8q+grY8Gz9+vP0ctlBXOqqzQtshyvO99n93SwkUj0wdI+nSX6JKzv2cQ03lX62H177rKhvSnRPWd+m4Useki5s6M/3ljfZ3dyEsoV4dV27k3cWjkoW60kD8bbnllpFyExaPXDd5dRM2q1ybIdRjINLIgJWbAZ3tnfMy1ygKUqg/9thj7rJVGoO6dxQj6tmEusS3gvZD1vRUlx7+93333ddz/iRvyZ06dUp7nP8c91kj4pq6qVF7jXK67zO9ZxLqZ5xxhjfbQXHQtOBM1+D75ObndILK2dM/LV3Mao25+y2MdzfyWZ2gynTvoIS61nR369bN5tMohHrq88ih2bfffmvvn22rydTz5NjPrff/9NNPbbnhX/aTenyY//u5UieEyjDXMaudJeTvwt1fS4XcVPh3333XrL766t5v7phi3nPlStsUutF+JX4lCnV1pixbtsyypz8aWZcTPjmB9L9Uj8lTf4cOHQK1VTF25tzk1kPYDtv5GUCoI9SpWGLAQFhC3Wth/O/DjjvuWMXepRTqErtah6twzjnnVImXv5DS56OOOsobWdP6SU1lz6UBK/H/4Ycf2nu89dZb1XqAzyTUNcqnkS3tba3toKIekUtND/4PpyL3C6rUzrIGDRp4a3fPPvvsrLwGYR8nqN54442CnKr5hXoha7zdiHpQQl0j3Mo/cmbWrFmznF46VumupSVuRos6HrOlr+6jWS4aAVWYMWOG9R+R7Zywf/NzJV8crtxT2aSdI/z3d9P05Qcjtbz2H1foZ8dVLh1AF198sbcLgZYkKD5K23y3Ci00rqU+T+W81vD/8ssvlqXq/sycObOKLUsdf+4fTj1BupKuUTKAUI+BSIvS4NwrngVM2EL9u+++M3369FluT/BSCvULL7zQtns0Qp3aWE3HqcSGnHe5ICd0GvWpTrDLs7ObYqo1oJlG7nXPTEI9XXz4Lp55qRi7+AWVX6jvueee3jZV4q9Yj+y5xNEJKt3vnXfeqbaTKfWafqEuZ4dyhJh6TKb/1TBwe3kHIdQldnr06OE54XN5uJB37WSRKd7qUNMuEl9++aV3aS1byXR8VN/7uXIRk8PBdEJco/8KYa2jd1zlItSVPm7pgYu3ytKuXbuWPE2jsp06fk455RTz6KOPmgcffDDjS7PC5Bgwqnhxn/Krf7ApNk3HAEIdoU7FEgMG/EJdvfdt2rQpyi5ujbprXF1zzTVpr1cqoa6Gq9smSe/pCqd03zVq1Mg2lNxe05raqoa79qKWZ/nUl/ve39jMtuYToV7ZFaVfUPmFutY2u6BlFO3bt8+Z2XQc5/Kd1im7rbo0TbpFixZ53XPjjTeu4pjuzTffrOLdO10c5DBL6+Ml0t0o4m233WanPev58536Lud7mi3jHEq6NCzmXWun08Vd3/mds+kecv54wAEHZDw+03WC/t7PleKltM1kz7gLdcVfHUfqfAk6nbheZZe/2B/7w8DyDCDUYyDSAHN5MCstTZxQ13pFbfFV7DZlcrrkgkYDMzlS8wv1fBw15WOfdGvU1ZHgpn9WN+099V56FjXIlVZylpdvyFWoy1u0pnjqfmG+gt4rOjW9+D/38sUvqJxQ117Sbouqzz77zEgAR2EzzfyQ86rtt9/e7nqQ73RjVe5i3XWIKZ9o2rg6u3TtVKY1Gn333XdXyU6vvvqqnbHSq1cv+32+Ql1lj5vNojQcPXq0Ud7faqutzLbbbpv3a5tttjFrrrlmWoGoJSmurNF0d91n0003jcRW1eUxceVf762Ow0znxEmoa8aS2+miX79+dg3233//bVnQjKiotrfLlFZ8n3vZRlqRVjCQTAYQ6gj1jA0GMnV0mdoJ9enTpxdtD02/0xZELkiMZ7KlX6jPnz8/FIdBrvHs9/reu3dvGz3ds1Cv6XIMJZGvtZMaLdTazmwvrVEfMGBA1k4Q/4i6GqTafi3Ml0ZMP/74Y9OxY8eMNspkO74PPn/6hbpzWiixqjBv3jzrRTxp6a4OJ61zd6Pz2bh2HV8awR8xYoRdH67nVd5VyFeoa9RVU4a1F3qrVq1CZVydEi7IIVvc7KSp/yqDtHxHHR+Z4hcXoa6lRq7sVpzcDABN8XZB+6yr0zTTs/B98GUUaUqawkBlMYBQR6hTycaAAbcdj9ZdF1sIazTJH3IV6jpHU1Tzub9Etrypa+Qq03museeEev369Y22S1O4//77M56X6Xphfi9nV66h7E/DsD9feumlsUqHMNM4ztf2C3V551YHigtOuMc5/pniptF4bXUmR4y5hP79+1fhsVChnik+YXzvF+r77LNPlfiHcb+wrunKH3kSV72gNfcql4K6X65r1J0PEU3T9+9hv9tuu1WZHZDLkoqg4s51KkugYG/sDQMrWOfFjRs3NnqtINVOopAxYCB6BjSdU+te5eW42PSXkyJ/yEeoa823PKpX1zDcddddjfYSnzZtmt2+5rXXXssY71ShrnNd0NZLxT5vkOerDNSUXIm0gw8+OPSXOjmUBuuuu26s0iHINE3StfxCXVPe5f9AQaJJHUxJepbUuMrpoqai67kysS0eNRqdWmYg1KOrE2bPnu2KR/uuGT1TpkwxY8aMsTMTtC2gfAho+zk5Oku1c3X/O6Gu2UzyQK/ZDqkvff/RRx/Z+6fOotCyLI22yzmpti6TkI/jDIbq0oHfo2OatCatYaBwBhhRj8FoKgAXDjBpt3zaac9vNcJcSG10+9NMjqPSBTXUtH2anEtpzbx7aQRdXtTlRd4FTaUdPnx4xgajE+qa7q57Dxo0yJ6qhmCh0979z8Dn5RkgTQpLE79Qf+SRR7z11W42SKWmq7bpUkgVbXFKD/+IeufOnW1nY926dfPeSlHr99VxWogIDiI9NIqufeOV1v517a68de+aHSH/Bdq+Tv4Gcr330KFD3SVyetfe9emuLcH+zTff2Gtkclaa7jy+K6xsIt1INxioTAYQ6gj1tJUwBUKyCwS/1/dMQl1rC52TLG1bdu+99xpt2eO+q64Vp8bkQw89ZI455pisjdpUoa7zFK699lrYo/yJFQN+oe7413KQXLYPLNcyUyPxWmeukM8ODVGnh1+oO9upM1CzB3KNizontRxHy4fCcq6Za1x0nKaZK+21JEqdp3IGOGnSJPd49l1+BeRHQYI9l2tL3OsZNUKva2Z76ZiTTjop43Vd2a5R/wceeADnclnKc3X8yAdKJmeIudiOY5LdLsN+2K8QBhDqWQrWQhKUc8iIcWAgm1BXg2Hvvfe2XtPV0nv33XdtA0LxllCRgF66dGmVxmDqP5qeqWm0uTyra8xdcMEFds2vGpYaDUryOtJcnptjklcWpAp1LQXRUo1KtqU8tDvnlFHsH19oWsu5pBy1pQaN+mrbxptvvtkMHDgw7euWW24xt99+e5Xt7E4++eRY2l2dCV988UWVx5Rn/ebNm0ceX3XUuqCZVXXq1Ik8DoXyEvV52ilCDhrPPPNM0oh2NwzAQM4MINSBJWdYoq7YuF/hQkcjMS7IM7q2XlJDQRl+66239rZG0zFah+tPazV4tU67ZcuWdi2i1iP6X/o+nz10nVDXlE6ta1eYOHGi3TrKf18+F25v0i6YtJNQd/uHi9Ns22hVSpqfcsopNs8uWrTILoWJ83Nr6zl1rMhDubYW03Z6+QbZ//zzz7db2MXxWdXR2qxZM/ucKpf1vBLppdgqTbMt1AGrgFDPXgap7tV2ixpVjyNXxCm7/Ugf0qdUDCDUEepUGmXIgJzByQGWwr///mv3wtV+uHrJAZALGk0/6qijQmXACfVu3bp5ezoPGzYs1HuWqkDlvsmvzLUe/b333rMzTS677LKK5lTe4sePH2+LiwcffDAWe5Lnk8ck2MeNG2ft+c4775hsr5kzZ9pOS00Nz+celX6sOkQUEOrJL/sqnWWeH4bjyABCvQxFWhxBI07RF4AaOZc39kxB0yU32GCD0BulCPXobU9+I82DYEBOyn777TdbhMR1KngQz8k1Cs8vCPXC0w7uSDsYgIHqGECoI9RDF2rVQcjv4RVUmqJ+xBFH2FFzjZy7lxzA7b777pFMl0Soh2df8g5pGyYDWnOskVIFCbIw78W1k8kyQj2ZdiO/YTcYSAYDCHWEOo0vGAiVAYR6MioDKm3slMoAQh0mUplI/V9b4Skw9R1WUtngf5iAgeIZQKgj0kIVaWTS4jNp0tMQoQ4DSWe4UuOvfcgZUSf/ZuL/0ksv9ZZGINThJBMnfA8bMFA4A1WEuiplXqQBDMBAkAxoeySF3r17ew7u7rvvPuv1Pcj7cC24hYFgGbj44ott3tWfQw45hPYBbSRTr149c8ABB5ibbrrJE+niY86cOdbnCXkw2DxIepKeMAADjRs3Nnqt4D7w/v8JQjqQDjBQPAPfffedbez37dvXvPzyy/bzww8/bAsd0rf49CUNScMwGDjssMPMTz/9ZPPrc889Z7bYYgvy7P8aS2Gkd1Ku2a5dOzN//nzLhf5oT/ezzjrLtGnTBj7gAwZgAAZCZAChHmLiJqUSJp40+oNmAKEOU0EzxfXCZWqbbbYxEydOtGJM+feggw6i8UX7wDJw9NFHVxHp6oAlP4abH0lf0hcGYEAMINSpiKlwYSBwBpxQv+aaa8yrr75qG3nak5mKh4oHBuLJwHXXXeeJMYRYPG1UirzTqlUrM3XqVMvGkiVLTMuWLSnHaTPAAAzAQEQMINQjSuhSVLDck8ZWqRhwQn3UqFHm/ffft428G2+8kYKd8gYGYsiAxNe3335r8+mECRPMJptsgp1iaKdSlOfqYFX4448/zFVXXWW0/Wcp4sE9ac/AAAxUIgMIdSpjKl0YCJwBJ9QnT55s9Hnp0qXmlFNOCfw+lVho88w0VoJmYM8997RiTH/kQC7o63O95DG73XbbmWHDhpk///zTsjF69Gi4oK0AAzAAAxEzgFCPOMFpsCSvwYLN8reZE+oLFy40f/31lxXrmkJJWuaflqQZaRY2A36h3qFDB/Ip7QLTtWtXr/NGH+644w64gAsYgAEYiJgBhHrECR52g4vr06iPAwNOqLuW3vTp0yncKWtgIKYMINSpN1LrDXl1V/j333/NLbfcYuT5PfUY/ocbGIABGAiXAYR6TBtOgB8u+KRvuOmbKtRHjBhBI4+yBgZiyEDbtm3Ns88+6/rUDCPq4ZaNSal7nFBftmyZ2Xzzzcm7Mcy7SWGJeFKmwEDhDCDUKXypgGEgcAZShXq3bt0CvwcFf+EFP2lH2jkGxowZ44l0fUCow4bY6NGjh+UCoQ4PrqzgHRZgIHoGEOqINAQUDATOwP+19ybAUhXtmq43ouP07b59Ojo6uuOeuCe67888CzigIAgoiCiIMqo4gYgooqj8gKIIAgpOiICiiKLIoCCoODE4ICgqg8dZRBFFEQdUUEFF/Dre7D+r1y5qWFW1au9VVU9G1K7aVWvlyuFZufLN/PLLoFD/888/TbN2NPDV38BT5pR5NgbWrVvnBNnOnTttypQp1qRJE+7VCn8mdOrUyd59913Hxa5du6x+/fowUeFMZGtH+J1nDQwUhwGEOo0vD2AYiJyBZKFO5784DTgPRsq1UAa8UF+6dGnk7UChaeP8muF7xYoVTqTv3bvXrrrqKrigjwADMAADNcQAQr2GCp4OSM10QCj36in3oFBXZ69x48Y08rQ1MBAjBnRP3nbbbW7rRKkyhHr1tI2l8Az69ttvnVC/6667uGdjdM+WAjukkXYEBqJlAKFOI8yDGAYiZyAo1F977TWrV69e5NfgYRDtw4DyLN3yPO6446x3797WuXPn0GbKffr0cWLM/5k/fz73KM8Cx4AX6uPGjYMJmIABGICBGmQAoV6DhU/HuHQ7xtRd5roLCvVZs2bRyNPOwECRGJDzty1btji9LesVOQEL0z6dd955XqPb7Nmz7eSTTw51Xpi4OSZz+xj38kGol3b9xZ0v0gdfMBCeAYR6kTpPQBgeQsqq/MoqKNSHDBmCAKCdgYEiMXDKKafYjh07EqL7wQcfzFrWtWvXNh2n8N1331mzZs2ynkM7XX7tdLo6RahXTl2nY4DvYQAG4sEAQr1InScAjwfg1EPN1IMX6nv27GGmjjYGEVhEBiS6GzVqZB9++KET3mGEevfu3W3fvn3u+KlTp1I/RayfUnwGIdRr5rlZiqyQZliBgeIygFDnAU0nDdLG4rsAACAASURBVAYiZ8AL9c2bN9sxxxwTefw8GIr7YKB8S69833nnHSe8V69ebccee2zae65Fixa2ceNGd+wHH3xg7dq1S3ssHJQeB1HUGUK9Mus9CnaIA3ZgIFoGEOqINDppMBA5A16oP/bYYziSg6/I+aIjcGhHwAt1KfCPPvrIWrZseUi567slS5Y4kb5//34bPnz4IcdQtoeWbaWVCUIdBiqNefIL83FlAKFOJ5qOGgxEzoAX6tr+Ka6NH+niwVxODNx000124MABJ8L1p02bNol7r2/fvrZy5Ur75JNPEsc89NBDVqtWrcQx5VQW5KWwexuhXlj5wR/lBwMwEBUDCHVEGh01GIicAS/UJ0+eHHncUTV+xMODtNwY0BZtPgwYMMA6depkI0eOtO+//95/bQcPHrSFCxdi6UK7n7ZtRqjTNpZb20h+YLpUGUCo87BO+7AuVahJd803yAj1mq8D7oPKqwM5iUsXPv/8c5s3b55NnDjRGjduTLvPsz8tAwj1yms7eF5Q5zAQTwYQ6jys0z6suWnjedOWQr0g1GGnFDgttzS2bt3arU9PFuvaZ71nz5609TzvQzHghfqGDRvsvPPOC3VOud1L5IdnGAzAQBwYQKjz4OYhDAORM7B161anFbRuNg4NHWnggVsJDGjNuRzGyZN727Zt3UufUzmWq4TyII/53ffbt29PjPXs3LnT6tevTztOPwEGYAAGaoABhHoNFDqdh/w6D5Rb6ZTb0KFD7amnnmIPddoXHuwwAAMlxsCwYcNszZo17iU/IzgdLJ1nL/0k6goGyosBhHqJPUC5AcvrBqQ+qU8YgAEYgAEYgAEYgAEYgIFkBhDqCHVmO2AABmAABmAABmAABmAABmAABmLEAEI9RpWRPIrC/4yswQAMwAAMwAAMwAAMwAAMwEDlMYBQR6gzcgYDMAADMAADMAADMAADMAADMBAjBhDqMaoMRsoqb6SMOqfOYQAGYAAGYAAGYAAGYAAGkhlAqCPUGTmDARiAARiAARiAARiAARiAARiIEQMI9RhVRvIoCv8zsgYDMAADMAADMAADMAADMAADlccAQh2hzsgZDMAADMAADMAADMAADMAADMBAjBhAqMeoMhgpq7yRMuqcOocBGIABGIABGIABGIABGEhmAKGOUGfkDAZgAAZgAAZgAAZgAAZgAAZgIEYMINRjVBnJoyj8z8gaDMAADMAADMAADMAADMAADFQeAwh1hDojZzAAAzAAAzAAAzAAAzAAAzAAAzFiAKEeo8pgpKzyRsqoc+ocBmAABmAABmAABmAABmAgmQGEOkKdkTMYgAEYgAEYgAEYgAEYgAEYgIEYMYBQj1FlJI+i8D8jazAAAzAAAzAAAzAAAzAAAzBQeQwg1BHqjJzBAAzAAAzAAAzAAAzAAAzAAAzEiAGEeowqg5Gyyhspo86pcxiAARiAARiAARiAARiAgWQGEOoIdUbOYAAGYAAGYAAGYAAGYAAGYAAGYsQAQj1GlZE8isL/jKzBAAzAAAzAAAzAAAzAAAzAQOUxgFBHqDNyBgMwAAMwAAMwAAMwAAMwAAMwECMGEOoxqgxGyipvpIw6p85hIHoG6tata61bt7b69evT4eAZBwMwAAMwAAMwUJIMINQBtyTBRdxEL24oU8q0XBgYM2aM7dixw6699lraN55xMAADMAADMAADJckAQh1wSxLcchEU5ANxDAPRMtCuXTvbunWrKSxdupT2jWccDMAADMAADMBASTKAUAfckgQXcROtuKE8Kc9yYKBly5a2atUqJ9IPHDhg11xzDe0bzzgYgAEYgAEYgIGSZAChDrglCW45iArygDiGgWgZ6NevnxPp+nPLLbfQtvF8gwEYgAEYgAEYKFkGEOrAW7LwInKiFTmUJ+VZ6gz0798/IdRbtGhB28bzDQZgAAZgAAZgoGQZQKgDb8nCW+qigvQjjGEgWgZuuOEGhDrPNJ5pMAADMAADMFAWDCDUAbksQEbwRCt4KE/Ks9QYaNasme3evdsJ9d9++82aN29O28bzDQZgAAZgAAZgoGQZQKgDb8nCW2pCgvQifmGgeAx07949MZs+ffp02jWebTAAAzAAAzAAAyXNAEIdgEsaYIRP8YQPZUvZlgoD7du3t02bNjmh/tNPP5lEe6mknXRyn8EADMAADMAADKRiAKGOUKdDCwMwAAMlzcC9997rRPq+ffvYkg2WS5rlVB01vqMDDwMwAAOVyQBCnU4NnRoYgAEYKFkGGjRoYC+//LIT6mvWrCnZfNAJq8xOGPVOvcMADMAADKRjAKFOB52OLQzAAAyULAMXXXSR7d+/3wn1sWPHlmw+0j2k+Z4OHAzAAAzAAAxUJgMIdTrodGxhAAZgoCQZaNKkia1cudKJ9C1btljjxo1LMh90wCqzA0a9U+8wAAMwAAOZGECo00GnYwsDMAADJcdAvXr1bN68eU6k68+IESNKLg+ZHs78RucNBmAABmAABiqbAYQ6HXQ6tzAAAzBQcgxMmjQpIdKXLVtmjRo1Krk80AGr7A4Y9U/9wwAMwAAMZGIAoU4Hnc4tDMAADJQcA2+88YYT6mvXrrXmzZuXXPozPZj5jY4bDMAADMAADMAAQp0OOh1cGIABGCgpBnr06GFff/21E+oLFy4sqbTT8aLjBQMwAAMwAAMwEIYBhDoddDq5MAADMFAyDLRv394++OADJ9J/+OEHGzhwYMmkPcxDmWPovMEADMAADMAADIgBhDoddDq5MAADMFASDNSuXdvuu+8+J9J//fVXGzZsWEmkmw4XHS4YgAEYgAEYgIFcGUCo00GnowsDMAADJcFA7969E3umz5w5syTSnOtDmePpyMEADMAADMAADIgBhDoddDq7MAADMBB7BrQd22uvveZm099//31r06ZNJGlu2bKltW7d2jmk04x9lJ2j+vXr57W3e8OGDa1Zs2ZWq1atSNMTZd6Iq3w7kXXq1LFjjjnG3Re6N1K9jj32WGvQoAF88uyAARiAgSIygFAvYuHSkSnfjgx1S93CQPUxIME7bdo0++uvv+zPP/+0kSNHRtIxOPvss+3zzz934n/btm122mmnRRKv2GjcuLEtWbLEXn31VZOoCcuL1uA///zztmnTJjvxxBNDnxc2fo6rPm5Ltaxvu+02++2339x9ke7PgQMHTNsiStSXaj5JN/cCDMBA3BlAqCPUecjCAAzAQGwZkBCYPHmy/f77704zPPPMM3nNUqd6GM+ZMyehQw4ePGjnn39+ZOUwatSoRNynnHJKqHhlJeCtBnRy//79Q52XKm+V8l3Pnj3t3nvvtQceeMC9VO6yRiil/J9wwgl21113ufSLSb2UHy3v6NWrV7Xnxe+okAA4zQcNmjVp0qTa01dKdUtaEYIwAAOFMIBQp4POQxYGYAAGYsvASSedZD/++KOTCtozXSa5hTz0/LmKZ8OGDS5ezQ7efvvtkc0Oajb9k08+cXHnMrAwffr0KpIojkJd5vhRLxHwdZLru8r5008/rVJm+ufSSy/NiZG6detGVve55kHWIuvXrz8kD/4LcVQd5a161WvAgAG2b98+d3k5buzcubOzNJG1iV5dunSxCRMmuN8R6giQXHnneJiBgdwYQKjTQc+pQ8MNltsNRnlRXjCQPwNDhgyxnTt3es1iHTt2jKS9ksBbuXJlIt733nsvknh9XY8dO9bFLcFz4YUXho576dKliTTpQ9yEevPmzd1s70svvWQaQPH5ran3Fi1aJMrrs88+sz/++MP9P3r06NBpUxlL7L/11lvWvXv30OdFlWdZAGigSK+PP/7Y3nnnHXv77bdtx44dLi+//PJL0QcRJNA1UPXTTz+ZLEsUtCSkR48eKctDWyIqINTzb9ui4od4qAMYKG8GEOoI9ZQPYm788r7xqV/qtxQY2LhxoxME+rN79247+uijI2mvZGYcDBJHUZaHZtEV1q1bZ3KCFzbuOAp1ra+XmNTgw3PPPZcotksuuSR0vsLmP9fjgkJdgvuVV15x6ctlRn3q1KmJPD377LPV6hdAjgxff/11d30teWjUqFGiTK+88kr3fXUI9VatWiV2U9BFt2/fnnGQCKHO8yPXe5XjYQYG8mMAoY5QT3QMuInyu4koN8oNBqJnQCbBH330kRMra9assVNPPTUSE2DN0nvTXhe5mZvFjLIOX3jhBRe1hF/YeLX1XLIZdxxm1IPi3JeX3uMo1I877jiTiMxljbrE8q5duxJZ00zyBRdcELrewtZv8nHie/bs2QkHiZdffnmVa1anUFddKmiJifxBZLOWGDFihDueGfXo271kTvifMoaBymYAoY5Qr9I5oEGo7AaB+qf+48LAxIkTnYiRKe61115bcDt1zTXXONPiZJEuc99bbrml4PiD5ZarUL/66qvt559/duJHJtA+ROXdPpi2XD4fccQR9sMPP7jkKH3ffPONqxN9UYhQ1/ZzEshHHXWU6RoShnPnzjWtiZZ5fdg0Js+ohz0v+TiJU1lseDYk3LUjQPJxUf4v5rSLgcKKFSsOGYQaPny4+62YM+raYWDBggW2Z88ed60333zTNLueKZ+ysJCJvsLmzZtNAw6Zjq+u37ScRRY3hx9+eMZtDbWlnLgTO9Wx9r+68s91eHbDQHkygFBHqMfiIUsDU54NDPVKvebDgLyv+7XpEr2FigEJEi+EJTB+/fVXJzT0pxjrknMR6vJq77eI27p1q1133XVOEPsEPvzwwznNEOdT3qnOUbkEZ/hl/n7RRRclxOXgwYNDPzu0BloC78wzz7SbbrrJXn755YQ49Pn077KcSJWeVN9FJdR93LJg+P77711S5s+fHzod/vyw76pzDXoorF692onL5HP9jLq4LcYWaNqCzQ9M+LKXt/nkdCT//9BDD7nDNYAQB4sPpU/39xtvvOHS9cUXXziHeMnp1v/ixS9LUT3//e9/z5rfVPHwHc81GICB6mIAoY5Q50EFAzAAA7FhQCbg6mwrSKxnM8PN9rCUAzqZzitI9EiMaKbahzgIdYkeBT+DrjXWcnDnwyOPPFKtYl3eveUwTkEz/Jrp1gyvHzzR2nvNSmYq+7Zt29qtt95qd999t5u1lbO2/fv3+ywd8q5ZbM1sa2Y0U7zB33IV6vIXILN2bekWjCf42e8E8P7779u0adNMlh3KS/CYQj5rOzMNeshsXEGCPFV8d955p/tdyz/8zK+sD2688Ua3bZtM/OWtPtW5Yb6TBYEPW7ZscZ7cO3TokDE+WTt8+eWX7jQJ9jDXqY5jvPWBz8+4ceMOSZtm27XUIBg0oBY2fWJHy2ZmzZplss6RRUjYczkOUQcDMJAvAwh1Oug8bGAABmAgNgx451ray/m8887LO11HHnmk25vaz1ZLcGoWUQ/L1q1bJ/rrcRLqQdEmYfH4448n0nnZZZflXRa5dBB0HT/bq4tr0OT4448379hP3sjD7Aufbm27TOmff/55J3Y0KNOnTx/30l7iuc4cB4X6Oeeck7V8+vbta3v37nXO0tI5+Uu1VdrixYuzxh22jLWMw4t0lW+wzn0cGqzwM79iwH+v/eJ90OCOtk7zv+X67rc81CBMWCeNwe0DNaiS6zWLdby3PtBAkJhK5aNAdZgcchHqsh4IWuJoAKdY+SFeRB0MwIBnAKFOB52HDQzAAAzEggGtH/WmxzfffHPeadKsqYS+DxIlmt2VCbYefm3atPE/1bjpu0SFFwDJok2CTWvoFXLZcsw/4HN9lxjxa9I146qZVs0qe5GjdMr8PVO8GviQ93W//lrxvPvuu24Nuvbo1kxkroI83fWCQl0z8lo2kO5Yfe+dpv32228m1lIdq2M0i62XX7stC4JUx+bz3T333OPqU2Jd5ZTKYkTCWfunK9xwww2Ja3vLEAlSCflsVg2Z0ueFehiuZAWgGXS//d1XX32Vduu2TNcs1m9eqGdaz6+dHRTEo7+nchHqGmAJBlleaDlHsfJEvAg1GIABMYBQp4POgwYGYAAGapwBCSfN7vmQz/pRrVWV92yZLSuoQy6RqVnbYKcnKNQ1Sygv1pptTTfLGjw3zOewa9QlxOfNm+ez7Exrk+P3gmrhwoUmr+bJvxf6f9OmTd11JXbWrl3r0qJBDr+HtsSIF2hTpkw55Poyyz799NOd2f748eNN6+yDISg0C01r8vkSkNu2bUtcTnupJx8T/D+MUA8e77fLk/O0bt26RTLAcP3117v0ZhL/GlRS0GCHN9OXoPZLJOQALpjOfD57rtIJdd0Luid0b2iwJhgWLVpU8PXzSXO6c3IR6rrflX6FDz74wFmHpBs4UhnIqaBM6TVopRB09qjlB+nSxPeILBiAgSgYQKjTQedBAwMwAAM1zoDWZWumU+HJJ590jp9yechpD2q/vthFYub2/U4VR1Co+2NlEp0s6FOdG+a7sEJda9K9GbSEuIRncvx+hlvp1CyvTHuTjynk/2QRpuuoHH2cEmsKml3u1KlT4nv/u8zg/dp1d6CZfffddzZp0iQ3AKAlCP7YYrzLZF6m9ArFEuqKW/WQi6O7dHnVOm8NGHTp0iVluah+/Uy+Bgo0ECI/C95C5O2337Zsa8nTXTv4fSahLuEqp38+Hb5e9a7BmGIMGAXTluvnTEJdVjQS1H5N/l133ZUQ6sqPWE1l1aA0qJ68tYuOlbWPfAT4gSuEOkIsV1Y5HmZyZQChTgc9ZWchV5A4nsYHBmCgEAa05lVBJszaYimXuGTq/uqrr7rz9Ued60xenTWTvXz5cnecxIg309babJkca5Y2+JIAlOlsutnH5LRmE+oSQppp/vbbb12adS2lKTke/S9TaTnB+/33392xEozaykyOxVIdn+t3mtlVkPiQBYLKI7hdndKpIIGorbu0hl0WCyoTlZUXkDpGM776/sILL4wkbWHyIkdi3vlg1EJdnu2D6/VnzpxZ1HyJe8+xmNAa9DPOOKOKY8Ew/gHClFuyUJeDO80wqwy3b9+eGDQTe+JCdSuLi1Trv8Ncr5jHpBPqGuTQgIMfAFSe1VZIYEug+5Bu8Eui3geViXjQfepn1RHqPPOKyTVxw5cYQKgj1Iva8aChoaGBARjIxoCEq7bDUpDzt2zH+9/lFE7m8snexDUL7I/J9q6t39QJDxOyCUF/rWxCXenzgwO6bnAG28eR/C6P0xrE8EFiWgJDprnBl7ZAU7kkn5/ufy/Uly1b5s7x6/j98X47rmeffdatLw8KV58WvUsEpRts8HFF8a4ZaZXfWWedZYMGDaqy7Z4GUzJdw5u+S2jJXD/Mtn8Spr7cdZ7WxWe6RiG/3XHHHa5IdR0JZ8XlnfjpBw1ARTVA44W6v4437Q7WqYS5X4edzEUh+Yz63FRCXW2KnFF6qwDtoiCR7q+tQScfZNoevJf69etnQ4cOTZi7a2DKnyerF28Fg1Dn2ea54B0WisUAQh2hnngAFQsy4qUBgwEYyMSA9k33ezprW6pMx+o3b876b//2b76vbZs2bTKtP5XTp1xn5OVETefKDDzdS7+H7ZhnE+ovvviiS7fWPmv7snQzesnlIOERFPiJzCd9kPO2sILSC3WZWSdfT//75QQql65duybMfiXc5UVf36tsJIL9NmKp4onqu6An/GC2NdCQrRy9UNd5miHW+usw6Ro7dmziUmHLNUy8wWNkCu+tE55++unEengvoDdv3uyWEkiABs/L97MX6t5KRPegvwf0rpnoKLelyzedYc5LJdTlCyA4gJfMhhz2hQmyYLn44osTZY5Q51kWhkmOgZOoGECoI9QTD6CooCIeGigYgIGwDATXlsv0NtuMoWZBp06dmhD2EvjatsrP/IW9bjGPyyTUJYj8ulcJwFzSIZG2YsWKrPpC4i7sPs/ZhLo3z//000+dWbQuLpGXLHxyyUe+xyr/3qFasBDkhTzdOuPgtSSGg9YTDz74YKjy10COD8US6sFraE26T7cGcxS0BMJ/F8V7slCPIs5ixKH7WjPe2gUinb+DVELd34MqO1nCJA86qN3xzhN93Sa/y5JCgzvBfCHUebYFeeAzPBSbAYQ6Qr3KQ6jYwBE/jRoMwECQATmnUpA5qRzKBX/T52OOOcY5f9Kac4kLrZf1a0Rlknruuececk5yHNX9vxcJWvetGbngy8/yyRRXecs1bRqokAjP9MrFBF0z4wqPPvpoyrT4bcLcQWZuH/J8PPLnms/k47VeOyistBWbdgpQOUg8hTXNltjXgJCC1l/PmTPHGjZsmDLvPg1BEV0dQl2e+DXju2rVKl/szvLCpyeK95oW6nXr1nVO6TTzLcsYpSd4n/jPqiMfhg0blrKevFCXtYk/zzt8W716tTsnFR+en3T3kuoh2UoEoc7zK4r7jzjgKCwDCHWEesoHX1iAOI7GBgZgIB8GJJjkRVuzXQoSjMmCqV27dvbaa6/5fnqVd62Vzkfo5pPWXM/RTG228Nhjj8Wi7ZWzMnmcTzdDrnXg8sIv03K9Ug2m5Fo+uR6vepY5eDDIsVeu8fjjlZ9g0IytRKAc0yW/5DxPzvsU5JRMa+R9PFG++8EAiU3N9sos3wfdA7169Yr0ujUh1LXbgsrziiuucNsS+rX/Pp/p3rWrgNjT9oupylxWKt5hXHIcjzzySMpzUsUT5juEOs+7MJxwDJxExQBCHaEe6UMsKjCJh0YOBsqbAe0PHXRMlmzaq065N8uWefv999/vHGxpDbpmU+VMLNUsWRy4kbmunHSNGTPGrZlXmv1L32ldcNC8OQ5pjmsaJIyCDtVkii/HeoUIZgnGGTNmJGu6rP9LLGomuBhl5YW6LEu05Zwc4ymI/WIMSGnmWUHOAjVoVow8BePUnuT+fnYX/scfpUMDJ/7+CL7rXrnqqqvcHvaZHP/JgkTryDU778/XuboH04n7YNpy+YxQL+/nUi4scCwsVAcDCHWEetEf0NUBMtegwYSB0mLAm6uqvy5P7+pgywxZ66s//PDDxN7cMnOXh/PqEBMwFD+GZGUhawuZMmvZwKxZsyJ5Zmm9s4Sj4pXPgEwvXXfHjh3WvXv3SK6dijMv1A8ePGhyHOeDLAlSHV/od7LoUND9pTLVLH6hcQbP1/0qvwEaYNPWflu3bk04QtRWg7KkkTNCHZNsSROMJ26fEerxayPixgjpgZEoGUCoI9QjfThHCSdx0djBQPky4IW6Zgy1VZa2WUsOMmfV/upwUL4chKlbWU5I+EU9WKP1xz7ebO/Ja5XDpDuXY7xQD94DEu2dOnUqCv9y2rhmzZrE5d588023q4EsXbQMIt+X7uXLL7/ctLOB38YscZF/fAhuk5ZLGcXhWK1n9/kKuwtEHNJNGiq7DaX+S7f+EeoI9aJ0AmgUSrdRoO6ou+pgwAv15E68nEdpyzIJd5m9xtW8vTrKiGtUzr2YLNTlxE9O+6Ke6Q4yJZN6reHWDHcxgtbba7eABQsWJO7pCRMmhN6RIJjWuHzW9pE+INQr5/6MC3+ko/KYQ6gj1BHqMAADMFDtDMiMWE6iksPy5curPS10fiqv8xO3Ok8W6jILr440yuxc67u3bduWfCvm/b9mnOUATwMN8sVQrHX91VE+ydfQVpAK8pXQrVu3aqmj5DTwP+0VDFQOAwh1Oug8aGAABmCg2hnQTLm2utKsXqtWrRKvYs4g0rmpnM5NqdV1v379EsJYXvgzOU8rRt7knC94HxbyWVvLlet9rHpRmyUT+GIvhyhGPRMnbSAMlBYDCHU66NXeQaeRKK1GgvqivmAABmCguAxI+Gm5h5Z9VLdIp26LW7eUL+ULAzCQLwMIdYQ6Qh0GYAAGYAAGYAAGYAAGYAAGYCBGDCDUY1QZ+Y62cB4jdTAAAzAAAzAAAzAAAzAAAzBQPgwg1BHqjJzBAAzAAAzAAAzAAAzAAAzAAAzEiAGEeowqgxGw8hkBoy6pSxiAARiAARiAARiAARiAgXwZQKgj1Bk5gwEYgAEYgAEYgAEYgAEYgAEYiBEDCPUYVUa+oy2cx0gdDMAADMAADMAADMAADMAADJQPAwh1hDojZzAAAzAAAzAAAzAAAzAAAzAAAzFiAKEeo8pgBKx8RsCoS+oSBmAABmAABmAABmAABmAgXwYQ6gh1Rs5gAAZgAAZgAAZgAAZgAAZgAAZixABCPUaVke9oC+cxUgcDMAADMAADMAADMAADMAAD5cMAQh2hzsgZDMAADMAADMAADMAADMAADMBAjBhAqMeoMhgBK58RMOqSuoQBGIABGIABGIABGIABGMiXAYQ6Qp2RMxiAARiAARhwDDRs2NBq1aoFD/AAAzAAAzAAAzXMAEK9hisg3xEWzmN0DgZgAAZgIEoGzjrrLNuwYYNdf/31dM7oG8AADMAADMBADTOAUK/hCoiyk0VcdNphAAZgoHgMtG7d2iZOnGhTp061O+64o8pL340YMcJatmxZsh2befPmmYLEOhwVjyPKlrKFARiAARgIwwBCHaFOhwwGYAAGYCAEA8uXL3dCNtOf8ePHl2xZLly4EKEegoMwnSuOoRMOAzAAAzBQKAMIdR7KJdupLBR+zqcBhQEYyIWBzz77zAnZH3/80bZt22bbt293L33/xx9/uN/27Nlj9957r9WrVy9r29q3b19744037KeffrIffvjBvW/ZssUGDx6c9dxc0h32WIQ690NYVjgOVmAABmCg+Awg1BHqNdIh5OYu/s1NGVPGMBAtA16oy8w9uWyfe+65KhPtRx999CHH6Bw5azvnnHOcCf2OHTuqnOP/WbduXcpzk68Z9f8I9Wh5ibp+iI/6gQEYgIHKYgChjlCvkQ4hDU1lNTTUN/VdDgxkEupt27Z1M+lebC9evNhOOukk1762a9fOZs6cafPnz7fnn3/efvvtN3+YffnllzZu3Di78sorbfPmze77fIV6nTp17KKLLnLXWbRokckMP5c1816of/XVVzZr1ixTHPpu7Nix1qJFC54V9BdgoAQYaNSokY0aNcrdrXXrxQAAIABJREFUuwsWLLBUL93XN998sx177LHUaQnUaTk8P8lDfv1AhDo3KI00DMAADMBACAYyCXV1Qtq0aWPvvPNOQoSrM6zvJdpThY8++sj69euXKPulS5cWJNRPPPFE2717d5VLXXvttYn4s3WUHnvssSrnBv+5+uqrQ8eT7To1+bsGM2rXrl2tealfv741btzY9F6Teefa+XWUS63chg4dmliKE7yHU31+8cUXrX379la3bl3YDPEMKDUWSG/p3/MIdW5MGmcYgAEYgIEQDGQT6uoUaQb77bffdn3iZ5991pXrxRdf7Dypy5v6xo0b3br0Sy655JAyL1Sod+/e/ZC++OTJkw+5TnLnTTNwjzzyiB04cCBxvmbVtX7er73XrH/yeaX2v7z2P/PMM/bAAw9Um1g/4YQT7PXXX3flqkGc008/veTLsdTqvVLSe/jhh9vs2bPt559/drz9+eefiXZHbU/w9dZbbyXu97/++su++OILGzJkCGyGeA5UCk/kMx4iH6HOTUnDDAMwAAMwEIKBMEJdnZsXXnjBdZS9UA/b4SmGUJ80aVLWutWMWjDIHP/kk09253377bfup3IQ6howUdDSgwYNGmQtl7D1lnycZs8vu+wymzBhglvqECzbMAMnyfHxfzw6zHGtB1mJyDJn5cqVQdTs3XffTct4rVq17NZbb7W9e/cmzvnggw+sV69epviS89q1a1fnV0P8ymRe7zfccINpcDD5WP6HVxiIjgGEeojOGcBFBxxlSVnCAAyUKgOlJtR///13JxizlXeHDh0SnXV9CO6jXk5CXVYMCsUW6lpuoNnMVAGhTvuX7X7M9fdu3brZd99953A7ePCgW5t+wQUXWKdOnTKKaA1WSWh7CyBFoN0nZAUSTEOzZs1MIj5V+Pjjj+3II4+scnzwXD7DOwwUxgBCHaFOAwsDMAADMPC3v7mZpDFjxtiTTz5pmkFK7mCUmlBXer1Du+S8BP9HqBfWkQqWpT4/+OCDTtNo2YCsE/Tywh2hHm1ZJ5d9pf0vfwtqs3zQ1pC5WovI0iS4A0XyLLl2sPBBAwLi+euvvzYNBCrcddddh7SVlVYP5Jf7ulgMINTpoNPAwgAMwEDFMyBzz9tuuy0hqFKZesdZqDdt2tR5Z/cdar2/9tprKc1Ygx0KOTi76qqrgqfFfkZdadZASq4eqwudUZdJu2YvVdbBMkz+7IW61qT737TmXyGTUNegitKY/OrTp4/Jj4CPi3dEgTd31/IaPwikteliNB8+5AjTh2Shrh0fJMw1Wx/8zTvJ/Omnn1zbqW0njzrqqLyun0+aOYf7oBIYQKjTQadRhQEYgIGKZ2DAgAEJJ0xaY55KBBZbqGsmXyHX7dm0/Zs67MlB+cjWkZkyZUqio+/Pj7Ppu7xTa939N998Y2vXrs06EBHMf6FCXWt69+zZYzfddFPacpVQWrVqlSvKXIS6zI0/+eQTXwVV3mWqP2LEiLTXDOaRz5UhXvr37+/M1D0oMk0fPny4ae15PgxkEuqatZcIv+KKK6oMBIjZ4C4XSov8bORzfc6pDG6p59zrGaFOB51GFQZgAAYqngHNoCtojeYxxxyTsjyKKdS1nnTr1q0uDdomLWyHRl7mV6xY4c6T92aJOj/DFkaoa1AgOUQh1DULfN9995nM6sPmJcxx2tPde6J/+eWXc4q7UKHuyyqdGDn77LNt06ZNCW/ac+fOTaQv1Yy6Ziplqqw1wtu2bUtUg0yKVY96qU4V7rnnnkRcYcqJY3LvEJdSmfn2av/+/XbNNde4mex8RbrynUmoZyoXtVvaHcIHtZGZjue38uaS+o2+fhHqdNBpVGEABmCg4hnwHV85T0vX2SimUNdsmMK+ffvs1FNPTZuG5LQNHDjQ95HtjjvucOc999xz7rt8hbpmqv118nUmp+2fFDQL7eMq9F3mvjt37nTxasszrZ1NF6fM42VKLlNdebDXuZqF1CCGzHjr1auX9tx0cWYT6nKspSBx/cQTT1jDhg0T10gl1H2du5P+8Uf136pVK7fnuoTXli1b3C8I9eg7wOnqOe7fi92FCxc6LsRyoenVsgrdGz4EzdvDxq1lQwoa6OzRo0fBaQp7XY7jvih3BhDqdNBpUGEABmCg4hmIQqhLWJ1yyikJcRV2e7a2bdsmTNd//PHH0HVxxBFH2EMPPeQ6yJp99U6kvBl8PkJ92bJlptlw3/nJV6iHHdTw18n2rrwNHjw4MZt+5ZVXJtKY6lwJBz/zrncJZ30nof/ee+/Z+PHj7brrrnNCPuxMZDah7stKSxiS15R7oS6z+NGjR7tZ0KeeeipRd5p9f/jhh23UqFFVzPkR6giRZL619Z9ne9q0aRnvg+Rz/f9qO7ScQveBOPz1118di/qTj1DXoNjnn3/u4njxxRdNe7r7a/EOwzCQPwMIdTroNKYwAAMwUPEMRCHUO3bsWMV7chihLpGoGWwfZAYdtlPjZ851br5CPXhtxRP0Et+zZ0/75ZdfXNJUPmHTpeOiFupyeOe9TCtB2YT67NmzXbqz/ZG367DbS2US6tnKKuhVOzlNmQZnEOr5d3Bz4bVUjpWPBg00KWzcuNG09CWftC9YsCAZQ/e/PLq3b98+rzivv/76xFKNoUOH5hVHPnnhHO6RcmYAoU4HncYUBmAABiqegXyFumam1OnVjKnfy1g9Xjk7GzlyZNZylUm2F8Oazc7mNVl7dMvpmK7n16LLXHrJkiUmp0/qsPgZdQnLbB0YmV/LfFZiUaLdi9YTTzwxsXfy7t277ayzzsoaV/Ba2YS6nK7dfffdLh9vvvmm9evXL2P8Mv32QUIl2/IAmZ3L14CcYL377rvOJFcz3nqpbmSi64PW5wbTnu5zOqF+xhln2KeffuqiS1dW8vau33wa/LvSMW/evLTXR6gjQjyPGkTTbLUPcu7mfwv7rvZq/vz5VdoO+caQyG7durW7/307EjZOf5zaMrUjCrIa8d/zDsMwkD8DCHU66DSmMAADMFDxDHihrq2GLrjgAtPa7+Dr3HPPtV27drlOqMyoJVy1rnPmzJm+35x4l/BWhzhM5yQo1LPNEivOvXv3Jq7jP8hcOngtOShT0FrpZ555xonaXNdkyyRWQc6q8pkdyybUTz/9dBe///P0009XyUMwP/rshbqEa/Jv+fwv814fChHqisc7AZTozqesMqXfC/Xly5cnBlEyHc9v+XeI41x2un/FQDCofQqbZg1cae24BseCQctBwsShXTDULqrNkxPEdOcg1MuTv3T1zffFr2+EOh30tA0uN2Dxb0DKmDKGgXgw4IV6sBOby2eZZctxml5Dhgypss44Ux3nItSDnWzNoGubMM2EyflY8BrqVEv4+iCza83Wjxkzxjp37pxxCyeZ4p9//vkJT86auQ/GHfZzNqHeu3dvnzz3nm2ZQByFusTT+vXrXfol0ocNG5ZXWWUqUy/UdRFZEjRr1izya2S6Pr/Fo33SQKG3vNGuA7LWySSYk+tNWxp6CxyxdODAAZswYYLJP0byscn/y/oluERm0aJFac9BqMeDl+Q65P/SrReEOkI9bYPLjV26NzZ1R93BQG4M9OrVy5lhqxOrDm2ql98qS7+po+uP0TmrV6/OKIDT1UdQqGuLLnkz1/ZoyS9tgSQTdwWJ565du2Zsu5s0aWLayuz777935+iP0ivRnhx38P/NmzebrAp8COOQLlXeohLqKh9ZDGzfvt0lKQ4z6osXL3bOsrSNng8q61TlUOh3U6dOtYMHD7rLyH9B06ZNi3KdQtPJ+bm1N7mUlxwpaqBNQfeV7u2w52smXYJ8z5497ny1YXrl0l5pd4VgkOl8uusj1IvHQboy5/vyLnOEOkI9bYPLzV/eNz/1S/3CQFUG1KlVJzjVS9t9vf/++66/qtlqzWbJs7c/Vk6e8ilPCdFMjsaCHWT/ecaMGaGvpdn1G264wc38SrR70efjSvUuQa918JqFS/ZeHjaPXqjLk7lm7bS+1r+6dOlyiBmvBh/OPPPMKvlS2Xgzfp/Od955p8oxYdOTfFwhpu8yQb7//vt9kty7rBCSrxHF/1ov7BkTg1HESRxV7/u4l4fuYT9IJwuaXNIrzr1IF6iyxNH5ubRXQaGumf1M10eolxZbmeqS3+JRlwh1hHrGRpcbNR43KvVAPcBAzTNw4403OlH2888/m0y3o6oTbTv26KOPur2RtT9yupdMTufMmVPFM3vYNMikXUJZ5vJyfpfpGjom2Zw+7HX8cV6oV1GzSf/IKuH55593zuz0kwYHjjvuuES5ynGeBg0U5HBOM3m5rMv1aUn1XohQD2ZDJu9a5+ud8KW6Ft/V/L1bynUgHwo+iNtc8iILDA24SaBrK8d89jgPCvVs7R5CHdZz4ZNjs/OCUEeo59Toc1Nlv6koI8oIBsqTAYkxb4KtdaKa8aWuU9e1PJlnChLp2kJNVgwXX3xx4tCgEPHr7DWLHrUQzkeoS5AnB4kfGEjNAOUSTbkUItSjqAOEejT1GEVdEEfl1QVCHaFOJwMGYAAGYCAkA94buoRmLs6cKq2DJQdU2lc+1euEE05wezV7s/qgEJEJvLY60+y6d56V7zr5TGWej1DXoEKHDh0SedJnmaVnug6/VV7HOuo6D94fwYGsqK+TLr6gUE+3jaKsdbTDhPfjwfZscJ+OJ77PjQ2EesjOGWDlBhblRXnBAAyUIwPansgHhHo0jMvMXibk6YK2w4uapaDXeQmhqOMnvmjYoBz/ZloX7kO3bt2qndWWLVsm9kd/6aWX7JxzzrGzzz7bbdUmvxKXXXaZBXcnUFqzbTVJvXJ/wEA4BhDqCPVqb/S5OcPdnJQT5QQD8WMgKNSTnZ9RX/nVl5YQaJ3+9OnT7c4770y8pk2bZrfffrvbBz7qsvX+Bnbu3GlHHXUUz0H6QrFlQBYlCps2bTLNbkd9L4SJT34rZEWUKezevdstZ9FWl4X6uAiTJo7Jr72l3Eqr3BDqPJxqpNGnoSithoL6or5g4H8zcOKJJybWqcs8+4wzzqANLbHnqDypr1ixwmkO7d8uk3b4po2LKwO7du1yrN588801xql2HLjlllts//79KbW60jhkyJAaS19c64500a4UygBCvcQ6GIVWOOfTaMAADMBAYQxccsklCVPQNWvWsE65xJ6jWhuv2T+FiRMnIi5KrP4qrf369ttvHauaqa7JvMvypXnz5iZT+OSXvMtrAKwm08e1C3uuUX7xLD+EOg8oGlYYgAEYgIEcGdDWYXKcJHNQCXc6OfHs5KSqlz59+rj95FV32faFTnU+35VOXZdDXcVFqJdDWZIH7t1SYwChnmPnrNQqmPTSKMEADMBA9AzIFFTbhilo7Wg6b8iUffRlX2iZ+m3W5ABLXukLjY/z41fH5VIn8oOxb98+186MHDnyEFY7depk9913ny1atMhmzZplXbt2PeSYcikL8sF9VokMINQR6jTqMAADMAADeTAgb8c+fPbZZ+yrnkcZ1kTHa926da7atD69Xr16sF8i9VYTrNT0NcWowgcffGDt2rU7hNW1a9f6Jsi9i+2aTjPXR1DDQHQMINR5QNGowwAMwAAM5MGA1jpr72CFX3/91Ro0aEA55lGO1dmpO/300+27775zdcb69Og6k9VZh5VyLS3L+PHHHx2rU6ZMSdm2fPXVV+73L7/80jZs2GBjxoxJeVyllBn55J4uNwYQ6jHvVJQbcOSHRhQGYKCcGBg4cKD9+eefrrN8/fXX00mO+TN1xowZrq6++OILO/7446mvmNdXObUVueZFA0kKWqN+xBFHpGTVC/XJkyen/D3Xa3I8z2cYiBcDCHUeUjTuMAADMAADeTLQuHFjW7lypetQ79mzx82wDx8+HA/IeZZnMTuJrVu3ts2bN7u6Wrx4MczHsI6KWf+lFrfEt4LEeLq0I9TjJarS1RPfU0/5MoBQ50GV9gGQL1ScR4MEAzBQSQz06NHDvv76a9ep1h85fzryyCNpW2P2fJX5sIIsIPr27Uv9xKx+KqnNCJNXhHrV56gGRbXcKEzZcUzVsqM8Src8EOo8qGj0YAAGYAAGCmRg0KBB9vrrryfE+tFHH02ZFlimUXYue/XqZXv37nX1s2zZMiweYlQ3UdZzOcWVTahrL/NvvvnGMV3upu/HHnusrV692p5++ml8gXDvVtSzFaEO8BUFfDk9xMlL6Y6QUnfxrjt5Ar/wwgvtrLPOslq1aoVuI3v37o1Qj+EzVTNx69evd3Uj7/wnnHBC6DrlXo33vVrO9ZNJqDdr1sy0fMOHESNGlDXT/fv391m1Fi1alHVey5lp8pZ7e4pQj2GnApBzB5kyo8xgAAaiYqBnz572888/O3P2XEwtg0Jd66GjSg/xFMb21KlTXSdfJu9///vfqRf6PSXBQCahPmzYMDt48KDjeu7cuWU/y4xQL6wN5BlSuuWHUOeBVRIPLBqZ0m1kqDvqrtQYkCd3H8aOHRu6jQwKdc3cDh48OPS5pVZGpZJerUWX12yFJ554wurWrUud0O8pCQYyCfVx48Y5prXVYLkzLaum2bNn+yaZGXXu35K4f6N6RiLUAb6igI/qxiEexCcMlC8DZ5xxhv3000+uY6g1oNddd52NHj3aOnfunLG9POmkk+z7779PdCifffbZjMfDUPEZuu+++1x9yNkfJu/FL2+Yjq6Mwwh1DUKVe5k3b97c/vjjj8R93LRp07LPc7nXKfkL304g1BHqNHgwAAMwAANJDMyfPz8huP2HLVu2mGbN03Uy6tSpY126dLH33nvPnYJQD98ZSVemhXyvfdI//fRTVxcPPvhg2nor5BqcW7N1XM7ln0mo++UclSDUTzzxRN8E26hRo7iPk55V5XwPkLe/GUId4Gn0YAAGYAAGkhiQyfTHH39su3fvdp6Vf/vtN9dZ1F7pO3bssC+//PKQl77funWr/fLLLwj1pPLMtcPVoEGDgtfdXn311a4eDhw44AZQck0Dx5evCJdDMu3MkIsPiurmIZVQl2NEDRbu3LnTsb1q1aqybrs1+Pncc8+5vO7atctOPvnkss5vdTPG9eLfxiHUC+xMAHn8IaeOqCMYgIFCGbj44osTnWPXawzxZ9GiRXQq83jGatup5cuXu+2YNJuWT91169bN3nnnHVdLL774ojVs2DCvePK5NufEu72R7wiJPoVXX33VtPVXHOssWaj369fPtm3blmh5tMxGy23imPao0jRy5EjTQJvClClTyjqvUZUZ8cS7/cm1fhDqeXQici1kji+vm4b6pD5hoDIZUEdZnUV1oDO9dMykSZOyrmmHo9QctW/fPjEoIrE9ffp0u+qqq+zwww/P2lHX+tUbb7wxIcTUyR86dGjW86iL1HVRjuWie/evv/5KCN5My1lqMv/JQn3OnDmJNMtqRyK2JtNXHdd+7LHHXJ7VDoS5/6sjTVyjctqKONQ1Qh2hXvYNfRxuNNJAww4DMAAD4Rm49tprbd++fQlhoqUH7777rhMnMv+VSWzwVbt2bdP3Dz30kGkbNgU5AtT+0uXuFRuuwnOlshInwZ0dSkWoy8+CgmbVO3XqVPDSkFLgZtmyZS7P69ato6+KXqlIBhDqgF+R4JfCA4o05tb5orwoLxgoLwa0xvz99993DuF+/fVX12HX3tH6rBnF5Je+9zOlq1evtnbt2vF8o4+TkgGtT/ch7kJd/jDUti1YsMAlWbPL5d7WyXeALAh+//13l2eEenm17eXOb5T5Q6jzECv7Bj/KG4a4eFjAAAzAQPUyIMdyl156qVuz7jvuXmQlv2s2fcmSJdakSROebfRv0jJQSkL9iy++cBYA8vCu8PLLL6fNV7m0TdoKMxg0s14ueSMf1fv8KPXyRqjzIKPxgwEYgAEYgIHYM9CsWTMbMGCAW69+5ZVXWvJLM/CXXHKJyRldqXfOSH9xO/OlJNRlKfLRRx853frZZ59Z9+7dy55vOcnzQf4+sI4p7v1AexPf8kWo0zkr+wafBii+DRB1Q93AAAzAAAxUNwOlJNS9YNW71tZXd1nVxPWCQr1Dhw4VkeeaKGeuGf+2F6GOUKcBhAEYgAEYgAEYgIGKYaAUhbr8M3Tt2rUi6gihHn8BicivnjpCqPNgrohGnwalehoUyplyhgEYgAEYiDsDpSTU9+7da9OmTUvseBD3so0ifT179kwYEjCjTnsSBVOlGgdCHaGOUIcBGIABGIABGICBimGgFIT62WefbT/++KMtX768YupFYkrbLj733HNOqGuLxWOPPbai8l+qgpJ0F2dABaHOg5kGEAZgAAZgAAZgAAYqhoFSEOq1atWypk2bVsR+6UGRN2bMmMQ2izfeeGPFMBksAz4XR/SWYrki1Hkw0wjCAAzAAAzAAAzAQMUwUApCvRRFRRRpXrt2rZtN197phx9+eMUwGUXZEUf5CXyEOg9mGkEYgAEYgAEYgAEYqBgGEOrxFTQbNmxwQn3hwoUVwyMCO7481nTdINR5MNMQwgAMwAAMwAAMwEDFMFAJQv3MM8+0N954w7Zs2eJeq1atstNPP/2QOj7llFPshRdecMdov/YwL8W5ceNGu/LKKw+Jr1BhU51C/YgjjrDp06fb1VdfXXA+OnfubCpjld/MmTOtWbNmBcdZaFlyfukPACDUeTDTkMAADMAADMAADMBAxTBQzkJda9vbtGnjBGPCdfo/PsydO/eQOp4zZ07yYaH///bbbw+JrxBxeOSRR9qHH37orp/LjHq9evWsffv2JuGdy/WHDx/urvXdd9/ldJ6/Rv369a179+7WrVs3W7lyZZVy69WrV15x+rh5L32RHUUdItR5MNOQwAAMwAAMwAAMwEDFMFDOQv20006z7du3J0SjZqg1a6xXqn3YO3Xq5H679957bdasWVlfimfNmjUufnmlj0KMKI6OHTva+++/n0h3WKFet25dGz9+vH355Zf21FNP5ZSe0aNHF5SPKVOm2IEDBxJpDn7o3bt3TmmJqhyJp7wEPkKdBzMNCQzAAAzAAAzAAAwUnYEWLVo4UdW/f/+iXyuTYKkJoa5txy677DIbMWKEaQY4U/ry/U3icNOmTQm9uH//fhs2bFjk1ypU4KbK38CBAxPp/vPPP23s2LGh0i0v8fv27XPnfvXVV6HO8dcvJB8tW7a0Tz75JJHm5A8I9fISzJ6Z6n5HqPNgzqlRq25AuR4NHQzAAAzAAAyUPgO1a9e2iRMnOj2jNc41Wac1IdQ7dOhgv/76q0mEHn/88ZHnXwMBn376aUIv7t6925mC6/soy7p169aJGXVdI6q4J0+e7NLuyydMurXH+q5duxJ5/vzzz3NKTyFC/Y477khcd/78+W4bvZNPPjnxHUK99NusqNguJB6EOkI9p0atENg4l0YLBmAABmAABsqfAW2rde6559qll15ql1xyiXPW9corr9jvv//uhEyuM59RM1MTQv2kk05KiDiJ9qjzJGH7yy+/uGu88847NnLkyMiuofReccUVNnv27IR5uky+b7vttkiuIXN9mdErPPnkkxZGpA8aNMgkzH2QJYHWnOdSrrkKda1JlzXIpEmTnPM9XVsDBVqjruvWBFe55JdjS6/tRagj1HNq1LjJS+8mp86oMxiAARiAgepiQLOcS5cutYMHD3oNdcj7Sy+9VKN9j5oQVNUp1KP0xn7OOeccYuL9xx9/uHXtWh8eBVfPP/+8Y+SLL74wlVO2OOVhPWg9oJNlOp/tvOTfcxXqN9544yFr0jWw4OOtCa78tXkvzzYeoY5QTzQw3OTleZNTr9QrDMAADMBAdTDQtGlTW7ZsWUKY//bbb6aXhJ1mebVGW9uBtWrVqkb7HsUSVE2aNDGZcEvQafY1WOalKNQ1e/z111+7+tQM+ttvv2333Xefs5Zo0KBBlfwF85rrZ1lYKEybNi1jnCpDiXo5jksO1SHUtY2dgmb/xbmEvjzV+/wWiysfP++V144j1BHqiQaGBqDyGgDqnDqHARiAARgolAGZKrdt29ZGjRqVmEmXF3GJVQk6vaKafS00rTq/GIJKIl1exxU0OKHyCKa1mEJdW7Ldcsst7tr6c/nll1e5djAdYT+fd955CZG+c+dOu+CCCwqOM921vVDXIEe6Y/T9M888k8hj8gelN9O5qX7LZUZd+dc2bgpPPPFEymsVg6tU6ea7ymmzEeoI9ZSNDY1A5TQC1DV1DQMwAAMwUAgDmin/4YcfqmgneXgvJM5inlsMQaVtyxRk8n///fcfMjBRTKE+ZMiQxPr0l19+2bT8oJDyk+iVGbqCZtTPP//8guLLlpZsQl1bt2nNvT/OJewff77//nu3Zlxe2LNdJ/n3sEJdgy5ygKiwY8cO69OnT8prFYOr5DTzf2W11Qh1hHrKxoaGoLIaAuqb+oYBGIABGMiXAa1JD4b33nvPGjduHNv+RTEElczCFVasWGENGzaskvd27dpVWRIQtTO5e+65x11bQva4446rcu1c67Rnz54J0/LqEOlKnxfgyTPqKrcHHnjArUeXN/hU4cEHH8w7v2GFujy4+5DJsqAYXOVafxxfXu04Qh2hnncDR2NQXo0B9Ul9wgAMwAAM5MOAF+obNmxwW4LFeTZd+YtaUGnruQ8++MBpuVTC0ZvEe7FXLKEexbZ3q1evdsmUN3N57k/Hg5Y7qJ5VlsGXlgCkOyfd916oa416o0aNXHyKZ+7cub7ITHvCr1271oLbosnRXSFLKrSnvYLW32vZRvPmzav4FlBa9J08zPugvKbLR9RcpbsO31dOO41QR6inbXBoCCqnIaCuqWsYgAEYgIF8GfBCfd26dSXRp4hSUMks+tVXX/U6zlIJdQ1gBEOchbqc/imkyofnQ9vv3XrrrfbNN98Es+U+f/TRR9ajR4+cOPBCXfvMy/FgcpCHd78FWvv27RM/azmBT1M+76q7jRs3JuLTteUkTmv+dZ0333wz8Zv/gFCnncyHtXzPQagj1AtsLTc1AAAMQUlEQVRq5PIFj/No6GAABmAABmCgPBgIK9RlDq+tw+RoTubawdesWbPs9ttvd17hi81FlEJd+8QHg/bYTk5/slCfOXOmyaw7+bh8//em71HMqHuhrnfNcAfr6O6773b/a2Ai3fZ7mp0ePHhwTnnzQj1YjsHPjzzySCI+DXL48Oijj9qMGTNM7GhP95NPPjlxXNiy7N69u23evNlH6d7l2X7lypVVvtM/WrevGfZ0cUfJVbpr8H15tJlh6xGhjlBP2+CEhYjjKqvRoL6pbxiAARiAgSADixcvdqJm+/btGffBHjp0qPOIfogCCnzx1ltvFb1fEqWg8kJdAlVOxpo1a3ZI+pOFurKrmVwvLGVGLvN5zeQGyzXs5yiF+qZNmwK1kf6jhLqEcq9evUxruPVS/iV8ZTIeNu06Ttz4oLXoMrn3cer9iCOOSMQXnFH35/h3zYDncl1/rLZYGzdunI+myvu+ffusX79+Lm9yapepjqLkyqeN98puaxHqCPW8GjUajspuOKh/6h8GYAAGYMAzoD2s9+zZ4wSOZif79u1rnTp1cqI96I1bwlTm8Z988onzoq0ZYL0+/PDDhBm14tFxEq8+/qjfoxRUXqhrS7bg3uJK/6mnnmqyNvCO0LT/tvKqYxX0/vPPP5tMvn/66Sd3rMzKc82vF+qfffaZacZZJuH+1blzZ8slTnnw9/WS6v3jjz82DaboOA0u5JrWVMdfc801tnXrVseF1qVnqnsNAuiYbdu2VUmnmJJFRqr4w3wnsS6z92C8SpNm68Ocr2Oi5CrsNTmuvNthhDpCPXQDRGNQ3o0B9Uv9wgAMwAAM5MvAVVddZX/99VeV2Uj9I1HXqlWrrH0N7f3tzaklXiX+801LtvOCgkqm+NmOz/R7OqEus/Hk9dYy01ZcEqa7d+8+pKx++eUXJ7QzXS/Vb16oHxKhmRskWLNmzSGe6FPFw3eF3f8yi5d5vOrdr6mnTAsr00ovP4Q6Qr2gB1Sl30DknwYYBmAABmCgkhjQOvNrr73WHn/8cTcDqRlj/9nPHAcFo9Yfh9kyTCbjEyZMcN69dX7yVl1RlnHTpk1NW8gpfPnlly4fmk3VWugzzzwzp36RF+rK+xNPPOFmxZcsWeJmyX056FrDhw9P7G+umWiZU1999dVuzb4GC+SBvH///lavXr2crq9y0ey2ZuXTBc2Mx3m7vCjrtibjklm8trcbMGAAAyPoq5zv41TsItQBKRKQUsHFd3ReYQAGYAAGYKA8GJC4lBn7ggULEqbc6YShvteWZFrTq9n0XEykvWOxYgp1MXnWWWeZ9glPDjIf17ZjeslkPFva5TgtU5DjvOR91aO+J7RFmTyYq7xl+h586TuZdUd9TeIrj/uaeox3PSLUEeo03jAAAzAAAzAAAzBwCAOaIZR3cs0Qzps3LyFsZaIur+CvvPKKW3Oudef+9dprrzmv7rk6FPOCobqEuq6ntfTy7q39ubUeOTlovbz27fZpS/V+1FFH2cMPP2yvv/56ogxUFiqHZ555xrp27Zrx/FRx8l28xRP1Q/1UFwMIdR7MPEBgAAZgAAZgAAYqnAHNHl9xxRV255132tSpU51AlQCV8zC/dlxCVt7NNaueyrt5FJ3X6hTqwfSed955zrFbsljX+u7gcXxGpMEADFQXAwj1Cn8wVxdoXIdGDQZgAAZgAAbiyYBE98KFC9OatEuca9uum266yW2blWkv6ULruKaEujy29+jRw20NprXiep1zzjmh1tcXmmfOj+d9Qb1QLzXNAEIdoc5IMQzAAAzAAAzAQAUxMGrUKOdETVuCacuwvXv3Jjy2y2u11mlrb+u3337bzaxrq6/69esXlRGtsV6xYkViQrvYa9RrugPO9RGBMAAD2RhAqFfQgzkbDPxOgwEDMAADMAAD5c9AKidqmjWX1/N8vI5Hwcx1112XEOn6IM/yUcRLHOXPM3VMHZcrAwh1hDoPQhiAARiAARiAgQpiQLPoCvv27XNbimlf70svvdR5Oa+pDu+4ceNcmrSXuLYby+apvHXr1m4/cjm7q6k0c10EIgzAQDEZQKhX0IO5mCARNw0VDMAADMAADJQGA7t27XKiWH8+/PDDrFuQVUe9eqH+7bffOuGtLc2aNGmS8lWnTh1btGiRy8OcOXMQ6vRlYQAGypIBhDpglyXY1dGp4Bql0SGlnqgnGIABGKjKgGbQ5Rxu8+bNzsN7HMrHC3Wp7z///DPr66+//nJCfenSpfRj6MvCAAyUJQMIdcAuS7Dj0OkgDVU7hpQH5QEDMAADMJCOgcGDB9v+/fud+M7lz913300/hr4sDMBAWTKAUAfssgQ7XUeA7+kkwgAMwAAMwED8GGjUqJH17dvXBg0aZAMHDsz6uvDCC+3888+3o48+mn4MfVkYgIGyZAChDthlCTadsPh1wqgT6gQGYAAGYAAGYAAGYAAGwjGAUEeoI9RhAAZgAAZgAAZgAAZgAAZgAAZixABCPUaVwehSuNElyolyggEYgAEYgAEYgAEYgAEYKGcGEOoIdUbOYAAGYAAGYAAGYAAGYAAGYAAGYsTAYVeePdiu6HehXdC1t51/ci8b2LW3nduph5174mnWt+3J1rN1J+txdAfr0LyFndqyrV3YtbfddNlIG3fxlXZ2h1Os55Ed7LTmba13q8522RkX2KRLx9i4waNswiXX2rUXDLfhvQfZ1X0G2fkdTrNLTznTLu16tg3vMcBuHPh3u/Xy8XbP2Dtt0rAbbNzQ6+3O6263+TPm2/zpj9idN9xpt4+5zSaPvNkmXDHe5k2da/fddI9dc/Fou3PsVLt70gybc9tsm3jNjdZ81NIaf7Vr1854UQYwAAMwAAMwAAMwAAMwAAMwAAOFMnBY539tad1qt7Lu9VvbBa272YXHn259m3e0Hg3bWMd/aWz1Dvtn+x+H/Ts74p/+X+v43+vbgKNPspv6X2aDj+tmfRq1sY7/XMfOqX+8je822JZed6+N6X6pDT62j11z6hC7Z/AEu6bTBXbSf2lsAxp1sv51jrerjzvTbuszwpaOnmXLJz5i06+41ebf/JDdNeJOe/S2RbZh6Zv2/AMrbP7kR2zKZZPt8amL7cHxc+yhCQ/ai3NX27K7ltojN8+z5+Y8a+sWrbGZE6fbYaPfq/HXv/zLvxgvygAGYAAGYAAGYAAGYAAGYAAGYKBQBg476j/WtuP/W2M7rUFbO/voLnZirSOs6X/8V2v5n/6nNf+//9VqHfYfrMFh/9mO/+e/Wc9aR9llx51m0waOsMfH32Vzr5xg5zQ83uYNm2QrJj5g0weMtVGdLrTh7c6z288eY49ePd1u7HqJdfyn2nZdx3NtWt+rbNmoGTbv8tvs6fFz7fU5K+zJOxfbjGun2xN3L7NXFrxkT854wgn00WeNtiW3L7HVc1bbytkrbdEtC+zVhWvto9Xv2wsPrbT1i9fZG4+/Zk8//GSkIr3WrR/nFV+uFdGoXRfr0jXp1a5RhYv9Onb0CV2s41F1qqUc6hzVxo6uE6NGpE4dq5NpwCfb75nO5bdqYSrRDjTpZued2yVzfVIn1VsnlDflDQMwAAMwAANlxUCjfuNszhOrbNUTc2xcv2rWUU3aWJsmxdURh530r62s5b//H3b4P/1PO/K/1LWG//7/s9r/13+1+v/uv9v/f9j/Y3877D9Yu/9c2zr8p9rWu9ZRdveFI23F5Nn2+r2Lbc7l4+yqjn1tyeiptnjknTakVS/7+wkDbFr/6+3+QTfb+M4X28B6J9nFDbvYpK4X2cuTHrLXpy21uwfdYPcOnWxP377IFt++0G4ZPsUemvSAvfXkBlt6+2N2/dmj7f5r7rU3Frxmz05fbktufcyW37XMHp08316c87ytvPdpe2LqY7byvqdsVpQz6jO+sRf2HrBnHs99hj7RQQ/ZAIx8eL2tf2OjbVy73tav3WgbN2609Q+PLKubJ2yZ1Dnpcrvr8VW23pWFymO9rV+/xpbNvNy6FE1ID7I5azbamtmDYlLmR9uYhWts2fXN06bnvJmrbNX0M9P+Hra8Oa64jarK98yZa9w9vWr2JdYxZJtAvfyfeqlzVMdDBjKL/TCk/P9P+VMWlAUMwAAMwECsGWhypo1buMbWv/iYjTu/i3U5f5w99uJ6W7NwnJ1ZTPGs6z78jK1Z/w+9sna9bXxjva1aeJMN6hA9M/8LPDxtGDuHNNwAAAAASUVORK5CYII=;" vertex="1" parent="1">
          <mxGeometry x="-1020" y="290" width="1002" height="755" as="geometry" />
        </mxCell>
        <mxCell id="EIkCkoQk2M--rUu0jOC--72" value="Enum - typy&lt;br&gt;" style="rounded=0;whiteSpace=wrap;html=1;" vertex="1" parent="1">
          <mxGeometry x="30" y="1100" width="540" height="300" as="geometry" />
        </mxCell>
        <mxCell id="EIkCkoQk2M--rUu0jOC--73" value="mam cos co przechowuje wszystkie sceny spelli&lt;br&gt;i mam speltree ktore przechowuje spelle&lt;br&gt;spell tree oddaje spella&lt;br&gt;castuje sie spell z przechowanej sceny i castuje go gosc co jes przechowuje" style="rounded=0;whiteSpace=wrap;html=1;" vertex="1" parent="1">
          <mxGeometry x="-1090" y="1260" width="630" height="360" as="geometry" />
        </mxCell>
      </root>
    </mxGraphModel>
  </diagram>
</mxfile>
